<?xml version="1.0" encoding="UTF-8" standalone="no"?>
<!-- Generator: Adobe Illustrator 19.0.0, SVG Export Plug-In . SVG Version: 6.00 Build 0)  -->

<svg
   xmlns:dc="http://purl.org/dc/elements/1.1/"
   xmlns:cc="http://creativecommons.org/ns#"
   xmlns:rdf="http://www.w3.org/1999/02/22-rdf-syntax-ns#"
   xmlns:svg="http://www.w3.org/2000/svg"
   xmlns="http://www.w3.org/2000/svg"
   xmlns:sodipodi="http://sodipodi.sourceforge.net/DTD/sodipodi-0.dtd"
   xmlns:inkscape="http://www.inkscape.org/namespaces/inkscape"
   version="1.1"
   id="Capa_1"
   x="0px"
   y="0px"
   viewBox="0 0 405.333 405.333"
   style="enable-background:new 0 0 405.333 405.333;"
   xml:space="preserve"
   sodipodi:docname="bus.svg"
   inkscape:version="0.92.3 (2405546, 2018-03-11)"><metadata
   id="metadata43"><rdf:RDF><cc:Work
       rdf:about=""><dc:format>image/svg+xml</dc:format><dc:type
         rdf:resource="http://purl.org/dc/dcmitype/StillImage" /></cc:Work></rdf:RDF></metadata><defs
   id="defs41" /><sodipodi:namedview
   pagecolor="#ffffff"
   bordercolor="#666666"
   borderopacity="1"
   objecttolerance="10"
   gridtolerance="10"
   guidetolerance="10"
   inkscape:pageopacity="0"
   inkscape:pageshadow="2"
   inkscape:window-width="813"
   inkscape:window-height="480"
   id="namedview39"
   showgrid="false"
   inkscape:zoom="0.58223731"
   inkscape:cx="202.6665"
   inkscape:cy="202.6665"
   inkscape:window-x="754"
   inkscape:window-y="648"
   inkscape:window-maximized="0"
   inkscape:current-layer="Capa_1" />
<g
   id="g6"
   transform="matrix(0.91525424,0,0,0.91525424,17.559325,16.564974)"
   style="stroke-width:1.0925926">
	<g
   id="g4"
   style="stroke-width:1.0925926">
		<path
   d="M 202.667,0 C 108.373,0 32,10.667 32,85.333 v 213.333 c 0,18.88 8.32,35.627 21.333,47.36 V 384 c 0,11.733 9.6,21.333 21.333,21.333 H 96 c 11.84,0 21.333,-9.6 21.333,-21.333 V 362.667 H 288 V 384 c 0,11.733 9.493,21.333 21.333,21.333 h 21.333 c 11.733,0 21.333,-9.6 21.333,-21.333 v -37.973 c 13.013,-11.733 21.333,-28.48 21.333,-47.36 V 85.333 C 373.333,10.667 296.96,0 202.667,0 Z m -96,320 c -17.707,0 -32,-14.293 -32,-32 0,-17.707 14.293,-32 32,-32 17.707,0 32,14.293 32,32 0,17.707 -14.294,32 -32,32 z m 192,0 c -17.707,0 -32,-14.293 -32,-32 0,-17.707 14.293,-32 32,-32 17.707,0 32,14.293 32,32 0,17.707 -14.294,32 -32,32 z m 32,-128 h -256 V 85.333 h 256 z"
   id="path2"
   inkscape:connector-curvature="0"
   style="stroke-width:1.0925926" />
	</g>
</g>
<g
   id="g8">
</g>
<g
   id="g10">
</g>
<g
   id="g12">
</g>
<g
   id="g14">
</g>
<g
   id="g16">
</g>
<g
   id="g18">
</g>
<g
   id="g20">
</g>
<g
   id="g22">
</g>
<g
   id="g24">
</g>
<g
   id="g26">
</g>
<g
   id="g28">
</g>
<g
   id="g30">
</g>
<g
   id="g32">
</g>
<g
   id="g34">
</g>
<g
   id="g36">
</g>
</svg>