<?xml version="1.0" encoding="UTF-8" standalone="no"?>
<!-- Generator: Adobe Illustrator 19.0.0, SVG Export Plug-In . SVG Version: 6.00 Build 0)  -->

<svg
   xmlns:dc="http://purl.org/dc/elements/1.1/"
   xmlns:cc="http://creativecommons.org/ns#"
   xmlns:rdf="http://www.w3.org/1999/02/22-rdf-syntax-ns#"
   xmlns:svg="http://www.w3.org/2000/svg"
   xmlns="http://www.w3.org/2000/svg"
   xmlns:sodipodi="http://sodipodi.sourceforge.net/DTD/sodipodi-0.dtd"
   xmlns:inkscape="http://www.inkscape.org/namespaces/inkscape"
   version="1.1"
   id="Capa_1"
   x="0px"
   y="0px"
   viewBox="0 0 473.6 473.6"
   style="enable-background:new 0 0 473.6 473.6;"
   xml:space="preserve"
   sodipodi:docname="car.svg"
   inkscape:version="0.92.3 (2405546, 2018-03-11)"><metadata
   id="metadata51"><rdf:RDF><cc:Work
       rdf:about=""><dc:format>image/svg+xml</dc:format><dc:type
         rdf:resource="http://purl.org/dc/dcmitype/StillImage" /></cc:Work></rdf:RDF></metadata><defs
   id="defs49">
	

		
	
			
			
			
			
		</defs><sodipodi:namedview
   pagecolor="#ffffff"
   bordercolor="#666666"
   borderopacity="1"
   objecttolerance="10"
   gridtolerance="10"
   guidetolerance="10"
   inkscape:pageopacity="0"
   inkscape:pageshadow="2"
   inkscape:window-width="813"
   inkscape:window-height="480"
   id="namedview47"
   showgrid="false"
   inkscape:zoom="0.4983108"
   inkscape:cx="236.8"
   inkscape:cy="236.8"
   inkscape:window-x="848"
   inkscape:window-y="591"
   inkscape:window-maximized="0"
   inkscape:current-layer="Capa_1" />
<path
   inkscape:connector-curvature="0"
   id="path6"
   d="M 384.427,87.813 C 380.054,75.226 368.107,66.266 354.134,66.266 H 119.467 c -13.973,0 -25.92,8.96 -30.293,21.547 L 44.8,215.6 V 386.267 C 44.8,398 54.4,407.6 66.133,407.6 h 21.333 c 11.84,0 21.333,-9.6 21.333,-21.333 v -21.333 h 256 v 21.333 c 0,11.733 9.6,21.333 21.333,21.333 h 21.333 c 11.84,0 21.333,-9.6 21.333,-21.333 V 215.6 Z m -264.96,213.12 c -17.707,0 -32,-14.293 -32,-32 0,-17.707 14.293,-32 32,-32 17.707,0 32,14.293 32,32 0,17.707 -14.294,32 -32,32 z m 234.666,0 c -17.707,0 -32,-14.293 -32,-32 0,-17.707 14.293,-32 32,-32 17.707,0 32,14.293 32,32 0,17.707 -14.293,32 -32,32 z M 87.467,194.267 l 32,-96 h 234.667 l 32,96 z" />
<g
   id="g16">
</g>
<g
   id="g18">
</g>
<g
   id="g20">
</g>
<g
   id="g22">
</g>
<g
   id="g24">
</g>
<g
   id="g26">
</g>
<g
   id="g28">
</g>
<g
   id="g30">
</g>
<g
   id="g32">
</g>
<g
   id="g34">
</g>
<g
   id="g36">
</g>
<g
   id="g38">
</g>
<g
   id="g40">
</g>
<g
   id="g42">
</g>
<g
   id="g44">
</g>
</svg>