<svg height="512pt" viewBox="-56 0 512 512" width="512pt" xmlns="http://www.w3.org/2000/svg"><path d="m199.65625 379.332031 21.847656-50.976562h-43.695312zm0 0"/><path d="m176.949219 298.324219h45.410156l-22.703125-52.980469zm0 0"/><path d="m364.921875 327.273438c-8.292969 0-15.019531-6.726563-15.019531-15.019532 0-8.292968 6.726562-15.015625 15.019531-15.015625h34.382813c-7.277344-97.171875-84.226563-175.21875-180.910157-184.234375 22.84375-7.8125 39.324219-29.480468 39.324219-54.941406 0-32.015625-26.042969-58.0625-58.058594-58.0625s-58.0625 26.046875-58.0625 58.0625c0 25.460938 16.476563 47.128906 39.324219 54.941406-96.714844 9.015625-173.679687 87.105469-180.921875 184.320313h34.472656c8.292969 0 15.019532 6.722656 15.019532 15.015625 0 8.292968-6.726563 15.015625-15.019532 15.015625h-34.472656c7.339844 98.484375 86.230469 177.347656 184.722656 184.644531v-34.394531c0-8.292969 6.722656-15.019531 15.015625-15.019531s15.015625 6.726562 15.015625 15.019531v34.382812c98.445313-7.375 177.269532-86.25 184.5625-184.71875h-34.394531zm-193.292969-269.210938c0-15.457031 12.574219-28.03125 28.03125-28.03125 15.453125 0 28.027344 12.574219 28.027344 28.03125 0 9.933594-5.199219 18.667969-13.011719 23.648438v-7.878907c0-8.292969-6.722656-15.015625-15.015625-15.015625-8.292968 0-15.015625 6.722656-15.015625 15.015625v7.878907c-7.816406-4.980469-13.015625-13.714844-13.015625-23.648438zm42.960938 56.105469v32.90625c0 8.292969-6.722656 15.015625-15.015625 15.015625s-15.019531-6.722656-15.019531-15.015625v-32.957031c4.820312 1.300781 9.878906 2.003906 15.105468 2.003906 5.160156.003906 10.160156-.683594 14.929688-1.953125zm43.917968 204.085937c-.003906.003906-45.050781 105.113282-45.050781 105.113282-2.363281 5.523437-7.796875 9.101562-13.800781 9.101562-6.007812 0-11.4375-3.578125-13.804688-9.101562l-45.046874-105.113282c-.605469-1.410156-.992188-2.941406-1.144532-4.464844-.242187-2.492187.160156-5.070312 1.144532-7.363281l45.046874-105.117187c2.367188-5.519532 7.796876-9.097656 13.804688-9.097656 6.003906 0 11.4375 3.578124 13.800781 9.097656l45.050781 105.117187c.695313 1.625 1.101563 3.386719 1.191407 5.152344.121093 2.269531-.296875 4.589844-1.191407 6.675781zm0 0"/></svg>