<svg height="511pt" viewBox="1 1 511.99963 511" width="511pt" xmlns="http://www.w3.org/2000/svg"><path d="m507.703125 94.074219-59.003906-60.085938c-2.820313-2.871093-6.675781-4.492187-10.703125-4.492187h-166.996094v-13.996094c0-8.285156-6.714844-15-15-15s-15 6.714844-15 15v130h-166.996094c-4.019531 0-7.871094 1.613281-10.6875 4.476562l-59.003906 59.929688c-5.746094 5.832031-5.75 15.191406-.015625 21.035156l59.003906 60.066406c2.820313 2.871094 6.675781 4.488282 10.703125 4.488282h166.996094v69.582031c-17.460938 6.191406-30 22.863281-30 42.417969v15.003906h90v-15.003906c0-19.554688-12.542969-36.226563-30-42.417969v-185.582031h166.996094c4.019531 0 7.867187-1.609375 10.6875-4.472656l59.003906-59.914063c5.742188-5.832031 5.75-15.191406.015625-21.035156zm0 0"/><path d="m361 452.5h-210c-24.851562 0-45 20.144531-45 45 0 8.28125 6.714844 15 15 15h270c8.285156 0 15-6.71875 15-15 0-24.855469-20.148438-45-45-45zm0 0"/></svg>