<svg height="512pt" viewBox="-46 0 512 512" width="512pt" xmlns="http://www.w3.org/2000/svg"><path d="m233.402344 167.035156-23.539063-37.910156-24.804687 39.097656c-2.074219 3.265625-5.324219 5.601563-9.078125 6.527344l-43.332031 10.671875 29.519531 35.671875c2.464843 2.976562 3.683593 6.796875 3.402343 10.652344l-3.238281 44.507812 43.046875-17.050781c3.59375-1.425781 7.601563-1.402344 11.183594.054687l41.328125 16.835938-2.914063-46.210938c-.246093-3.859374 1.011719-7.664062 3.503907-10.617187l28.785156-34.105469-44.847656-11.507812c-3.746094-.960938-6.976563-3.332032-9.015625-6.617188zm0 0"/><path d="m210 0c-115.792969 0-210 94.207031-210 210 0 93.359375 61.519531 175.210938 150.441406 201.429688l46.140625 92.277343c2.539063 5.082031 7.734375 8.292969 13.417969 8.292969 5.679688 0 10.875-3.210938 13.414062-8.292969l46.140626-92.277343c88.925781-26.214844 150.445312-108.070313 150.445312-201.429688 0-115.792969-94.207031-210-210-210zm115.605469 186.246094-40.308594 47.761718 4.039063 64.046876c.324218 5.152343-2.023438 10.109374-6.214844 13.125-4.1875 3.011718-9.636719 3.660156-14.417969 1.710937l-57.878906-23.578125-59.664063 23.632812c-1.785156.707032-3.660156 1.054688-5.523437 1.054688-3.144531 0-6.265625-.988281-8.875-2.90625-4.164063-3.054688-6.460938-8.035156-6.085938-13.183594l4.539063-62.332031-40.914063-49.441406c-3.292969-3.976563-4.308593-9.367188-2.6875-14.269531 1.617188-4.898438 5.644531-8.625 10.65625-9.859376l60.683594-14.945312 34.378906-54.1875c2.753907-4.339844 7.53125-6.964844 12.667969-6.964844h.070312c5.164063.023438 9.949219 2.703125 12.671876 7.085938l32.96875 53.097656 62.160156 15.953125c5 1.28125 8.988281 5.046875 10.558594 9.960937 1.574218 4.914063.503906 10.296876-2.824219 14.238282zm0 0"/></svg>