<?xml version="1.0" encoding="UTF-8"?>
<!DOCTYPE svg PUBLIC "-//W3C//DTD SVG 1.1//EN" "http://www.w3.org/Graphics/SVG/1.1/DTD/svg11.dtd">
<svg version="1.2" width="180.89mm" height="180.89mm" viewBox="0 0 18089 18089" preserveAspectRatio="xMidYMid" fill-rule="evenodd" stroke-width="28.222" stroke-linejoin="round" xmlns="http://www.w3.org/2000/svg" xmlns:ooo="http://xml.openoffice.org/svg/export" xmlns:xlink="http://www.w3.org/1999/xlink" xmlns:presentation="http://sun.com/xmlns/staroffice/presentation" xmlns:smil="http://www.w3.org/2001/SMIL20/" xmlns:anim="urn:oasis:names:tc:opendocument:xmlns:animation:1.0" xml:space="preserve">
 <defs class="ClipPathGroup">
  <clipPath id="presentation_clip_path" clipPathUnits="userSpaceOnUse">
   <rect x="0" y="0" width="18089" height="18089"/>
  </clipPath>
  <clipPath id="presentation_clip_path_shrink" clipPathUnits="userSpaceOnUse">
   <rect x="18" y="18" width="18053" height="18053"/>
  </clipPath>
 </defs>
 <defs class="TextShapeIndex">
  <g ooo:slide="id1" ooo:id-list="id3"/>
 </defs>
 <defs class="EmbeddedBulletChars">
  <g id="bullet-char-template-57356" transform="scale(0.00048828125,-0.00048828125)">
   <path d="M 580,1141 L 1163,571 580,0 -4,571 580,1141 Z"/>
  </g>
  <g id="bullet-char-template-57354" transform="scale(0.00048828125,-0.00048828125)">
   <path d="M 8,1128 L 1137,1128 1137,0 8,0 8,1128 Z"/>
  </g>
  <g id="bullet-char-template-10146" transform="scale(0.00048828125,-0.00048828125)">
   <path d="M 174,0 L 602,739 174,1481 1456,739 174,0 Z M 1358,739 L 309,1346 659,739 1358,739 Z"/>
  </g>
  <g id="bullet-char-template-10132" transform="scale(0.00048828125,-0.00048828125)">
   <path d="M 2015,739 L 1276,0 717,0 1260,543 174,543 174,936 1260,936 717,1481 1274,1481 2015,739 Z"/>
  </g>
  <g id="bullet-char-template-10007" transform="scale(0.00048828125,-0.00048828125)">
   <path d="M 0,-2 C -7,14 -16,27 -25,37 L 356,567 C 262,823 215,952 215,954 215,979 228,992 255,992 264,992 276,990 289,987 310,991 331,999 354,1012 L 381,999 492,748 772,1049 836,1024 860,1049 C 881,1039 901,1025 922,1006 886,937 835,863 770,784 769,783 710,716 594,584 L 774,223 C 774,196 753,168 711,139 L 727,119 C 717,90 699,76 672,76 641,76 570,178 457,381 L 164,-76 C 142,-110 111,-127 72,-127 30,-127 9,-110 8,-76 1,-67 -2,-52 -2,-32 -2,-23 -1,-13 0,-2 Z"/>
  </g>
  <g id="bullet-char-template-10004" transform="scale(0.00048828125,-0.00048828125)">
   <path d="M 285,-33 C 182,-33 111,30 74,156 52,228 41,333 41,471 41,549 55,616 82,672 116,743 169,778 240,778 293,778 328,747 346,684 L 369,508 C 377,444 397,411 428,410 L 1163,1116 C 1174,1127 1196,1133 1229,1133 1271,1133 1292,1118 1292,1087 L 1292,965 C 1292,929 1282,901 1262,881 L 442,47 C 390,-6 338,-33 285,-33 Z"/>
  </g>
  <g id="bullet-char-template-9679" transform="scale(0.00048828125,-0.00048828125)">
   <path d="M 813,0 C 632,0 489,54 383,161 276,268 223,411 223,592 223,773 276,916 383,1023 489,1130 632,1184 813,1184 992,1184 1136,1130 1245,1023 1353,916 1407,772 1407,592 1407,412 1353,268 1245,161 1136,54 992,0 813,0 Z"/>
  </g>
  <g id="bullet-char-template-8226" transform="scale(0.00048828125,-0.00048828125)">
   <path d="M 346,457 C 273,457 209,483 155,535 101,586 74,649 74,723 74,796 101,859 155,911 209,963 273,989 346,989 419,989 480,963 531,910 582,859 608,796 608,723 608,648 583,586 532,535 482,483 420,457 346,457 Z"/>
  </g>
  <g id="bullet-char-template-8211" transform="scale(0.00048828125,-0.00048828125)">
   <path d="M -4,459 L 1135,459 1135,606 -4,606 -4,459 Z"/>
  </g>
  <g id="bullet-char-template-61548" transform="scale(0.00048828125,-0.00048828125)">
   <path d="M 173,740 C 173,903 231,1043 346,1159 462,1274 601,1332 765,1332 928,1332 1067,1274 1183,1159 1299,1043 1357,903 1357,740 1357,577 1299,437 1183,322 1067,206 928,148 765,148 601,148 462,206 346,322 231,437 173,577 173,740 Z"/>
  </g>
 </defs>
 <g>
  <g id="id2" class="Master_Slide">
   <g id="bg-id2" class="Background"/>
   <g id="bo-id2" class="BackgroundObjects"/>
  </g>
 </g>
 <g class="SlideGroup">
  <g>
   <g id="container-id1">
    <g id="id1" class="Slide" clip-path="url(#presentation_clip_path)">
     <g class="Page">
      <g class="com.sun.star.drawing.ClosedBezierShape">
       <g id="id3">
        <rect class="BoundingBox" stroke="none" fill="none" x="1635" y="12" width="14818" height="18064"/>
        <path fill="rgb(0,0,0)" stroke="none" d="M 11871,8971 C 11580,9476 11161,9895 10656,10186 10151,10478 9579,10631 8996,10631 8413,10631 7841,10478 7336,10186 6831,9895 6412,9476 6121,8971 5829,8466 5676,7894 5676,7311 5676,6728 5829,6156 6121,5651 6412,5146 6831,4727 7336,4436 7841,4144 8413,3991 8996,3991 9579,3991 10151,4144 10656,4436 11161,4727 11580,5146 11871,5651 12163,6156 12316,6728 12316,7311 12316,7894 12163,8466 11871,8971 Z M 12451,9296 C 12803,8685 12989,7992 12989,7287 12989,6582 12803,5889 12451,5278 12098,4668 11591,4161 10980,3808 10370,3456 9677,3270 8972,3270 8267,3270 7574,3456 6963,3808 6353,4161 5846,4668 5493,5279 5141,5889 4955,6582 4955,7287 4955,7992 5141,8685 5493,9296 5846,9906 6353,10413 6964,10766 7574,11118 8267,11304 8972,11304 9677,11304 10370,11118 10981,10766 11591,10413 12098,9906 12451,9296 Z M 10989,8424 C 11187,8080 11292,7689 11292,7291 11292,6894 11187,6503 10989,6159 10790,5815 10504,5529 10160,5330 9816,5132 9425,5027 9027,5027 8630,5027 8239,5132 7895,5330 7551,5529 7265,5815 7066,6159 6868,6503 6763,6894 6763,7292 6763,7689 6868,8080 7066,8424 7265,8768 7551,9054 7895,9253 8239,9451 8630,9556 9028,9556 9425,9556 9816,9451 10160,9253 10504,9054 10790,8768 10989,8424 Z M 9044,13 C 13128,13 16451,3337 16451,7421 16451,10714 14281,13601 11144,14526 L 9516,17781 C 9427,17961 9243,18074 9044,18074 8844,18074 8660,17961 8571,17781 L 6943,14526 C 3806,13601 1636,10714 1636,7421 1636,3337 4959,13 9044,13 Z M 9944,7847 C 9844,8021 9699,8166 9525,8266 9350,8367 9152,8420 8951,8420 8750,8420 8552,8367 8378,8266 8203,8166 8058,8021 7958,7847 7857,7672 7804,7474 7804,7273 7804,7072 7857,6874 7958,6700 8058,6525 8203,6380 8378,6280 8552,6179 8750,6126 8951,6126 9152,6126 9350,6179 9525,6280 9699,6380 9844,6525 9944,6699 10045,6874 10098,7072 10098,7273 10098,7474 10045,7672 9944,7847 Z"/>
       </g>
      </g>
     </g>
    </g>
   </g>
  </g>
 </g>
</svg>