<svg height="512pt" viewBox="-46 0 512 512" width="512pt" xmlns="http://www.w3.org/2000/svg"><path d="m165.28125 183.78125v81.21875h90v-81.921875l-45.183594-25.738281zm0 0"/><path d="m210 0c-115.792969 0-210 94.207031-210 210 0 93.359375 61.519531 175.210938 150.441406 201.429688l46.140625 92.277343c2.542969 5.082031 7.734375 8.292969 13.417969 8.292969 5.679688 0 10.875-3.210938 13.414062-8.292969l46.140626-92.277343c88.925781-26.214844 150.445312-108.070313 150.445312-201.429688 0-115.792969-94.207031-210-210-210zm103.003906 198.695312c-4.101562 7.199219-13.261718 9.707032-20.457031 5.609376l-7.265625-4.136719v79.832031c0 8.285156-6.714844 15-15 15h-120c-8.285156 0-15-6.714844-15-15v-78.515625l-7.628906 4.5c-2.390625 1.410156-5.019532 2.082031-7.609375 2.082031-5.132813 0-10.132813-2.636718-12.933594-7.378906-4.207031-7.136719-1.835937-16.332031 5.296875-20.542969l89.9375-53.0625c4.632812-2.734375 10.371094-2.78125 15.046875-.113281l90.003906 51.269531c7.199219 4.101563 9.710938 13.257813 5.609375 20.457031zm0 0"/></svg>