<svg height="512pt" viewBox="0 0 512 512" width="512pt" xmlns="http://www.w3.org/2000/svg"><path d="m256 151c-57.898438 0-105 47.101562-105 105s47.101562 105 105 105 105-47.101562 105-105-47.101562-105-105-105zm0 165c-33.085938 0-60-26.914062-60-60s26.914062-60 60-60 60 26.914062 60 60-26.914062 60-60 60zm0 0"/><path d="m256 226c-16.542969 0-30 13.457031-30 30s13.457031 30 30 30 30-13.457031 30-30-13.457031-30-30-30zm0 0"/><path d="m256 0c-141.160156 0-256 114.839844-256 256s114.839844 256 256 256 256-114.839844 256-256-114.839844-256-256-256zm181 270.992188h-46.835938c-6.9375 62.484374-56.683593 112.230468-119.164062 119.171874v46.828126c0 8.285156-6.71875 15-15 15-8.285156 0-15-6.714844-15-15v-46.828126c-62.480469-6.941406-112.226562-56.6875-119.164062-119.171874h-46.835938c-8.285156 0-15-6.714844-15-15 0-8.28125 6.714844-15 15-15h46.839844c6.941406-62.472657 56.683594-112.214844 119.160156-119.152344v-46.847656c0-8.285157 6.714844-15 15-15 8.28125 0 15 6.714843 15 15v46.847656c62.476562 6.9375 112.21875 56.675781 119.160156 119.152344h46.839844c8.28125 0 15 6.714843 15 15 0 8.285156-6.71875 15-15 15zm0 0"/></svg>