<?xml version="1.0" encoding="UTF-8"?>
<!DOCTYPE svg PUBLIC "-//W3C//DTD SVG 1.1//EN" "http://www.w3.org/Graphics/SVG/1.1/DTD/svg11.dtd">
<svg version="1.2" width="225.78mm" height="225.78mm" viewBox="0 0 22578 22578" preserveAspectRatio="xMidYMid" fill-rule="evenodd" stroke-width="28.222" stroke-linejoin="round" xmlns="http://www.w3.org/2000/svg" xmlns:ooo="http://xml.openoffice.org/svg/export" xmlns:xlink="http://www.w3.org/1999/xlink" xmlns:presentation="http://sun.com/xmlns/staroffice/presentation" xmlns:smil="http://www.w3.org/2001/SMIL20/" xmlns:anim="urn:oasis:names:tc:opendocument:xmlns:animation:1.0" xml:space="preserve">
 <defs class="ClipPathGroup">
  <clipPath id="presentation_clip_path" clipPathUnits="userSpaceOnUse">
   <rect x="0" y="0" width="22578" height="22578"/>
  </clipPath>
  <clipPath id="presentation_clip_path_shrink" clipPathUnits="userSpaceOnUse">
   <rect x="22" y="22" width="22533" height="22533"/>
  </clipPath>
 </defs>
 <defs class="TextShapeIndex">
  <g ooo:slide="id1" ooo:id-list="id3 id4 id5 id6 id7 id8 id9 id10 id11 id12"/>
 </defs>
 <defs class="EmbeddedBulletChars">
  <g id="bullet-char-template-57356" transform="scale(0.00048828125,-0.00048828125)">
   <path d="M 580,1141 L 1163,571 580,0 -4,571 580,1141 Z"/>
  </g>
  <g id="bullet-char-template-57354" transform="scale(0.00048828125,-0.00048828125)">
   <path d="M 8,1128 L 1137,1128 1137,0 8,0 8,1128 Z"/>
  </g>
  <g id="bullet-char-template-10146" transform="scale(0.00048828125,-0.00048828125)">
   <path d="M 174,0 L 602,739 174,1481 1456,739 174,0 Z M 1358,739 L 309,1346 659,739 1358,739 Z"/>
  </g>
  <g id="bullet-char-template-10132" transform="scale(0.00048828125,-0.00048828125)">
   <path d="M 2015,739 L 1276,0 717,0 1260,543 174,543 174,936 1260,936 717,1481 1274,1481 2015,739 Z"/>
  </g>
  <g id="bullet-char-template-10007" transform="scale(0.00048828125,-0.00048828125)">
   <path d="M 0,-2 C -7,14 -16,27 -25,37 L 356,567 C 262,823 215,952 215,954 215,979 228,992 255,992 264,992 276,990 289,987 310,991 331,999 354,1012 L 381,999 492,748 772,1049 836,1024 860,1049 C 881,1039 901,1025 922,1006 886,937 835,863 770,784 769,783 710,716 594,584 L 774,223 C 774,196 753,168 711,139 L 727,119 C 717,90 699,76 672,76 641,76 570,178 457,381 L 164,-76 C 142,-110 111,-127 72,-127 30,-127 9,-110 8,-76 1,-67 -2,-52 -2,-32 -2,-23 -1,-13 0,-2 Z"/>
  </g>
  <g id="bullet-char-template-10004" transform="scale(0.00048828125,-0.00048828125)">
   <path d="M 285,-33 C 182,-33 111,30 74,156 52,228 41,333 41,471 41,549 55,616 82,672 116,743 169,778 240,778 293,778 328,747 346,684 L 369,508 C 377,444 397,411 428,410 L 1163,1116 C 1174,1127 1196,1133 1229,1133 1271,1133 1292,1118 1292,1087 L 1292,965 C 1292,929 1282,901 1262,881 L 442,47 C 390,-6 338,-33 285,-33 Z"/>
  </g>
  <g id="bullet-char-template-9679" transform="scale(0.00048828125,-0.00048828125)">
   <path d="M 813,0 C 632,0 489,54 383,161 276,268 223,411 223,592 223,773 276,916 383,1023 489,1130 632,1184 813,1184 992,1184 1136,1130 1245,1023 1353,916 1407,772 1407,592 1407,412 1353,268 1245,161 1136,54 992,0 813,0 Z"/>
  </g>
  <g id="bullet-char-template-8226" transform="scale(0.00048828125,-0.00048828125)">
   <path d="M 346,457 C 273,457 209,483 155,535 101,586 74,649 74,723 74,796 101,859 155,911 209,963 273,989 346,989 419,989 480,963 531,910 582,859 608,796 608,723 608,648 583,586 532,535 482,483 420,457 346,457 Z"/>
  </g>
  <g id="bullet-char-template-8211" transform="scale(0.00048828125,-0.00048828125)">
   <path d="M -4,459 L 1135,459 1135,606 -4,606 -4,459 Z"/>
  </g>
  <g id="bullet-char-template-61548" transform="scale(0.00048828125,-0.00048828125)">
   <path d="M 173,740 C 173,903 231,1043 346,1159 462,1274 601,1332 765,1332 928,1332 1067,1274 1183,1159 1299,1043 1357,903 1357,740 1357,577 1299,437 1183,322 1067,206 928,148 765,148 601,148 462,206 346,322 231,437 173,577 173,740 Z"/>
  </g>
 </defs>
 <defs class="TextEmbeddedBitmaps"/>
 <g>
  <g id="id2" class="Master_Slide">
   <g id="bg-id2" class="Background"/>
   <g id="bo-id2" class="BackgroundObjects"/>
  </g>
 </g>
 <g class="SlideGroup">
  <g>
   <g id="container-id1">
    <g id="id1" class="Slide" clip-path="url(#presentation_clip_path)">
     <g class="Page">
      <g class="Group">
       <g class="com.sun.star.drawing.CustomShape">
        <g id="id3">
         <rect class="BoundingBox" stroke="none" fill="none" x="5345" y="5345" width="11882" height="11885"/>
         <path fill="none" stroke="rgb(0,0,0)" stroke-width="1305" stroke-linejoin="round" d="M 11285,5998 C 14283,5998 16572,8288 16572,11286 16572,14284 14283,16575 11285,16575 8287,16575 5998,14284 5998,11286 5998,8288 8287,5998 11285,5998 Z"/>
        </g>
       </g>
       <g class="com.sun.star.drawing.CustomShape">
        <g id="id4">
         <rect class="BoundingBox" stroke="none" fill="none" x="8634" y="8646" width="5305" height="5274"/>
         <path fill="none" stroke="rgb(0,0,0)" stroke-width="1305" stroke-linejoin="round" d="M 11285,9299 C 12418,9299 13284,10158 13284,11282 13284,12406 12418,13265 11285,13265 10152,13265 9287,12406 9287,11282 9287,10158 10152,9299 11285,9299 Z"/>
        </g>
       </g>
       <g class="Group">
        <g class="com.sun.star.drawing.CustomShape">
         <g id="id5">
          <rect class="BoundingBox" stroke="none" fill="none" x="10635" y="18642" width="1306" height="1252"/>
          <path fill="rgb(0,0,0)" stroke="none" d="M 11287,19893 C 11656,19893 11939,19622 11939,19268 11939,18914 11656,18643 11287,18643 10918,18643 10635,18914 10635,19268 10635,19622 10918,19893 11287,19893 Z M 10635,19893 L 10635,19893 Z M 11940,18642 L 11940,18642 Z"/>
         </g>
        </g>
        <g class="com.sun.star.drawing.CustomShape">
         <g id="id6">
          <rect class="BoundingBox" stroke="none" fill="none" x="10634" y="17069" width="1305" height="2199"/>
          <path fill="rgb(0,0,0)" stroke="none" d="M 11286,19266 L 10635,19266 10635,17070 11937,17070 11937,19266 11286,19266 Z"/>
          <path fill="none" stroke="rgb(0,0,0)" d="M 11286,19266 L 10635,19266 10635,17070 11937,17070 11937,19266 11286,19266 Z"/>
         </g>
        </g>
       </g>
       <g class="Group">
        <g class="com.sun.star.drawing.CustomShape">
         <g id="id7">
          <rect class="BoundingBox" stroke="none" fill="none" x="10635" y="2651" width="1306" height="1252"/>
          <path fill="rgb(0,0,0)" stroke="none" d="M 11287,2651 C 11656,2651 11939,2922 11939,3276 11939,3630 11656,3901 11287,3901 10918,3901 10635,3630 10635,3276 10635,2922 10918,2651 11287,2651 Z M 10635,2651 L 10635,2651 Z M 11940,3902 L 11940,3902 Z"/>
         </g>
        </g>
        <g class="com.sun.star.drawing.CustomShape">
         <g id="id8">
          <rect class="BoundingBox" stroke="none" fill="none" x="10634" y="3277" width="1305" height="2199"/>
          <path fill="rgb(0,0,0)" stroke="none" d="M 11286,3278 L 11937,3278 11937,5474 10635,5474 10635,3278 11286,3278 Z"/>
          <path fill="none" stroke="rgb(0,0,0)" d="M 11286,3278 L 11937,3278 11937,5474 10635,5474 10635,3278 11286,3278 Z"/>
         </g>
        </g>
       </g>
       <g class="Group">
        <g class="com.sun.star.drawing.CustomShape">
         <g id="id9">
          <rect class="BoundingBox" stroke="none" fill="none" x="2656" y="10632" width="1253" height="1310"/>
          <path fill="rgb(0,0,0)" stroke="none" d="M 2657,11284 C 2656,11653 2926,11937 3280,11938 3634,11939 3906,11657 3907,11288 3908,10919 3638,10635 3284,10634 2930,10633 2658,10915 2657,11284 Z M 2659,10632 L 2659,10632 Z M 3906,11941 L 3906,11941 Z"/>
         </g>
        </g>
        <g class="com.sun.star.drawing.CustomShape">
         <g id="id10">
          <rect class="BoundingBox" stroke="none" fill="none" x="3281" y="10634" width="2203" height="1311"/>
          <path fill="rgb(0,0,0)" stroke="none" d="M 3284,11286 L 3286,10635 5482,10641 5478,11943 3282,11937 3284,11286 Z"/>
          <path fill="none" stroke="rgb(0,0,0)" d="M 3284,11286 L 3286,10635 5482,10641 5478,11943 3282,11937 3284,11286 Z"/>
         </g>
        </g>
       </g>
       <g class="Group">
        <g class="com.sun.star.drawing.CustomShape">
         <g id="id11">
          <rect class="BoundingBox" stroke="none" fill="none" x="18672" y="10633" width="1253" height="1310"/>
          <path fill="rgb(0,0,0)" stroke="none" d="M 19923,11285 C 19924,11654 19654,11938 19300,11939 18946,11940 18674,11658 18673,11289 18672,10920 18942,10636 19296,10635 19650,10634 19922,10916 19923,11285 Z M 19921,10633 L 19921,10633 Z M 18674,11942 L 18674,11942 Z"/>
         </g>
        </g>
        <g class="com.sun.star.drawing.CustomShape">
         <g id="id12">
          <rect class="BoundingBox" stroke="none" fill="none" x="17097" y="10632" width="2203" height="1312"/>
          <path fill="rgb(0,0,0)" stroke="none" d="M 19296,11284 L 19298,11935 17102,11942 17098,10640 19294,10633 19296,11284 Z"/>
          <path fill="none" stroke="rgb(0,0,0)" d="M 19296,11284 L 19298,11935 17102,11942 17098,10640 19294,10633 19296,11284 Z"/>
         </g>
        </g>
       </g>
      </g>
     </g>
    </g>
   </g>
  </g>
 </g>
</svg>