<svg height="512pt" viewBox="0 -20 512 512" width="512pt" xmlns="http://www.w3.org/2000/svg"><path d="m382 247.246094c-22.054688 0-40 17.945312-40 40 0 10.449218 6.40625 27.5 16.320312 43.445312 9.214844 14.820313 17.582032 22.644532 21.941407 25.441406l1.773437.9375c3.527344-1.503906 13.023438-9.304687 23.644532-26.382812 9.914062-15.941406 16.320312-32.992188 16.320312-43.441406 0-22.054688-17.941406-40-40-40zm0 55c-8.261719 0-15-6.738282-15-15 0-8.261719 6.738281-15 15-15s15 6.738281 15 15c0 8.261718-6.738281 15-15 15zm0 0"/><path d="m500.605469 38.894531-155.3125-38.453125c-2.257813-.5625-4.617188-.585937-6.890625-.074218l-162.238282 36.421874-157.792968-36.402343c-4.453125-1.03125-9.132813.03125-12.710938 2.878906-3.574218 2.84375-5.660156 7.164063-5.660156 11.738281v404.5625c0 6.988282 4.828125 13.054688 11.640625 14.617188l160.667969 36.917968c2.183594.503907 4.449218.511719 6.632812.023438l162.574219-36.367188 151.878906 37.605469c1.191407.296875 2.402344.4375 3.605469.4375 3.316406 0 6.578125-1.097656 9.246094-3.1875 3.632812-2.84375 5.753906-7.199219 5.753906-11.8125v-404.34375c0-6.898437-4.703125-12.90625-11.394531-14.5625zm-71.207031 310.402344c-9.183594 14.171875-27.558594 37.949219-47.398438 37.949219-3.898438 0-7.742188-.925782-11.472656-2.511719-.683594-.242187-250.429688-132.378906-250.429688-132.378906-15.886718-5.890625-29.867187-24.28125-37.5-36.058594-14.148437-21.832031-22.597656-45.03125-22.597656-62.050781 0-38.597656 31.402344-70 70-70s70 31.402344 70 70c0 17.019531-8.449219 40.21875-22.601562 62.050781-4.304688 6.644531-10.632813 15.398437-18.179688 22.824219l162.207031 85.867187c-6.050781-13.777343-9.425781-26.992187-9.425781-37.742187 0-38.597656 31.402344-70 70-70s70 31.402344 70 70c0 17.019531-8.449219 40.21875-22.601562 62.050781zm0 0"/><path d="m130 114.246094c-22.054688 0-40 17.945312-40 40 0 10.449218 6.40625 27.5 16.320312 43.445312 10.652344 17.128906 20.179688 24.925782 23.679688 26.398438 3.5-1.472656 13.027344-9.269532 23.679688-26.398438 9.914062-15.945312 16.320312-32.996094 16.320312-43.445312 0-22.054688-17.941406-40-40-40zm0 55c-8.261719 0-15-6.738282-15-15 0-8.257813 6.738281-15 15-15s15 6.742187 15 15c0 8.261718-6.738281 15-15 15zm0 0"/></svg>