<svg height="512pt" viewBox="-91 0 512 512" width="512pt" xmlns="http://www.w3.org/2000/svg"><g fill-rule="evenodd"><path d="m94.394531 438.9375 65.753907-22.476562c3.144531-1.074219 6.558593-1.074219 9.703124 0l65.753907 22.476562-70.605469-148zm0 0"/><path d="m315 0h-300c-8.285156 0-15 6.714844-15 15v482c0 8.285156 6.714844 15 15 15h300c8.285156 0 15-6.714844 15-15v-482c0-8.285156-6.714844-15-15-15zm-165 45.011719c0-8.285157 6.714844-15 15-15s15 6.714843 15 15v30c0 8.285156-6.714844 15-15 15s-15-6.714844-15-15zm0 120c0-8.285157 6.714844-15 15-15s15 6.714843 15 15v30c0 8.285156-6.714844 15-15 15s-15-6.714844-15-15zm125.703125 309.632812c-2.898437 3.253907-7 5.027344-11.207031 5.027344-1.621094 0-3.257813-.265625-4.847656-.808594l-94.648438-32.359375-94.648438 32.359375c-5.714843 1.953125-12.039062.289063-16.054687-4.21875-4.015625-4.507812-4.9375-10.984375-2.335937-16.433593l99.5-208.566407c2.488281-5.21875 7.757812-8.542969 13.539062-8.542969s11.046875 3.324219 13.535156 8.542969l99.5 208.566407c2.601563 5.449218 1.683594 11.925781-2.332031 16.433593zm0 0"/></g></svg>