<svg height="512pt" viewBox="0 0 512 512" width="512pt" xmlns="http://www.w3.org/2000/svg"><path d="m256 0c-141.160156 0-256 114.839844-256 256s114.839844 256 256 256 256-114.839844 256-256-114.839844-256-256-256zm115.914062 152.589844-105.648437 238.976562c-2.414063 5.453125-7.808594 8.933594-13.714844 8.933594-.292969 0-.585937-.007812-.878906-.023438-6.246094-.367187-11.609375-4.566406-13.457031-10.546874l-29.148438-94.273438-94.277344-29.148438c-5.976562-1.847656-10.179687-7.210937-10.542968-13.457031-.363282-6.246093 3.1875-12.0625 8.910156-14.589843l238.972656-105.652344c5.667969-2.503906 12.292969-1.269532 16.671875 3.113281 4.382813 4.378906 5.617188 11.003906 3.113281 16.667969zm0 0"/><path d="m225.488281 269.332031c4.734375 1.464844 8.4375 5.167969 9.902344 9.898438l19.644531 63.539062 73.761719-166.847656-166.847656 73.765625zm0 0"/></svg>