<svg height="512pt" viewBox="-47 0 512 512" width="512pt" xmlns="http://www.w3.org/2000/svg"><path d="m394.53125 425.316406c-10.945312-5.585937-26.183594-10.515625-45.289062-14.652344-17.136719-3.710937-36.773438-6.660156-58.042969-8.78125-6.203125-.617187-12.152344 2.644532-14.941407 8.222657-4.707031 9.417969 1.496094 20.605469 11.972657 21.644531 16.425781 1.636719 31.800781 3.78125 45.601562 6.398438 31.671875 6.007812 46.558594 12.914062 52.148438 16.851562-5.59375 3.9375-20.476563 10.84375-52.148438 16.851562-34.507812 6.542969-78.839843 10.148438-124.832031 10.148438s-90.324219-3.605469-124.828125-10.148438c-31.675781-6.007812-46.558594-12.914062-52.152344-16.851562 5.59375-3.9375 20.476563-10.84375 52.152344-16.851562 13.800781-2.617188 29.171875-4.761719 45.59375-6.398438 10.476563-1.039062 16.683594-12.226562 11.976563-21.644531-2.789063-5.578125-8.738282-8.839844-14.945313-8.222657-21.265625 2.121094-40.902344 5.070313-58.039063 8.78125-19.105468 4.136719-34.34375 9.066407-45.289062 14.652344-15.574219 7.949219-23.46875 17.9375-23.46875 29.683594s7.894531 21.734375 23.46875 29.683594c10.945312 5.585937 26.183594 10.515625 45.289062 14.652344 37.722657 8.167968 87.527344 12.664062 140.242188 12.664062s102.519531-4.496094 140.242188-12.664062c19.105468-4.136719 34.34375-9.066407 45.289062-14.652344 15.574219-7.949219 23.46875-17.9375 23.46875-29.683594s-7.894531-21.734375-23.46875-29.683594zm0 0"/><path d="m209 218.558594c16.542969 0 30-13.457032 30-30 0-16.542969-13.457031-30-30-30s-30 13.457031-30 30c0 16.542968 13.457031 30 30 30zm0 0"/><path d="m154.835938 369.214844 40.746093 81.492187c2.542969 5.082031 7.734375 8.292969 13.417969 8.292969 5.679688 0 10.875-3.210938 13.414062-8.292969l40.746094-81.492187c79.476563-23.753906 134.398438-97.070313 134.398438-180.65625 0-103.972656-84.585938-188.558594-188.558594-188.558594s-188.558594 84.585938-188.558594 188.558594c0 83.585937 54.921875 156.898437 134.394532 180.65625zm54.164062-240.65625c33.085938 0 60 26.917968 60 60 0 33.085937-26.914062 60-60 60s-60-26.914063-60-60c0-33.082032 26.914062-60 60-60zm0 0"/></svg>