<svg height="512pt" viewBox="0 -2 512.00047 512" width="512pt" xmlns="http://www.w3.org/2000/svg"><path d="m70 170c19.839844 0 38.214844-23.777344 47.402344-37.949219 14.148437-21.835937 22.597656-45.03125 22.597656-62.050781 0-38.597656-31.402344-70-70-70s-70 31.402344-70 70c0 17.019531 8.449219 40.214844 22.601562 62.050781 9.1875 14.171875 27.558594 37.949219 47.398438 37.949219zm0-115c8.261719 0 15 6.738281 15 15s-6.738281 15-15 15-15-6.738281-15-15 6.738281-15 15-15zm0 0"/><path d="m437 358.5c-41.355469 0-75 33.644531-75 75s33.644531 75 75 75 75-33.644531 75-75-33.644531-75-75-75zm0 90c-8.261719 0-15-6.738281-15-15s6.738281-15 15-15 15 6.738281 15 15-6.738281 15-15 15zm0 0"/><path d="m316 422h-229.539062c-31.945313 0-58.046876-26.523438-56.382813-58.421875 1.523437-29.25 25.800781-52.578125 55.421875-52.578125h341c46.632812 0 84.664062-37.523438 85.488281-83.960938.847657-48-38.65625-87.039062-86.664062-87.039062h-260.898438c-8.078125 0-15.027343 6.207031-15.410156 14.277344-.402344 8.613281 6.460937 15.722656 14.984375 15.722656h261.539062c31.945313 0 58.050782 26.523438 56.386719 58.425781-1.527343 29.25-25.804687 52.574219-55.425781 52.574219h-339.820312c-48.011719 0-87.515626 39.039062-86.6679692 87.039062.8242192 46.4375 38.8554692 83.964844 85.4882812 83.964844h230.5c8.285156 0 15-6.71875 15-15 0-8.285156-6.714844-15.003906-15-15.003906zm0 0"/></svg>