<svg height="512pt" viewBox="-46 0 512 512" width="512pt" xmlns="http://www.w3.org/2000/svg"><path d="m178.179688 133.199219c-11.523438 0-23.046876 4.390625-31.820313 13.160156-17.542969 17.546875-17.542969 46.09375 0 63.640625 17.546875 17.546875 46.097656 17.546875 63.640625 0 17.546875-17.546875 17.546875-46.09375 0-63.640625-8.773438-8.769531-20.296875-13.160156-31.820312-13.160156zm0 0"/><path d="m210 0c-115.792969 0-210 94.207031-210 210 0 93.359375 61.519531 175.210938 150.441406 201.429688l46.140625 92.277343c2.542969 5.082031 7.734375 8.292969 13.417969 8.292969 5.679688 0 10.875-3.210938 13.414062-8.292969l46.140626-92.277343c88.925781-26.214844 150.445312-108.070313 150.445312-201.429688 0-115.792969-94.207031-210-210-210zm84.851562 294.851562c-2.925781 2.929688-6.765624 4.394532-10.605468 4.394532s-7.675782-1.464844-10.605469-4.394532l-54.101563-54.097656c-12.488281 8.257813-26.921874 12.390625-41.355468 12.390625-19.207032 0-38.414063-7.308593-53.035156-21.929687-29.242188-29.242188-29.242188-76.824219 0-106.066406 29.242187-29.242188 76.824218-29.242188 106.066406 0 25.609375 25.609374 28.789062 65.285156 9.539062 94.390624l54.101563 54.101563c5.855469 5.855469 5.855469 15.355469-.003907 21.210937zm0 0"/></svg>