<?xml version="1.0" encoding="UTF-8"?>
<!DOCTYPE svg PUBLIC "-//W3C//DTD SVG 1.1//EN" "http://www.w3.org/Graphics/SVG/1.1/DTD/svg11.dtd">
<svg version="1.2" width="225.78mm" height="225.78mm" viewBox="0 0 22578 22578" preserveAspectRatio="xMidYMid" fill-rule="evenodd" stroke-width="28.222" stroke-linejoin="round" xmlns="http://www.w3.org/2000/svg" xmlns:ooo="http://xml.openoffice.org/svg/export" xmlns:xlink="http://www.w3.org/1999/xlink" xmlns:presentation="http://sun.com/xmlns/staroffice/presentation" xmlns:smil="http://www.w3.org/2001/SMIL20/" xmlns:anim="urn:oasis:names:tc:opendocument:xmlns:animation:1.0" xml:space="preserve">
 <defs class="ClipPathGroup">
  <clipPath id="presentation_clip_path" clipPathUnits="userSpaceOnUse">
   <rect x="0" y="0" width="22578" height="22578"/>
  </clipPath>
  <clipPath id="presentation_clip_path_shrink" clipPathUnits="userSpaceOnUse">
   <rect x="22" y="22" width="22533" height="22533"/>
  </clipPath>
 </defs>
 <defs class="TextShapeIndex">
  <g ooo:slide="id1" ooo:id-list="id3 id4 id5"/>
 </defs>
 <defs class="EmbeddedBulletChars">
  <g id="bullet-char-template-57356" transform="scale(0.00048828125,-0.00048828125)">
   <path d="M 580,1141 L 1163,571 580,0 -4,571 580,1141 Z"/>
  </g>
  <g id="bullet-char-template-57354" transform="scale(0.00048828125,-0.00048828125)">
   <path d="M 8,1128 L 1137,1128 1137,0 8,0 8,1128 Z"/>
  </g>
  <g id="bullet-char-template-10146" transform="scale(0.00048828125,-0.00048828125)">
   <path d="M 174,0 L 602,739 174,1481 1456,739 174,0 Z M 1358,739 L 309,1346 659,739 1358,739 Z"/>
  </g>
  <g id="bullet-char-template-10132" transform="scale(0.00048828125,-0.00048828125)">
   <path d="M 2015,739 L 1276,0 717,0 1260,543 174,543 174,936 1260,936 717,1481 1274,1481 2015,739 Z"/>
  </g>
  <g id="bullet-char-template-10007" transform="scale(0.00048828125,-0.00048828125)">
   <path d="M 0,-2 C -7,14 -16,27 -25,37 L 356,567 C 262,823 215,952 215,954 215,979 228,992 255,992 264,992 276,990 289,987 310,991 331,999 354,1012 L 381,999 492,748 772,1049 836,1024 860,1049 C 881,1039 901,1025 922,1006 886,937 835,863 770,784 769,783 710,716 594,584 L 774,223 C 774,196 753,168 711,139 L 727,119 C 717,90 699,76 672,76 641,76 570,178 457,381 L 164,-76 C 142,-110 111,-127 72,-127 30,-127 9,-110 8,-76 1,-67 -2,-52 -2,-32 -2,-23 -1,-13 0,-2 Z"/>
  </g>
  <g id="bullet-char-template-10004" transform="scale(0.00048828125,-0.00048828125)">
   <path d="M 285,-33 C 182,-33 111,30 74,156 52,228 41,333 41,471 41,549 55,616 82,672 116,743 169,778 240,778 293,778 328,747 346,684 L 369,508 C 377,444 397,411 428,410 L 1163,1116 C 1174,1127 1196,1133 1229,1133 1271,1133 1292,1118 1292,1087 L 1292,965 C 1292,929 1282,901 1262,881 L 442,47 C 390,-6 338,-33 285,-33 Z"/>
  </g>
  <g id="bullet-char-template-9679" transform="scale(0.00048828125,-0.00048828125)">
   <path d="M 813,0 C 632,0 489,54 383,161 276,268 223,411 223,592 223,773 276,916 383,1023 489,1130 632,1184 813,1184 992,1184 1136,1130 1245,1023 1353,916 1407,772 1407,592 1407,412 1353,268 1245,161 1136,54 992,0 813,0 Z"/>
  </g>
  <g id="bullet-char-template-8226" transform="scale(0.00048828125,-0.00048828125)">
   <path d="M 346,457 C 273,457 209,483 155,535 101,586 74,649 74,723 74,796 101,859 155,911 209,963 273,989 346,989 419,989 480,963 531,910 582,859 608,796 608,723 608,648 583,586 532,535 482,483 420,457 346,457 Z"/>
  </g>
  <g id="bullet-char-template-8211" transform="scale(0.00048828125,-0.00048828125)">
   <path d="M -4,459 L 1135,459 1135,606 -4,606 -4,459 Z"/>
  </g>
  <g id="bullet-char-template-61548" transform="scale(0.00048828125,-0.00048828125)">
   <path d="M 173,740 C 173,903 231,1043 346,1159 462,1274 601,1332 765,1332 928,1332 1067,1274 1183,1159 1299,1043 1357,903 1357,740 1357,577 1299,437 1183,322 1067,206 928,148 765,148 601,148 462,206 346,322 231,437 173,577 173,740 Z"/>
  </g>
 </defs>
 <defs class="TextEmbeddedBitmaps"/>
 <g>
  <g id="id2" class="Master_Slide">
   <g id="bg-id2" class="Background"/>
   <g id="bo-id2" class="BackgroundObjects"/>
  </g>
 </g>
 <g class="SlideGroup">
  <g>
   <g id="container-id1">
    <g id="id1" class="Slide" clip-path="url(#presentation_clip_path)">
     <g class="Page">
      <g class="com.sun.star.drawing.ClosedBezierShape">
       <g id="id3">
        <rect class="BoundingBox" stroke="none" fill="none" x="0" y="87" width="6176" height="7500"/>
        <path fill="rgb(0,0,0)" stroke="none" d="M 3087,7586 C 3962,7586 4773,6537 5178,5912 5802,4949 6175,3926 6175,3175 6175,1473 4790,88 3087,88 1385,88 0,1473 0,3175 0,3926 373,4949 997,5912 1402,6537 2212,7586 3087,7586 Z M 3087,2514 C 3452,2514 3749,2811 3749,3175 3749,3540 3452,3837 3087,3837 2723,3837 2426,3540 2426,3175 2426,2811 2723,2514 3087,2514 Z M 3087,2514 L 3087,2514 Z"/>
       </g>
      </g>
      <g class="com.sun.star.drawing.ClosedBezierShape">
       <g id="id4">
        <rect class="BoundingBox" stroke="none" fill="none" x="15963" y="15896" width="6617" height="6618"/>
        <path fill="rgb(0,0,0)" stroke="none" d="M 19271,15897 C 17447,15897 15963,17381 15963,19205 15963,21029 17447,22513 19271,22513 21095,22513 22579,21029 22579,19205 22579,17381 21095,15897 19271,15897 Z M 19271,19866 C 18906,19866 18609,19569 18609,19205 18609,18840 18906,18543 19271,18543 19635,18543 19932,18840 19932,19205 19932,19569 19635,19866 19271,19866 Z M 19271,19866 L 19271,19866 Z"/>
       </g>
      </g>
      <g class="com.sun.star.drawing.ClosedBezierShape">
       <g id="id5">
        <rect class="BoundingBox" stroke="none" fill="none" x="12" y="6262" width="22564" height="13760"/>
        <path fill="rgb(0,0,0)" stroke="none" d="M 11850,18698 L 13937,18698 C 14302,18698 14598,18995 14598,19360 14598,19725 14302,20021 13937,20021 L 11850,20021 11850,18698 Z M 9600,20021 L 7600,20021 7600,18698 9600,18698 9600,20021 Z M 5350,20021 L 3772,20021 C 3417,20021 3073,19972 2747,19879 L 3175,18616 C 3379,18669 3593,18698 3814,18698 L 5350,18698 5350,20021 Z M 1022,18828 C 453,18222 82,17428 13,16550 L 1345,16564 C 1407,17033 1605,17462 1899,17809 L 1022,18828 Z M 439,14503 C 830,13771 1458,13180 2219,12831 L 2744,14030 C 2291,14240 1913,14585 1661,15013 L 439,14503 Z M 4434,12480 L 6500,12480 6500,13803 4471,13803 4434,12480 Z M 8750,12480 L 10650,12480 10650,13803 8750,13803 8750,12480 Z M 12900,12480 L 14900,12480 14900,13803 12900,13803 12900,12480 Z M 17150,12480 L 18810,12480 C 18949,12480 19085,12468 19217,12446 L 19664,13705 C 19389,13769 19103,13803 18810,13803 L 17150,13803 17150,12480 Z M 20657,11636 C 20980,11265 21192,10797 21244,10282 L 22574,10241 C 22523,11165 22139,12001 21539,12630 L 20657,11636 Z M 20863,8717 C 20602,8318 20228,7998 19786,7801 L 20277,6574 C 21039,6902 21675,7469 22084,8179 L 20863,8717 Z M 18001,7585 L 15750,7585 15750,6262 17996,6262 18001,7585 Z M 13500,7585 L 11500,7585 11500,6262 13500,6262 13500,7585 Z M 9300,7585 L 7234,7585 C 6858,7585 6555,7271 6573,6892 6590,6536 6896,6262 7253,6262 L 9300,6262 9300,7585 Z"/>
       </g>
      </g>
     </g>
    </g>
   </g>
  </g>
 </g>
</svg>