<?xml version="1.0" encoding="UTF-8" standalone="no"?>
<!-- Generator: Adobe Illustrator 19.0.0, SVG Export Plug-In . SVG Version: 6.00 Build 0)  -->

<svg
   xmlns:dc="http://purl.org/dc/elements/1.1/"
   xmlns:cc="http://creativecommons.org/ns#"
   xmlns:rdf="http://www.w3.org/1999/02/22-rdf-syntax-ns#"
   xmlns:svg="http://www.w3.org/2000/svg"
   xmlns="http://www.w3.org/2000/svg"
   xmlns:sodipodi="http://sodipodi.sourceforge.net/DTD/sodipodi-0.dtd"
   xmlns:inkscape="http://www.inkscape.org/namespaces/inkscape"
   version="1.1"
   id="Capa_1"
   x="0px"
   y="0px"
   viewBox="0 0 458.667 458.667"
   style="enable-background:new 0 0 458.667 458.667;"
   xml:space="preserve"
   sodipodi:docname="walk.svg"
   inkscape:version="0.92.3 (2405546, 2018-03-11)"><metadata
   id="metadata47"><rdf:RDF><cc:Work
       rdf:about=""><dc:format>image/svg+xml</dc:format><dc:type
         rdf:resource="http://purl.org/dc/dcmitype/StillImage" /></cc:Work></rdf:RDF></metadata><defs
   id="defs45" /><sodipodi:namedview
   pagecolor="#ffffff"
   bordercolor="#666666"
   borderopacity="1"
   objecttolerance="10"
   gridtolerance="10"
   guidetolerance="10"
   inkscape:pageopacity="0"
   inkscape:pageshadow="2"
   inkscape:window-width="813"
   inkscape:window-height="480"
   id="namedview43"
   showgrid="false"
   inkscape:zoom="0.51453452"
   inkscape:cx="229.3335"
   inkscape:cy="229.3335"
   inkscape:window-x="588"
   inkscape:window-y="897"
   inkscape:window-maximized="0"
   inkscape:current-layer="Capa_1" />
<g
   id="g10"
   transform="matrix(0.88135593,0,0,0.88135593,26.53112,27.435042)"
   style="stroke-width:1.13461542">
	<g
   id="g8"
   style="stroke-width:1.13461542">
		<g
   id="g6"
   style="stroke-width:1.13461542">
			<path
   d="m 250.667,85.333 c 23.467,0 42.667,-19.2 42.667,-42.667 C 293.333,19.2 274.133,0 250.667,0 227.201,0 208,19.2 208,42.667 c 0,23.467 19.2,42.666 42.667,42.666 z"
   id="path2"
   inkscape:connector-curvature="0"
   style="stroke-width:1.13461542" />
			<path
   d="m 368,245.333 v -42.667 c -39.467,0 -73.6,-21.333 -92.8,-52.267 L 254.933,116.266 C 247.467,103.467 233.6,96 218.667,96 c -5.333,0 -10.667,1.067 -16,3.2 l -112,45.867 v 100.267 h 42.667 v -71.467 l 37.333,-16 -58.667,300.8 h 44.8 L 194.133,288 240,330.667 v 128 h 42.667 V 297.6 l -43.733,-43.733 12.8,-64 C 279.467,224 321.067,245.333 368,245.333 Z"
   id="path4"
   inkscape:connector-curvature="0"
   style="stroke-width:1.13461542" />
		</g>
	</g>
</g>
<g
   id="g12">
</g>
<g
   id="g14">
</g>
<g
   id="g16">
</g>
<g
   id="g18">
</g>
<g
   id="g20">
</g>
<g
   id="g22">
</g>
<g
   id="g24">
</g>
<g
   id="g26">
</g>
<g
   id="g28">
</g>
<g
   id="g30">
</g>
<g
   id="g32">
</g>
<g
   id="g34">
</g>
<g
   id="g36">
</g>
<g
   id="g38">
</g>
<g
   id="g40">
</g>
</svg>