<?xml version="1.0"?>
<svg xmlns="http://www.w3.org/2000/svg" viewBox="0 0 64 64" width="512" height="512"><g id="Compass-2" data-name="Compass"><path d="M30,6l4.2,5.6a1,1,0,0,0,.8.4,1.019,1.019,0,0,0,.316-.051A1,1,0,0,0,36,11V2H34V8L29.8,2.4A1,1,0,0,0,28,3v9h2Z"/><path d="M31,54h2a1,1,0,0,1,1,1h2a3,3,0,0,0-3-3H31a3,3,0,0,0,0,6h2a1,1,0,0,1,0,2H31a1,1,0,0,1-1-1H28a3,3,0,0,0,3,3h2a3,3,0,0,0,0-6H31a1,1,0,0,1,0-2Z"/><path d="M62,29V27H56a1,1,0,0,0-1,1v8a1,1,0,0,0,1,1h6V35H57V33h3V31H57V29Z"/><path d="M8.039,36.275A1,1,0,0,0,9,37h.017a1,1,0,0,0,.953-.757l2-8-1.94-.486L8.936,32.135l-.975-3.41a1,1,0,0,0-1.922,0l-.975,3.41L3.97,27.757l-1.94.486,2,8a1,1,0,0,0,1.931.032L7,32.64Z"/><path d="M50,32a1,1,0,0,0-.656-.939L39.819,27.57l2.094-4.139a1,1,0,0,0-1.344-1.344L36.43,24.181l-3.491-9.525a1,1,0,0,0-1.878,0L27.57,24.181l-4.139-2.094a1,1,0,0,0-1.344,1.344l2.094,4.139-9.525,3.491a1,1,0,0,0,0,1.878l9.533,3.494-2.082,4.116a1,1,0,0,0,1.344,1.344l4.116-2.082,3.494,9.533a1,1,0,0,0,1.878,0l3.494-9.533,4.116,2.082a1,1,0,0,0,1.344-1.344l-2.082-4.116,9.533-3.494A1,1,0,0,0,50,32ZM32,34a2,2,0,1,1,2-2A2,2,0,0,1,32,34Zm2.019-5.433A3.915,3.915,0,0,0,33,28.142V20.634l2.4,6.551ZM31,28.142a3.915,3.915,0,0,0-1.019.425L28.6,27.185,31,20.634Zm-3.815.457,1.382,1.382A3.915,3.915,0,0,0,28.142,31H20.634Zm.957,4.4a3.915,3.915,0,0,0,.425,1.019L27.185,35.4,20.634,33Zm1.839,2.433A3.915,3.915,0,0,0,31,35.858v7.508l-2.4-6.551ZM33,35.858a3.915,3.915,0,0,0,1.019-.425L35.4,36.815,33,43.366Zm3.815-.457-1.382-1.382A3.915,3.915,0,0,0,35.858,33h7.508ZM35.858,31a3.915,3.915,0,0,0-.425-1.019L36.815,28.6,43.366,31Zm2.894-5.752-.824,1.629-.589-.216-.216-.589Zm-13.5,0,1.629.824-.216.589-.589.216Zm.02,13.484.812-1.6.581.212.212.581Zm13.464,0-1.6-.812.212-.581.581-.212Z"/><path d="M7.917,38.731l-1.927.538A26.977,26.977,0,0,0,25.77,58.277l.46-1.946A24.977,24.977,0,0,1,7.917,38.731Z"/><path d="M37.77,56.331l.46,1.946A26.977,26.977,0,0,0,58.01,39.269l-1.927-.538A24.975,24.975,0,0,1,37.77,56.331Z"/><path d="M56.083,25.269l1.927-.538A26.977,26.977,0,0,0,38.23,5.723l-.46,1.946A24.977,24.977,0,0,1,56.083,25.269Z"/><path d="M26.23,7.669l-.46-1.946A27.171,27.171,0,0,0,5.723,25.77l1.946.46A25.159,25.159,0,0,1,26.23,7.669Z"/></g></svg>
