<?xml version="1.0" encoding="UTF-8"?>
<!DOCTYPE svg PUBLIC "-//W3C//DTD SVG 1.1//EN" "http://www.w3.org/Graphics/SVG/1.1/DTD/svg11.dtd">
<svg version="1.2" width="180.62mm" height="180.62mm" viewBox="0 0 18062 18062" preserveAspectRatio="xMidYMid" fill-rule="evenodd" stroke-width="28.222" stroke-linejoin="round" xmlns="http://www.w3.org/2000/svg" xmlns:ooo="http://xml.openoffice.org/svg/export" xmlns:xlink="http://www.w3.org/1999/xlink" xmlns:presentation="http://sun.com/xmlns/staroffice/presentation" xmlns:smil="http://www.w3.org/2001/SMIL20/" xmlns:anim="urn:oasis:names:tc:opendocument:xmlns:animation:1.0" xml:space="preserve">
 <defs class="ClipPathGroup">
  <clipPath id="presentation_clip_path" clipPathUnits="userSpaceOnUse">
   <rect x="0" y="0" width="18062" height="18062"/>
  </clipPath>
  <clipPath id="presentation_clip_path_shrink" clipPathUnits="userSpaceOnUse">
   <rect x="18" y="18" width="18026" height="18026"/>
  </clipPath>
 </defs>
 <defs class="TextShapeIndex">
  <g ooo:slide="id1" ooo:id-list="id3 id4 id5 id6 id7 id8 id9 id10 id11 id12"/>
 </defs>
 <defs class="EmbeddedBulletChars">
  <g id="bullet-char-template-57356" transform="scale(0.00048828125,-0.00048828125)">
   <path d="M 580,1141 L 1163,571 580,0 -4,571 580,1141 Z"/>
  </g>
  <g id="bullet-char-template-57354" transform="scale(0.00048828125,-0.00048828125)">
   <path d="M 8,1128 L 1137,1128 1137,0 8,0 8,1128 Z"/>
  </g>
  <g id="bullet-char-template-10146" transform="scale(0.00048828125,-0.00048828125)">
   <path d="M 174,0 L 602,739 174,1481 1456,739 174,0 Z M 1358,739 L 309,1346 659,739 1358,739 Z"/>
  </g>
  <g id="bullet-char-template-10132" transform="scale(0.00048828125,-0.00048828125)">
   <path d="M 2015,739 L 1276,0 717,0 1260,543 174,543 174,936 1260,936 717,1481 1274,1481 2015,739 Z"/>
  </g>
  <g id="bullet-char-template-10007" transform="scale(0.00048828125,-0.00048828125)">
   <path d="M 0,-2 C -7,14 -16,27 -25,37 L 356,567 C 262,823 215,952 215,954 215,979 228,992 255,992 264,992 276,990 289,987 310,991 331,999 354,1012 L 381,999 492,748 772,1049 836,1024 860,1049 C 881,1039 901,1025 922,1006 886,937 835,863 770,784 769,783 710,716 594,584 L 774,223 C 774,196 753,168 711,139 L 727,119 C 717,90 699,76 672,76 641,76 570,178 457,381 L 164,-76 C 142,-110 111,-127 72,-127 30,-127 9,-110 8,-76 1,-67 -2,-52 -2,-32 -2,-23 -1,-13 0,-2 Z"/>
  </g>
  <g id="bullet-char-template-10004" transform="scale(0.00048828125,-0.00048828125)">
   <path d="M 285,-33 C 182,-33 111,30 74,156 52,228 41,333 41,471 41,549 55,616 82,672 116,743 169,778 240,778 293,778 328,747 346,684 L 369,508 C 377,444 397,411 428,410 L 1163,1116 C 1174,1127 1196,1133 1229,1133 1271,1133 1292,1118 1292,1087 L 1292,965 C 1292,929 1282,901 1262,881 L 442,47 C 390,-6 338,-33 285,-33 Z"/>
  </g>
  <g id="bullet-char-template-9679" transform="scale(0.00048828125,-0.00048828125)">
   <path d="M 813,0 C 632,0 489,54 383,161 276,268 223,411 223,592 223,773 276,916 383,1023 489,1130 632,1184 813,1184 992,1184 1136,1130 1245,1023 1353,916 1407,772 1407,592 1407,412 1353,268 1245,161 1136,54 992,0 813,0 Z"/>
  </g>
  <g id="bullet-char-template-8226" transform="scale(0.00048828125,-0.00048828125)">
   <path d="M 346,457 C 273,457 209,483 155,535 101,586 74,649 74,723 74,796 101,859 155,911 209,963 273,989 346,989 419,989 480,963 531,910 582,859 608,796 608,723 608,648 583,586 532,535 482,483 420,457 346,457 Z"/>
  </g>
  <g id="bullet-char-template-8211" transform="scale(0.00048828125,-0.00048828125)">
   <path d="M -4,459 L 1135,459 1135,606 -4,606 -4,459 Z"/>
  </g>
  <g id="bullet-char-template-61548" transform="scale(0.00048828125,-0.00048828125)">
   <path d="M 173,740 C 173,903 231,1043 346,1159 462,1274 601,1332 765,1332 928,1332 1067,1274 1183,1159 1299,1043 1357,903 1357,740 1357,577 1299,437 1183,322 1067,206 928,148 765,148 601,148 462,206 346,322 231,437 173,577 173,740 Z"/>
  </g>
 </defs>
 <defs class="TextEmbeddedBitmaps"/>
 <g>
  <g id="id2" class="Master_Slide">
   <g id="bg-id2" class="Background"/>
   <g id="bo-id2" class="BackgroundObjects"/>
  </g>
 </g>
 <g class="SlideGroup">
  <g>
   <g id="container-id1">
    <g id="id1" class="Slide" clip-path="url(#presentation_clip_path)">
     <g class="Page">
      <g class="com.sun.star.drawing.ClosedBezierShape">
       <g id="id3">
        <rect class="BoundingBox" stroke="none" fill="none" x="7902" y="564" width="2260" height="2824"/>
        <path fill="rgb(0,0,0)" stroke="none" d="M 8467,1693 L 9653,3274 C 9677,3306 9703,3329 9737,3349 9782,3375 9826,3387 9878,3387 9910,3387 9937,3383 9968,3373 9987,3366 10002,3359 10020,3349 10065,3323 10097,3291 10123,3246 10149,3201 10161,3157 10161,3105 L 10161,3105 10161,564 9596,564 9596,2258 8410,677 C 8386,645 8360,622 8326,602 8281,576 8236,564 8184,564 8132,564 8088,576 8043,602 7998,628 7966,660 7940,705 7914,750 7902,794 7902,846 L 7902,3387 8467,3387 8467,1693 Z"/>
       </g>
      </g>
      <g class="com.sun.star.drawing.ClosedBezierShape">
       <g id="id4">
        <rect class="BoundingBox" stroke="none" fill="none" x="7902" y="14676" width="2260" height="2824"/>
        <path fill="rgb(0,0,0)" stroke="none" d="M 8749,15241 L 9314,15241 C 9366,15241 9410,15252 9455,15278 9500,15304 9532,15337 9558,15382 9584,15427 9596,15471 9596,15523 L 10161,15523 C 10161,15367 10125,15235 10047,15099 9969,14964 9872,14867 9737,14789 9602,14712 9470,14676 9314,14676 L 8749,14676 C 8593,14676 8461,14712 8326,14789 8190,14867 8093,14964 8015,15099 7938,15235 7902,15367 7902,15523 7902,15679 7938,15811 8015,15946 8093,16081 8190,16179 8326,16256 8461,16334 8593,16370 8749,16370 L 9314,16370 C 9366,16370 9410,16382 9455,16408 9500,16434 9532,16466 9558,16511 9584,16556 9596,16600 9596,16652 9596,16704 9584,16748 9558,16793 9532,16838 9500,16871 9455,16897 9410,16923 9366,16935 9314,16935 L 8749,16935 C 8697,16935 8653,16923 8608,16897 8563,16871 8531,16838 8505,16793 8479,16748 8467,16704 8467,16652 L 7902,16652 C 7902,16808 7938,16941 8015,17076 8093,17211 8190,17308 8326,17386 8461,17464 8593,17499 8749,17499 L 9314,17499 C 9470,17499 9602,17464 9737,17386 9872,17308 9969,17211 10047,17076 10125,16941 10161,16808 10161,16652 10161,16496 10125,16364 10047,16229 9969,16094 9872,15997 9737,15919 9602,15841 9470,15805 9314,15805 L 8749,15805 C 8697,15805 8653,15793 8608,15767 8563,15741 8531,15709 8505,15664 8479,15619 8467,15575 8467,15523 8467,15471 8479,15427 8505,15382 8531,15337 8563,15304 8608,15278 8653,15252 8697,15241 8749,15241 Z"/>
       </g>
      </g>
      <g class="com.sun.star.drawing.ClosedBezierShape">
       <g id="id5">
        <rect class="BoundingBox" stroke="none" fill="none" x="15522" y="7620" width="1978" height="2824"/>
        <path fill="rgb(0,0,0)" stroke="none" d="M 17499,8185 L 17499,7620 15804,7620 C 15752,7620 15708,7632 15663,7658 15618,7684 15586,7716 15560,7761 15534,7806 15522,7850 15522,7902 L 15522,10161 C 15522,10213 15534,10257 15560,10302 15586,10347 15618,10379 15663,10405 15708,10431 15752,10443 15804,10443 L 17499,10443 17499,9879 16087,9879 16087,9314 16934,9314 16934,8749 16087,8749 16087,8185 17499,8185 Z"/>
       </g>
      </g>
      <g class="com.sun.star.drawing.ClosedBezierShape">
       <g id="id6">
        <rect class="BoundingBox" stroke="none" fill="none" x="573" y="7834" width="2807" height="2612"/>
        <path fill="rgb(0,0,0)" stroke="none" d="M 2269,10239 C 2276,10262 2284,10281 2296,10302 2322,10347 2355,10380 2400,10406 2445,10432 2489,10444 2541,10444 L 2546,10444 C 2596,10443 2638,10431 2682,10406 2727,10380 2759,10347 2785,10302 2799,10279 2808,10257 2815,10230 L 3379,7971 2832,7834 2523,9070 2247,8107 C 2241,8084 2233,8065 2221,8044 2195,7999 2162,7967 2117,7941 2072,7915 2028,7903 1976,7903 1924,7903 1880,7915 1835,7941 1790,7967 1758,7999 1732,8044 1720,8065 1712,8084 1705,8107 L 1430,9070 1121,7834 573,7971 1138,10230 C 1144,10257 1153,10278 1167,10302 1193,10347 1225,10380 1270,10406 1315,10431 1359,10443 1411,10443 1463,10443 1508,10431 1553,10406 1598,10380 1630,10347 1656,10302 1668,10281 1676,10262 1683,10239 L 1976,9213 2269,10239 Z"/>
       </g>
      </g>
      <g class="com.sun.star.drawing.ClosedBezierShape">
       <g id="id7">
        <rect class="BoundingBox" stroke="none" fill="none" x="1691" y="10931" width="5714" height="5519"/>
        <path fill="rgb(0,0,0)" fill-opacity="0.502" stroke="rgb(255,255,255)" stroke-opacity="0.502" d="M 2235,10931 L 1691,11083 1691,11083 C 1872,11732 2094,12262 2431,12845 3132,14059 4005,14931 5219,15632 5894,16023 6515,16269 7274,16448 L 7404,15899 C 6701,15733 6127,15505 5501,15144 4377,14495 3570,13687 2921,12563 2609,12023 2403,11532 2235,10931 Z"/>
       </g>
      </g>
      <g class="com.sun.star.drawing.ClosedBezierShape">
       <g id="id8">
        <rect class="BoundingBox" stroke="none" fill="none" x="10660" y="10931" width="5714" height="5519"/>
        <path fill="rgb(0,0,0)" fill-opacity="0.502" stroke="rgb(255,255,255)" stroke-opacity="0.502" d="M 10660,15899 L 10790,16448 10790,16448 C 11549,16269 12170,16023 12846,15632 14060,14931 14932,14059 15633,12845 15970,12262 16192,11732 16373,11083 L 15829,10931 15829,10931 C 15662,11532 15456,12023 15144,12563 14495,13687 13687,14495 12563,15144 11937,15505 11363,15733 10660,15899 Z"/>
       </g>
      </g>
      <g class="com.sun.star.drawing.ClosedBezierShape">
       <g id="id9">
        <rect class="BoundingBox" stroke="none" fill="none" x="10660" y="1615" width="5714" height="5518"/>
        <path fill="rgb(0,0,0)" fill-opacity="0.502" stroke="rgb(255,255,255)" stroke-opacity="0.502" d="M 15829,7132 L 16373,6980 C 16192,6331 15970,5802 15633,5218 14932,4004 14060,3132 12846,2431 12170,2041 11549,1795 10790,1615 L 10660,2164 C 11363,2331 11937,2559 12563,2920 13687,3569 14495,4376 15144,5500 15456,6041 15662,6531 15829,7132 Z"/>
       </g>
      </g>
      <g class="com.sun.star.drawing.ClosedBezierShape">
       <g id="id10">
        <rect class="BoundingBox" stroke="none" fill="none" x="1615" y="1615" width="5790" height="5790"/>
        <path fill="rgb(0,0,0)" fill-opacity="0.502" stroke="rgb(255,255,255)" stroke-opacity="0.502" d="M 7404,2164 L 7274,1615 7274,1615 C 6521,1796 5907,2042 5236,2429 4013,3135 3135,4013 2429,5236 2042,5907 1796,6521 1615,7274 L 2164,7404 C 2332,6707 2560,6138 2918,5517 3572,4385 4385,3572 5517,2918 6138,2560 6707,2332 7404,2164 Z"/>
       </g>
      </g>
      <g class="Group">
       <g class="com.sun.star.drawing.CustomShape">
        <g id="id11">
         <rect class="BoundingBox" stroke="none" fill="none" x="7244" y="3893" width="3564" height="5215"/>
         <path fill="rgb(0,0,0)" stroke="none" d="M 9025,4000 L 10701,9001 7350,9001 9025,4000 Z M 7350,4000 L 7350,4000 Z M 10701,9001 L 10701,9001 Z"/>
         <path fill="none" stroke="rgb(0,0,0)" stroke-width="212" stroke-linejoin="round" d="M 9025,4000 L 10701,9001 7350,9001 9025,4000 Z"/>
        </g>
       </g>
       <g class="com.sun.star.drawing.CustomShape">
        <g id="id12">
         <rect class="BoundingBox" stroke="none" fill="none" x="7245" y="8894" width="3565" height="5214"/>
         <path fill="none" stroke="rgb(0,0,0)" stroke-width="212" stroke-linejoin="round" d="M 9026,14001 L 10702,9000 7351,9000 9026,14001 Z"/>
        </g>
       </g>
      </g>
     </g>
    </g>
   </g>
  </g>
 </g>
</svg>