<?xml version="1.0" encoding="UTF-8" standalone="no"?>
<svg
   xmlns:ooo="http://xml.openoffice.org/svg/export"
   xmlns:dc="http://purl.org/dc/elements/1.1/"
   xmlns:cc="http://creativecommons.org/ns#"
   xmlns:rdf="http://www.w3.org/1999/02/22-rdf-syntax-ns#"
   xmlns:svg="http://www.w3.org/2000/svg"
   xmlns="http://www.w3.org/2000/svg"
   xmlns:sodipodi="http://sodipodi.sourceforge.net/DTD/sodipodi-0.dtd"
   xmlns:inkscape="http://www.inkscape.org/namespaces/inkscape"
   version="1.2"
   width="28.23mm"
   height="28.23mm"
   viewBox="0 0 2823 2823"
   preserveAspectRatio="xMidYMid"
   fill-rule="evenodd"
   stroke-width="28.222"
   stroke-linejoin="round"
   xml:space="preserve"
   id="svg154"
   sodipodi:docname="day-night.svg"
   inkscape:version="0.92.3 (2405546, 2018-03-11)"><metadata
   id="metadata158"><rdf:RDF><cc:Work
       rdf:about=""><dc:format>image/svg+xml</dc:format><dc:type
         rdf:resource="http://purl.org/dc/dcmitype/StillImage" /></cc:Work></rdf:RDF></metadata><sodipodi:namedview
   pagecolor="#ffffff"
   bordercolor="#666666"
   borderopacity="1"
   objecttolerance="10"
   gridtolerance="10"
   guidetolerance="10"
   inkscape:pageopacity="0"
   inkscape:pageshadow="2"
   inkscape:window-width="1347"
   inkscape:window-height="892"
   id="namedview156"
   showgrid="false"
   inkscape:zoom="6.256171"
   inkscape:cx="19.93605"
   inkscape:cy="57.146381"
   inkscape:window-x="882"
   inkscape:window-y="222"
   inkscape:window-maximized="0"
   inkscape:current-layer="g146" />
 <defs
   class="ClipPathGroup"
   id="defs8">
  <clipPath
   id="presentation_clip_path"
   clipPathUnits="userSpaceOnUse">
   <rect
   x="0"
   y="0"
   width="2823"
   height="2823"
   id="rect2" />
  </clipPath>
  <clipPath
   id="presentation_clip_path_shrink"
   clipPathUnits="userSpaceOnUse">
   <rect
   x="2"
   y="2"
   width="2818"
   height="2818"
   id="rect5" />
  </clipPath>
 
  
 
   
  
    
   
     
    </defs>
 <defs
   class="TextShapeIndex"
   id="defs12">
  <g
   ooo:slide="id1"
   ooo:id-list="id3 id4 id5 id6 id7 id8 id9 id10 id11 id12 id13 id14 id15"
   id="g10" />
 </defs>
 <defs
   class="EmbeddedBulletChars"
   id="defs44">
  <g
   id="bullet-char-template-57356"
   transform="scale(0.00048828125,-0.00048828125)">
   <path
   d="M 580,1141 L 1163,571 580,0 -4,571 580,1141 Z"
   id="path14" />
  </g>
  <g
   id="bullet-char-template-57354"
   transform="scale(0.00048828125,-0.00048828125)">
   <path
   d="M 8,1128 L 1137,1128 1137,0 8,0 8,1128 Z"
   id="path17" />
  </g>
  <g
   id="bullet-char-template-10146"
   transform="scale(0.00048828125,-0.00048828125)">
   <path
   d="M 174,0 L 602,739 174,1481 1456,739 174,0 Z M 1358,739 L 309,1346 659,739 1358,739 Z"
   id="path20" />
  </g>
  <g
   id="bullet-char-template-10132"
   transform="scale(0.00048828125,-0.00048828125)">
   <path
   d="M 2015,739 L 1276,0 717,0 1260,543 174,543 174,936 1260,936 717,1481 1274,1481 2015,739 Z"
   id="path23" />
  </g>
  <g
   id="bullet-char-template-10007"
   transform="scale(0.00048828125,-0.00048828125)">
   <path
   d="M 0,-2 C -7,14 -16,27 -25,37 L 356,567 C 262,823 215,952 215,954 215,979 228,992 255,992 264,992 276,990 289,987 310,991 331,999 354,1012 L 381,999 492,748 772,1049 836,1024 860,1049 C 881,1039 901,1025 922,1006 886,937 835,863 770,784 769,783 710,716 594,584 L 774,223 C 774,196 753,168 711,139 L 727,119 C 717,90 699,76 672,76 641,76 570,178 457,381 L 164,-76 C 142,-110 111,-127 72,-127 30,-127 9,-110 8,-76 1,-67 -2,-52 -2,-32 -2,-23 -1,-13 0,-2 Z"
   id="path26" />
  </g>
  <g
   id="bullet-char-template-10004"
   transform="scale(0.00048828125,-0.00048828125)">
   <path
   d="M 285,-33 C 182,-33 111,30 74,156 52,228 41,333 41,471 41,549 55,616 82,672 116,743 169,778 240,778 293,778 328,747 346,684 L 369,508 C 377,444 397,411 428,410 L 1163,1116 C 1174,1127 1196,1133 1229,1133 1271,1133 1292,1118 1292,1087 L 1292,965 C 1292,929 1282,901 1262,881 L 442,47 C 390,-6 338,-33 285,-33 Z"
   id="path29" />
  </g>
  <g
   id="bullet-char-template-9679"
   transform="scale(0.00048828125,-0.00048828125)">
   <path
   d="M 813,0 C 632,0 489,54 383,161 276,268 223,411 223,592 223,773 276,916 383,1023 489,1130 632,1184 813,1184 992,1184 1136,1130 1245,1023 1353,916 1407,772 1407,592 1407,412 1353,268 1245,161 1136,54 992,0 813,0 Z"
   id="path32" />
  </g>
  <g
   id="bullet-char-template-8226"
   transform="scale(0.00048828125,-0.00048828125)">
   <path
   d="M 346,457 C 273,457 209,483 155,535 101,586 74,649 74,723 74,796 101,859 155,911 209,963 273,989 346,989 419,989 480,963 531,910 582,859 608,796 608,723 608,648 583,586 532,535 482,483 420,457 346,457 Z"
   id="path35" />
  </g>
  <g
   id="bullet-char-template-8211"
   transform="scale(0.00048828125,-0.00048828125)">
   <path
   d="M -4,459 L 1135,459 1135,606 -4,606 -4,459 Z"
   id="path38" />
  </g>
  <g
   id="bullet-char-template-61548"
   transform="scale(0.00048828125,-0.00048828125)">
   <path
   d="M 173,740 C 173,903 231,1043 346,1159 462,1274 601,1332 765,1332 928,1332 1067,1274 1183,1159 1299,1043 1357,903 1357,740 1357,577 1299,437 1183,322 1067,206 928,148 765,148 601,148 462,206 346,322 231,437 173,577 173,740 Z"
   id="path41" />
  </g>
 </defs>
 <defs
   class="TextEmbeddedBitmaps"
   id="defs46" />
 <g
   id="g51">
  <g
   id="id2"
   class="Master_Slide">
   <g
   id="bg-id2"
   class="Background" />
   <g
   id="bo-id2"
   class="BackgroundObjects" />
  </g>
 </g>
 <g
   class="Page"
   id="g146">
      <g
   class="com.sun.star.drawing.PolyPolygonShape"
   id="g56">
       <g
   id="id3">
        <rect
   class="BoundingBox"
   x="164"
   y="149"
   width="2502"
   height="2534"
   id="rect53"
   style="fill:none;stroke:none" />
       </g>
      </g>
      <g
   class="com.sun.star.drawing.PolyPolygonShape"
   id="g61">
       <g
   id="id4">
        <rect
   class="BoundingBox"
   x="235"
   y="1363"
   width="2358"
   height="107"
   id="rect58"
   style="fill:none;stroke:none" />
       </g>
      </g>
      <g
   class="com.sun.star.drawing.PolyPolygonShape"
   id="g66">
       <g
   id="id5">
        <rect
   class="BoundingBox"
   x="1362"
   y="221"
   width="105"
   height="2388"
   id="rect63"
   style="fill:none;stroke:none" />
       </g>
      </g>
      <g
   class="com.sun.star.drawing.PolyPolygonShape"
   id="g71">
       <g
   id="id6">
        <rect
   class="BoundingBox"
   x="395"
   y="729"
   width="2038"
   height="107"
   id="rect68"
   style="fill:none;stroke:none" />
       </g>
      </g>
      <g
   class="com.sun.star.drawing.PolyPolygonShape"
   id="g76">
       <g
   id="id7">
        <rect
   class="BoundingBox"
   x="395"
   y="1996"
   width="2038"
   height="107"
   id="rect73"
   style="fill:none;stroke:none" />
       </g>
      </g>
      <g
   class="com.sun.star.drawing.PolyPolygonShape"
   id="g81">
       <g
   id="id8">
        <rect
   class="BoundingBox"
   x="706"
   y="170"
   width="1418"
   height="2491"
   id="rect78"
   style="fill:none;stroke:none" />
       </g>
      </g>
      <g
   class="com.sun.star.drawing.PolyPolygonShape"
   id="g86">
       <g
   id="id9">
        <rect
   class="BoundingBox"
   x="0"
   y="0"
   width="2827"
   height="2827"
   id="rect83"
   style="fill:none;stroke:none" />
       </g>
      </g>
      <g
   class="Group"
   id="g108">
       <g
   class="com.sun.star.drawing.ClosedBezierShape"
   id="g93">
        <g
   id="id10">
         <rect
   class="BoundingBox"
   x="864"
   y="822"
   width="1152"
   height="1167"
   id="rect88"
   style="fill:none;stroke:none" />
         <path
   d="m 1439,1987 c -317,0 -575,-261 -575,-583 0,-321 258,-582 575,-582 317,0 575,261 575,582 0,322 -258,583 -575,583 z m 0,-1118 c -292,0 -528,241 -528,535 0,295 236,536 528,536 291,0 528,-241 528,-536 0,-294 -237,-535 -528,-535 z"
   id="path90"
   inkscape:connector-curvature="0"
   style="fill:#000000;stroke:none" />
        </g>
       </g>
       <g
   class="com.sun.star.drawing.CustomShape"
   id="g106">
        <g
   id="id11">
         <rect
   class="BoundingBox"
   x="875"
   y="830"
   width="1121"
   height="1152"
   id="rect95"
   style="fill:none;stroke:none" />
         <path
   d="m 1433,1979 -28,-1 -28,-2 -29,-4 -27,-5 -28,-7 -27,-8 -27,-9 -26,-11 -26,-12 -25,-14 -24,-15 -24,-16 -22,-17 -22,-19 -21,-19 -20,-21 -19,-21 -18,-23 -17,-23 -15,-25 -14,-25 -13,-25 -12,-27 -11,-27 -9,-27 -7,-28 -7,-29 -5,-28 -3,-29 -2,-29 -1,-29 1,-29 2,-29 4,-29 5,-28 6,-29 8,-28 9,-27 11,-27 11,-26 14,-26 14,-25 16,-24 16,-24 18,-22 19,-22 20,-20 21,-20 22,-18 23,-17 24,-16 24,-15 25,-13 26,-13 26,-10 27,-10 27,-8 28,-6 27,-5 29,-4 28,-2 28,-1 v 574 z M 876,831 Z m 1118,1149 z"
   id="path97"
   inkscape:connector-curvature="0"
   style="fill:#000000;stroke:none" />
         <path
   d="m 1433,1979 -28,-1 -28,-2 -29,-4 -27,-5 -28,-7 -27,-8 -27,-9 -26,-11 -26,-12 -25,-14 -24,-15 -24,-16 -22,-17 -22,-19 -21,-19 -20,-21 -19,-21 -18,-23 -17,-23 -15,-25 -14,-25 -13,-25 -12,-27 -11,-27 -9,-27 -7,-28 -7,-29 -5,-28 -3,-29 -2,-29 -1,-29 1,-29 2,-29 4,-29 5,-28 6,-29 8,-28 9,-27 11,-27 11,-26 14,-26 14,-25 16,-24 16,-24 18,-22 19,-22 20,-20 21,-20 22,-18 23,-17 24,-16 24,-15 25,-13 26,-13 26,-10 27,-10 27,-8 28,-6 27,-5 29,-4 28,-2 28,-1 v 574 z"
   id="path99"
   inkscape:connector-curvature="0"
   style="fill:none;stroke:#000000" />
         <path
   d="M 876,831 Z"
   id="path101"
   inkscape:connector-curvature="0"
   style="fill:none;stroke:#000000" />
         <path
   d="M 1994,1980 Z"
   id="path103"
   inkscape:connector-curvature="0"
   style="fill:none;stroke:#000000" />
        </g>
       </g>
      </g>
      <g
   class="com.sun.star.drawing.CustomShape"
   id="g117"
   transform="matrix(1.7940586,0,0,1,-1138.2831,0)"
   style="stroke-width:21.07024002">
       <g
   id="id12"
   style="stroke-width:21.07024002">
        <rect
   class="BoundingBox"
   x="1409"
   y="199"
   width="50"
   height="2403"
   id="rect110"
   style="fill:none;stroke:none;stroke-width:21.07024002" />
        <path
   d="m 1434,2600 h -24 V 200 h 47 v 2400 z"
   id="path112"
   inkscape:connector-curvature="0"
   style="fill:#000000;stroke:none;stroke-width:21.07024002" />
        <path
   d="m 1434,2600 h -24 V 200 h 47 v 2400 z"
   id="path114"
   inkscape:connector-curvature="0"
   style="fill:none;stroke:#000000;stroke-width:21.07024002" />
       </g>
      </g>
      <g
   class="com.sun.star.drawing.CustomShape"
   id="g126"
   transform="matrix(1.3044993,0,0,1.3044993,-289.05593,-289.36043)"
   style="stroke-width:21.63435364">
       <g
   id="id13"
   style="stroke-width:21.63435364">
        <rect
   class="BoundingBox"
   x="651"
   y="652"
   width="250"
   height="250"
   id="rect119"
   style="fill:none;stroke:none;stroke-width:21.63435364" />
        <path
   d="M 882,883 864,900 652,688 687,653 899,865 Z"
   id="path121"
   inkscape:connector-curvature="0"
   style="fill:#000000;stroke:none;stroke-width:21.63435364" />
        <path
   d="M 882,883 864,900 652,688 687,653 899,865 Z"
   id="path123"
   inkscape:connector-curvature="0"
   style="fill:none;stroke:#000000;stroke-width:21.63435364" />
       </g>
      </g>
      <g
   class="com.sun.star.drawing.CustomShape"
   id="g135"
   transform="matrix(1.2818276,0,0,1.440249,-229.55565,-620.75106)"
   style="stroke-width:20.77084541">
       <g
   id="id14"
   style="stroke-width:20.77084541">
        <rect
   class="BoundingBox"
   x="213"
   y="1384"
   width="453"
   height="53"
   id="rect128"
   style="fill:none;stroke:none;stroke-width:20.77084541" />
        <path
   d="m 664,1410 v 25 H 214 v -50 h 450 z"
   id="path130"
   inkscape:connector-curvature="0"
   style="fill:#000000;stroke:none;stroke-width:20.77084541" />
        <path
   d="m 664,1410 v 25 H 214 v -50 h 450 z"
   id="path132"
   inkscape:connector-curvature="0"
   style="fill:none;stroke:#000000;stroke-width:20.77084541" />
       </g>
      </g>
      <g
   class="com.sun.star.drawing.CustomShape"
   id="g144"
   transform="matrix(1.3044994,0,0,1.3044994,-288.75143,-578.15824)"
   style="stroke-width:21.63435364">
       <g
   id="id15"
   style="stroke-width:21.63435364">
        <rect
   class="BoundingBox"
   x="650"
   y="1948"
   width="250"
   height="250"
   id="rect137"
   style="fill:none;stroke:none;stroke-width:21.63435364" />
        <path
   d="m 881,1966 17,18 -212,212 -35,-35 212,-212 z"
   id="path139"
   inkscape:connector-curvature="0"
   style="fill:#000000;stroke:none;stroke-width:21.63435364" />
        <path
   d="m 881,1966 17,18 -212,212 -35,-35 212,-212 z"
   id="path141"
   inkscape:connector-curvature="0"
   style="fill:none;stroke:#000000;stroke-width:21.63435364" />
       </g>
      </g>
     </g>
</svg>