<?xml version="1.0" encoding="UTF-8" standalone="no"?>
<!-- Created with Inkscape (http://www.inkscape.org/) -->

<svg
   xmlns:dc="http://purl.org/dc/elements/1.1/"
   xmlns:cc="http://creativecommons.org/ns#"
   xmlns:rdf="http://www.w3.org/1999/02/22-rdf-syntax-ns#"
   xmlns:svg="http://www.w3.org/2000/svg"
   xmlns="http://www.w3.org/2000/svg"
   xmlns:sodipodi="http://sodipodi.sourceforge.net/DTD/sodipodi-0.dtd"
   xmlns:inkscape="http://www.inkscape.org/namespaces/inkscape"
   id="svg3140"
   width="90"
   height="90"
   version="1.1"
   sodipodi:docname="help.svg"
   inkscape:version="0.92.3 (2405546, 2018-03-11)">
  <defs
     id="defs11" />
  <sodipodi:namedview
     pagecolor="#ffffff"
     bordercolor="#666666"
     borderopacity="1"
     objecttolerance="10"
     gridtolerance="10"
     guidetolerance="10"
     inkscape:pageopacity="0"
     inkscape:pageshadow="2"
     inkscape:window-width="813"
     inkscape:window-height="480"
     id="namedview9"
     showgrid="false"
     inkscape:zoom="2.6222222"
     inkscape:cx="45"
     inkscape:cy="45"
     inkscape:window-x="61"
     inkscape:window-y="28"
     inkscape:window-maximized="0"
     inkscape:current-layer="svg3140" />
  <metadata
     id="metadata3145">
    <rdf:RDF>
      <cc:Work
         rdf:about="">
        <dc:format>image/svg+xml</dc:format>
        <dc:type
           rdf:resource="http://purl.org/dc/dcmitype/StillImage" />
        <dc:title />
      </cc:Work>
    </rdf:RDF>
  </metadata>
  <rect
     x="0"
     style="color:#000000;fill:none"
     height="90"
     width="90"
     y="-1.4648437e-05"
     id="rect4198" />
  <g
     id="g825">
    <g
       transform="translate(0,-962.36)"
       id="text3006"
       style="fill:#000000;fill-opacity:1">
      <path
         style="fill:#000000;fill-opacity:1"
         id="path4146"
         d="m 43.205,988.07 q -2.6177,0 -5.0111,0.67314 -2.3934,0.59833 -5.0111,2.0194 l -2.5429,-6.9557 q 2.7673,-1.5706 6.2825,-2.4682 3.59,-0.9723 7.3296,-0.9723 4.4875,0 7.4044,1.2715 2.9169,1.1967 4.6371,3.0665 1.7202,1.8698 2.3934,4.1136 0.67313,2.2438 0.67313,4.338 0,2.5429 -0.9723,4.5623 -0.89751,2.0194 -2.3186,3.73956 -1.4211,1.7202 -3.0665,3.2909 -1.6454,1.4958 -3.0665,3.1413 -1.4211,1.5706 -2.3934,3.3656 -0.89751,1.795 -0.89751,4.0388 0,0.374 0,0.8975 0,0.4488 0.07479,0.8975 h -7.7784 q -0.14958,-0.7479 -0.22438,-1.5706 -0.07479,-0.8975 -0.07479,-1.6455 0,-2.4681 0.82271,-4.4127 0.82272,-1.9446 2.0942,-3.59 1.2715,-1.6455 2.6925,-3.0665 1.4958,-1.4211 2.7673,-2.84206 1.2715,-1.421 2.0942,-2.9169 0.82271,-1.4958 0.82271,-3.2908 0,-2.4682 -1.7202,-4.0388 -1.6454,-1.6454 -5.0111,-1.6454 z m 5.8338,40.388 q 0,2.6178 -1.7202,4.2632 -1.7202,1.6454 -4.2632,1.6454 -2.4681,0 -4.2632,-1.6454 -1.7202,-1.6454 -1.7202,-4.2632 0,-2.6177 1.7202,-4.2631 1.795,-1.7203 4.2632,-1.7203 2.5429,0 4.2632,1.7203 1.7202,1.6454 1.7202,4.2631 z"
         inkscape:connector-curvature="0" />
    </g>
    <path
       id="path3759"
       d="m 6,24 v 42 c 0,18 3,18 30,18 h 18 c 27,0 30,0 30,-18 V 24 C 84,6 81,6 54,6 H 36 C 9,6 6,6 6,24 Z M 36,12 h 18 c 24,0 24,0 24,12 v 42 c 0,12 0,12 -24,12 H 36 C 12,78 12,78 12,66 V 24 C 12,12 12,12 36,12 Z"
       style="fill:#000000;fill-opacity:1"
       inkscape:connector-curvature="0" />
  </g>
</svg>
