<?xml version="1.0" encoding="UTF-8" standalone="no"?>
<!-- Generator: Adobe Illustrator 17.0.1, SVG Export Plug-In . SVG Version: 6.00 Build 0)  -->

<svg
   xmlns:osb="http://www.openswatchbook.org/uri/2009/osb"
   xmlns:dc="http://purl.org/dc/elements/1.1/"
   xmlns:cc="http://creativecommons.org/ns#"
   xmlns:rdf="http://www.w3.org/1999/02/22-rdf-syntax-ns#"
   xmlns:svg="http://www.w3.org/2000/svg"
   xmlns="http://www.w3.org/2000/svg"
   xmlns:sodipodi="http://sodipodi.sourceforge.net/DTD/sodipodi-0.dtd"
   xmlns:inkscape="http://www.inkscape.org/namespaces/inkscape"
   version="1.1"
   x="0px"
   y="0px"
   width="86px"
   height="86px"
   viewBox="0 0 86 86"
   enable-background="new 0 0 86 86"
   xml:space="preserve"
   id="svg33"
   sodipodi:docname="osmin.svg"
   inkscape:version="0.92.3 (2405546, 2018-03-11)"
   inkscape:export-filename="/home/jlb/src/janbar/QML/tripdog/android/package-sources/ic_launcher-web.png"
   inkscape:export-xdpi="657.48999"
   inkscape:export-ydpi="657.48999"><metadata
   id="metadata39"><rdf:RDF><cc:Work
       rdf:about=""><dc:format>image/svg+xml</dc:format><dc:type
         rdf:resource="http://purl.org/dc/dcmitype/StillImage" /><dc:title /></cc:Work></rdf:RDF></metadata><defs
   id="defs37">
	
		<linearGradient
   gradientTransform="rotate(-90,423.0688,939.6071)"
   y2="517.0571"
   x2="1362.157"
   y1="602.0194"
   x1="1277.1947"
   gradientUnits="userSpaceOnUse"
   id="SVGID_1_"
   osb:paint="gradient">
		<stop
   id="stop3"
   style="stop-color:#E8CF13"
   offset="0" />
		<stop
   id="stop5"
   style="stop-color:#24A89E"
   offset="0.9897" />
	</linearGradient>
	
	
	
	
	
	
</defs><sodipodi:namedview
   pagecolor="#ffffff"
   bordercolor="#666666"
   borderopacity="1"
   objecttolerance="10"
   gridtolerance="10"
   guidetolerance="10"
   inkscape:pageopacity="0"
   inkscape:pageshadow="2"
   inkscape:window-width="1616"
   inkscape:window-height="966"
   id="namedview35"
   showgrid="false"
   inkscape:zoom="4"
   inkscape:cx="-46.625"
   inkscape:cy="45.97021"
   inkscape:window-x="731"
   inkscape:window-y="144"
   inkscape:window-maximized="0"
   inkscape:current-layer="svg33" />
<circle
   style="opacity:1;fill:#6bb66c;fill-opacity:1;stroke:#000000;stroke-width:0.99999988;stroke-opacity:0;paint-order:markers fill stroke"
   id="path827"
   cx="42.98695"
   cy="42.729275"
   r="36.878658" /><g
   id="Layer_2"
   display="none">
</g>

<path
   style="fill:#ada5ae;stroke-width:0.99999994;fill-opacity:1"
   d="m 38.183375,39.32969 15.40059,-8.959652 17.385091,-12.05814 c 1.642675,1.674884 3.223238,4.044542 3.223238,4.044542 1.095116,1.642675 2.097118,3.702884 2.097118,3.702884 2.21421,4.879517 3.706773,11.141658 3.706773,16.524892 0,12.408457 -6.06265,24.003905 -16.21771,31.017553 l -1.04778,0.723782 z"
   id="path6"
   inkscape:connector-curvature="0"
   sodipodi:nodetypes="cccccsccc" /><path
   style="fill:#3d9ae3;stroke-width:0.99999994"
   d="m 42.998665,80.091921 c -12.63908,0 -24.28097,-6.458505 -31.14196,-17.276547 l -0.65425,-1.031462 20.56057,-17.572506 23.66387,33.716203 -1.50793,0.495951 c -3.52776,1.107064 -7.20177,1.668361 -10.9203,1.668361 z"
   id="path10"
   inkscape:connector-curvature="0" /><path
   style="fill:#ffffff;stroke-width:0.99999994"
   d="m 31.763025,44.211406 6.42035,-4.881716 24.68491,34.911175 -1.19982,0.713819 c -1.69508,1.008606 -3.47905,1.884323 -5.30247,2.602976 l -0.93924,0.370242 z"
   id="path14"
   inkscape:connector-curvature="0" /><path
   style="fill:#ffce00;stroke-width:0.99999994"
   d="M 10.575085,60.633041 C 9.5619938,58.76967 8.8421385,56.932108 8.1582685,54.92486 L 7.7436635,53.6191 64.508997,12.777726 c 3.966994,2.751077 6.460059,5.534172 6.460059,5.534172 L 11.202595,61.783766 Z"
   id="path18"
   inkscape:connector-curvature="0"
   sodipodi:nodetypes="ccccccc" /><text
   xml:space="preserve"
   style="font-style:normal;font-weight:normal;font-size:40px;line-height:125%;font-family:Sans;letter-spacing:0px;word-spacing:0px;fill:#000000;fill-opacity:1;stroke:none;stroke-width:1px;stroke-linecap:butt;stroke-linejoin:miter;stroke-opacity:1"
   x="21.644657"
   y="-18.615849"
   id="text974"><tspan
     sodipodi:role="line"
     id="tspan972"
     x="21.644657"
     y="16.774776" /></text>






<path
   style="fill:#404040;fill-opacity:1;stroke-width:1.33333337"
   inkscape:connector-curvature="0"
   d="m 59.090606,30.737365 c -2.314376,0 -4.197028,1.882654 -4.197028,4.197034 0,2.314381 1.882652,4.197037 4.197028,4.197037 2.314385,0 4.197038,-1.882656 4.197038,-4.197037 0,-2.31438 -1.882653,-4.197034 -4.197038,-4.197034 z m 0,0"
   id="path2" /><path
   inkscape:connector-curvature="0"
   d="m 59.050067,24.54006 c -5.249723,0 -10.004236,4.462232 -10.004236,9.96823 0,5.504686 4.338087,12.076741 10.004236,21.502108 5.66615,-9.425367 10.004239,-15.997422 10.004239,-21.502108 0,-5.505998 -4.753265,-9.96823 -10.004239,-9.96823 z m 0,14.423905 c -2.072127,0 -3.751588,-1.761028 -3.751588,-3.933792 0,-2.172765 1.679461,-3.933793 3.751588,-3.933793 2.072128,0 3.751589,1.761028 3.751589,3.933793 0,2.172764 -1.679461,3.933792 -3.751589,3.933792 z"
   id="path2-0"
   style="stroke-width:0.99999994;fill:#d34040;fill-opacity:1" /></svg>