<?xml version="1.0" encoding="UTF-8"?>
<!DOCTYPE svg PUBLIC "-//W3C//DTD SVG 1.1//EN" "http://www.w3.org/Graphics/SVG/1.1/DTD/svg11.dtd">
<svg version="1.2" width="66.16mm" height="66.16mm" viewBox="0 0 6616 6616" preserveAspectRatio="xMidYMid" fill-rule="evenodd" stroke-width="28.222" stroke-linejoin="round" xmlns="http://www.w3.org/2000/svg" xmlns:ooo="http://xml.openoffice.org/svg/export" xmlns:xlink="http://www.w3.org/1999/xlink" xmlns:presentation="http://sun.com/xmlns/staroffice/presentation" xmlns:smil="http://www.w3.org/2001/SMIL20/" xmlns:anim="urn:oasis:names:tc:opendocument:xmlns:animation:1.0" xml:space="preserve">
 <defs class="ClipPathGroup">
  <clipPath id="presentation_clip_path" clipPathUnits="userSpaceOnUse">
   <rect x="0" y="0" width="6616" height="6616"/>
  </clipPath>
  <clipPath id="presentation_clip_path_shrink" clipPathUnits="userSpaceOnUse">
   <rect x="6" y="6" width="6603" height="6603"/>
  </clipPath>
 </defs>
 <defs class="TextShapeIndex">
  <g ooo:slide="id1" ooo:id-list="id3 id4 id5 id6 id7 id8 id9 id10 id11 id12 id13 id14 id15"/>
 </defs>
 <defs class="EmbeddedBulletChars">
  <g id="bullet-char-template-57356" transform="scale(0.00048828125,-0.00048828125)">
   <path d="M 580,1141 L 1163,571 580,0 -4,571 580,1141 Z"/>
  </g>
  <g id="bullet-char-template-57354" transform="scale(0.00048828125,-0.00048828125)">
   <path d="M 8,1128 L 1137,1128 1137,0 8,0 8,1128 Z"/>
  </g>
  <g id="bullet-char-template-10146" transform="scale(0.00048828125,-0.00048828125)">
   <path d="M 174,0 L 602,739 174,1481 1456,739 174,0 Z M 1358,739 L 309,1346 659,739 1358,739 Z"/>
  </g>
  <g id="bullet-char-template-10132" transform="scale(0.00048828125,-0.00048828125)">
   <path d="M 2015,739 L 1276,0 717,0 1260,543 174,543 174,936 1260,936 717,1481 1274,1481 2015,739 Z"/>
  </g>
  <g id="bullet-char-template-10007" transform="scale(0.00048828125,-0.00048828125)">
   <path d="M 0,-2 C -7,14 -16,27 -25,37 L 356,567 C 262,823 215,952 215,954 215,979 228,992 255,992 264,992 276,990 289,987 310,991 331,999 354,1012 L 381,999 492,748 772,1049 836,1024 860,1049 C 881,1039 901,1025 922,1006 886,937 835,863 770,784 769,783 710,716 594,584 L 774,223 C 774,196 753,168 711,139 L 727,119 C 717,90 699,76 672,76 641,76 570,178 457,381 L 164,-76 C 142,-110 111,-127 72,-127 30,-127 9,-110 8,-76 1,-67 -2,-52 -2,-32 -2,-23 -1,-13 0,-2 Z"/>
  </g>
  <g id="bullet-char-template-10004" transform="scale(0.00048828125,-0.00048828125)">
   <path d="M 285,-33 C 182,-33 111,30 74,156 52,228 41,333 41,471 41,549 55,616 82,672 116,743 169,778 240,778 293,778 328,747 346,684 L 369,508 C 377,444 397,411 428,410 L 1163,1116 C 1174,1127 1196,1133 1229,1133 1271,1133 1292,1118 1292,1087 L 1292,965 C 1292,929 1282,901 1262,881 L 442,47 C 390,-6 338,-33 285,-33 Z"/>
  </g>
  <g id="bullet-char-template-9679" transform="scale(0.00048828125,-0.00048828125)">
   <path d="M 813,0 C 632,0 489,54 383,161 276,268 223,411 223,592 223,773 276,916 383,1023 489,1130 632,1184 813,1184 992,1184 1136,1130 1245,1023 1353,916 1407,772 1407,592 1407,412 1353,268 1245,161 1136,54 992,0 813,0 Z"/>
  </g>
  <g id="bullet-char-template-8226" transform="scale(0.00048828125,-0.00048828125)">
   <path d="M 346,457 C 273,457 209,483 155,535 101,586 74,649 74,723 74,796 101,859 155,911 209,963 273,989 346,989 419,989 480,963 531,910 582,859 608,796 608,723 608,648 583,586 532,535 482,483 420,457 346,457 Z"/>
  </g>
  <g id="bullet-char-template-8211" transform="scale(0.00048828125,-0.00048828125)">
   <path d="M -4,459 L 1135,459 1135,606 -4,606 -4,459 Z"/>
  </g>
  <g id="bullet-char-template-61548" transform="scale(0.00048828125,-0.00048828125)">
   <path d="M 173,740 C 173,903 231,1043 346,1159 462,1274 601,1332 765,1332 928,1332 1067,1274 1183,1159 1299,1043 1357,903 1357,740 1357,577 1299,437 1183,322 1067,206 928,148 765,148 601,148 462,206 346,322 231,437 173,577 173,740 Z"/>
  </g>
 </defs>
 <defs class="TextEmbeddedBitmaps"/>
 <g>
  <g id="id2" class="Master_Slide">
   <g id="bg-id2" class="Background"/>
   <g id="bo-id2" class="BackgroundObjects"/>
  </g>
 </g>
 <g class="SlideGroup">
  <g>
   <g id="container-id1">
    <g id="id1" class="Slide" clip-path="url(#presentation_clip_path)">
     <g class="Page">
      <g class="com.sun.star.drawing.PolyPolygonShape">
       <g id="id3">
        <rect class="BoundingBox" stroke="none" fill="none" x="0" y="0" width="6626" height="6626"/>
       </g>
      </g>
      <g class="com.sun.star.drawing.PolyPolygonShape">
       <g id="id4">
        <rect class="BoundingBox" stroke="none" fill="none" x="438" y="438" width="5749" height="5749"/>
       </g>
      </g>
      <g class="com.sun.star.drawing.PolyPolygonShape">
       <g id="id5">
        <rect class="BoundingBox" stroke="none" fill="none" x="7544" y="4278" width="1479" height="1723"/>
       </g>
      </g>
      <g class="com.sun.star.drawing.PolyPolygonShape">
       <g id="id6">
        <rect class="BoundingBox" stroke="none" fill="none" x="7509" y="4243" width="1548" height="1791"/>
       </g>
      </g>
      <g class="com.sun.star.drawing.PolyPolygonShape">
       <g id="id7">
        <rect class="BoundingBox" stroke="none" fill="none" x="9375" y="4278" width="1357" height="1723"/>
       </g>
      </g>
      <g class="com.sun.star.drawing.PolyPolygonShape">
       <g id="id8">
        <rect class="BoundingBox" stroke="none" fill="none" x="9339" y="4243" width="1428" height="1791"/>
       </g>
      </g>
      <g class="com.sun.star.drawing.PolyPolygonShape">
       <g id="id9">
        <rect class="BoundingBox" stroke="none" fill="none" x="11022" y="4275" width="1544" height="1726"/>
       </g>
      </g>
      <g class="com.sun.star.drawing.PolyPolygonShape">
       <g id="id10">
        <rect class="BoundingBox" stroke="none" fill="none" x="10987" y="4243" width="1595" height="1791"/>
       </g>
      </g>
      <g class="com.sun.star.drawing.PolyPolygonShape">
       <g id="id11">
        <rect class="BoundingBox" stroke="none" fill="none" x="439" y="439" width="5744" height="5744"/>
       </g>
      </g>
      <g class="com.sun.star.drawing.PolyPolygonShape">
       <g id="id12">
        <rect class="BoundingBox" stroke="none" fill="none" x="439" y="439" width="5743" height="5743"/>
       </g>
      </g>
      <g class="com.sun.star.drawing.ClosedBezierShape">
       <g id="id13">
        <rect class="BoundingBox" stroke="none" fill="none" x="566" y="552" width="5488" height="5488"/>
        <path fill="rgb(0,0,0)" stroke="none" d="M 5741,2867 L 5741,2865 C 5723,2840 5708,2817 5696,2798 5684,2780 5672,2763 5665,2751 5660,2745 5656,2739 5653,2736 5651,2730 5647,2725 5644,2721 5642,2720 5641,2719 5639,2717 5639,2715 5638,2715 5636,2713 5636,2713 5636,2712 5634,2712 L 5633,2710 C 5633,2708 5633,2708 5633,2707 5630,2707 5630,2707 5630,2707 5591,2665 5563,2634 5515,2600 5460,2560 5395,2535 5331,2511 5331,2510 5329,2510 5329,2510 5257,2488 5181,2471 5084,2464 5083,2464 5083,2464 5080,2464 4999,2467 4896,2463 4844,2471 4791,2480 4729,2491 4680,2512 4631,2536 4592,2557 4543,2590 L 4541,2590 C 4522,2606 4506,2619 4487,2636 4477,2646 4467,2654 4454,2667 4443,2678 4430,2692 4415,2708 4415,2708 4415,2710 4412,2710 4401,2725 4388,2739 4381,2751 4369,2765 4363,2778 4355,2789 4339,2811 4326,2834 4316,2858 4300,2887 4287,2912 4278,2941 4267,2970 4257,3001 4248,3038 4248,3040 4248,3041 4245,3042 4237,3121 4230,3217 4230,3295 4230,3303 4230,3309 4230,3317 4230,3332 4230,3346 4230,3360 4230,3446 4234,3531 4245,3590 4254,3638 4266,3675 4278,3708 4292,3739 4307,3766 4321,3794 4321,3794 4321,3795 4321,3795 L 4323,3798 C 4367,3863 4415,3925 4474,3983 L 4476,3984 C 4531,4030 4592,4072 4656,4105 4656,4106 4658,4106 4658,4106 4720,4135 4773,4150 4835,4159 L 4836,4159 C 4892,4166 4960,4166 5027,4168 5097,4168 5163,4166 5212,4158 L 5214,4158 C 5280,4144 5336,4130 5389,4106 L 5390,4106 C 5461,4072 5522,4028 5570,3983 5586,3968 5600,3954 5615,3937 5629,3920 5644,3901 5662,3881 5662,3879 5662,3879 5663,3877 5696,3828 5723,3776 5741,3717 5742,3712 5742,3709 5742,3705 5742,3700 5741,3696 5738,3690 5735,3684 5732,3681 5725,3679 5724,3676 5724,3676 5723,3676 L 5539,3598 C 5534,3597 5531,3596 5526,3596 5520,3596 5515,3597 5509,3600 5504,3603 5501,3607 5498,3613 5498,3614 5498,3614 5496,3615 5474,3662 5451,3703 5427,3734 5426,3734 5426,3734 5426,3736 5415,3751 5405,3765 5396,3775 5388,3786 5378,3794 5371,3801 5354,3818 5337,3829 5322,3843 5310,3854 5298,3861 5286,3870 5275,3877 5264,3881 5254,3887 5232,3896 5212,3901 5192,3909 5150,3920 5084,3930 5027,3930 5008,3930 4988,3929 4972,3925 L 4970,3925 C 4888,3918 4816,3896 4745,3872 4722,3858 4701,3848 4675,3830 4663,3823 4650,3812 4637,3799 4624,3786 4608,3769 4592,3748 4558,3696 4526,3640 4506,3585 4496,3560 4488,3535 4482,3503 4478,3489 4476,3471 4474,3452 4472,3433 4472,3412 4472,3388 4472,3383 4472,3380 4472,3375 4472,3365 4472,3356 4472,3346 4472,3276 4472,3208 4493,3127 4500,3092 4511,3056 4524,3023 4536,2990 4553,2959 4573,2930 4592,2904 4613,2879 4639,2853 4664,2827 4695,2803 4730,2780 4754,2765 4781,2750 4811,2738 4839,2726 4872,2715 4912,2707 4954,2702 4996,2700 5037,2700 5071,2700 5103,2701 5135,2707 5156,2710 5175,2715 5192,2717 5208,2721 5222,2726 5235,2731 5260,2739 5280,2749 5300,2759 5318,2769 5346,2792 5372,2816 5397,2840 5421,2865 5433,2882 L 5514,3012 C 5517,3016 5520,3018 5525,3022 5531,3025 5534,3026 5541,3026 5547,3026 5552,3025 5557,3022 5558,3022 5558,3022 5558,3022 L 5730,2911 C 5735,2909 5738,2904 5741,2899 5743,2893 5746,2888 5746,2883 5746,2877 5743,2873 5741,2867 Z M 2669,4163 C 2676,4166 2681,4168 2686,4168 L 3979,4168 C 3985,4168 3989,4166 3995,4163 4000,4159 4004,4157 4006,4152 4010,4145 4011,4140 4011,4135 L 4011,3951 C 4011,3944 4010,3941 4006,3935 4004,3929 4000,3925 3995,3923 3989,3920 3985,3919 3979,3919 L 2954,3919 2954,3441 3861,3441 C 3867,3441 3871,3440 3877,3436 3884,3433 3886,3430 3890,3424 3891,3418 3893,3413 3893,3407 L 3893,3226 C 3893,3219 3891,3214 3890,3209 3886,3203 3884,3199 3877,3197 3871,3193 3867,3192 3861,3192 L 2954,3192 2954,2715 3917,2715 C 3923,2715 3928,2713 3934,2710 3939,2707 3943,2703 3946,2697 3949,2692 3951,2688 3951,2682 L 3951,2498 C 3951,2492 3949,2487 3946,2481 3943,2476 3939,2473 3934,2469 3928,2467 3923,2464 3917,2464 L 2686,2464 C 2681,2464 2676,2467 2669,2469 2664,2473 2662,2476 2658,2481 2655,2487 2654,2492 2654,2498 L 2654,4135 C 2654,4140 2655,4145 2658,4152 2662,4157 2664,4159 2669,4163 Z M 1804,3208 L 1203,3204 1203,2696 1789,2695 C 1790,2695 1791,2695 1793,2695 1814,2695 1833,2697 1850,2701 1865,2706 1880,2712 1891,2717 1915,2730 1933,2744 1947,2758 1962,2779 1976,2799 1989,2826 1995,2839 1999,2851 2003,2868 2005,2883 2007,2901 2007,2921 2007,2925 2007,2930 2007,2935 2004,2983 1998,3025 1989,3061 1985,3079 1979,3094 1971,3107 1965,3121 1959,3131 1951,3140 L 1950,3142 C 1943,3149 1933,3156 1923,3164 1912,3171 1900,3179 1887,3185 1861,3197 1832,3205 1804,3208 Z M 909,2481 C 906,2487 905,2492 905,2498 L 905,4135 C 905,4140 906,4145 909,4152 912,4157 915,4159 921,4163 926,4166 931,4168 938,4168 L 1170,4168 C 1177,4168 1181,4166 1187,4163 1193,4159 1196,4157 1199,4152 1202,4145 1203,4140 1203,4135 L 1203,3467 1623,3467 2081,4153 C 2084,4157 2086,4159 2090,4163 2096,4166 2101,4168 2107,4168 L 2342,4168 C 2347,4168 2352,4166 2358,4163 2363,4159 2367,4157 2370,4152 2373,4145 2375,4140 2375,4135 2375,4129 2373,4124 2370,4118 2370,4118 2370,4116 2368,4116 L 1923,3451 C 1951,3441 1976,3430 2004,3418 2046,3400 2088,3376 2125,3340 L 2127,3339 C 2153,3311 2184,3275 2209,3226 2220,3199 2233,3171 2239,3138 2249,3106 2256,3068 2256,3025 L 2256,3023 2256,2879 C 2256,2877 2256,2875 2256,2874 2252,2841 2248,2811 2239,2784 2233,2756 2224,2731 2213,2708 2191,2662 2166,2626 2129,2592 2128,2590 2128,2590 2127,2588 2112,2581 2099,2568 2082,2557 2064,2543 2042,2530 2021,2517 1995,2505 1969,2493 1934,2485 1904,2476 1867,2469 1822,2467 L 1820,2467 938,2464 C 931,2464 926,2467 921,2469 915,2473 912,2476 909,2481 Z M 6053,3297 C 6053,3800 5938,4230 5686,4666 5433,5104 5118,5419 4680,5672 4244,5924 3814,6039 3311,6039 2805,6039 2377,5924 1938,5672 1500,5419 1187,5104 935,4666 685,4230 567,3800 567,3297 567,2791 685,2363 935,1924 1187,1486 1500,1173 1938,921 2377,671 2805,553 3311,553 3814,553 4244,671 4680,921 5118,1173 5433,1486 5686,1924 5938,2363 6053,2791 6053,3297 Z"/>
       </g>
      </g>
      <g class="com.sun.star.drawing.PolyPolygonShape">
       <g id="id14">
        <rect class="BoundingBox" stroke="none" fill="none" x="82" y="66" width="6448" height="6447"/>
       </g>
      </g>
      <g class="com.sun.star.drawing.ClosedBezierShape">
       <g id="id15">
        <rect class="BoundingBox" stroke="none" fill="none" x="57" y="61" width="6486" height="6487"/>
        <path fill="none" stroke="rgb(0,0,0)" stroke-width="564" stroke-linejoin="round" d="M 3300,343 C 4978,343 6260,1625 6260,3304 6260,4982 4978,6264 3300,6264 1621,6264 339,4982 339,3304 339,1625 1621,343 3300,343 Z"/>
       </g>
      </g>
     </g>
    </g>
   </g>
  </g>
 </g>
</svg>