<?xml version="1.0" encoding="UTF-8" standalone="no"?>
<!-- Created with Inkscape (http://www.inkscape.org/) -->

<svg
   xmlns:dc="http://purl.org/dc/elements/1.1/"
   xmlns:cc="http://creativecommons.org/ns#"
   xmlns:rdf="http://www.w3.org/1999/02/22-rdf-syntax-ns#"
   xmlns:svg="http://www.w3.org/2000/svg"
   xmlns="http://www.w3.org/2000/svg"
   xmlns:sodipodi="http://sodipodi.sourceforge.net/DTD/sodipodi-0.dtd"
   xmlns:inkscape="http://www.inkscape.org/namespaces/inkscape"
   id="svg4874"
   height="96"
   viewBox="0 0 96 96.000001"
   width="96"
   version="1.1"
   sodipodi:docname="reload.svg"
   inkscape:version="0.92.3 (2405546, 2018-03-11)">
  <defs
     id="defs10" />
  <sodipodi:namedview
     pagecolor="#ffffff"
     bordercolor="#666666"
     borderopacity="1"
     objecttolerance="10"
     gridtolerance="10"
     guidetolerance="10"
     inkscape:pageopacity="0"
     inkscape:pageshadow="2"
     inkscape:window-width="813"
     inkscape:window-height="480"
     id="namedview8"
     showgrid="false"
     inkscape:zoom="2.4583333"
     inkscape:cx="48"
     inkscape:cy="48"
     inkscape:window-x="61"
     inkscape:window-y="28"
     inkscape:window-maximized="0"
     inkscape:current-layer="svg4874" />
  <metadata
     id="metadata4879">
    <rdf:RDF>
      <cc:Work
         rdf:about="">
        <dc:format>image/svg+xml</dc:format>
        <dc:type
           rdf:resource="http://purl.org/dc/dcmitype/StillImage" />
        <dc:title />
      </cc:Work>
    </rdf:RDF>
  </metadata>
  <rect
     x="-2.7465819e-06"
     y="-96"
     width="96"
     height="96"
     transform="rotate(90)"
     style="color:#000000;fill:none"
     id="rect4782-83" />
  <path
     inkscape:connector-curvature="0"
     d="M 82.93,9.958 65.964,26.935 c 3.761,1.401 7.7088,2.7082 11.843,3.9248 4.1122,1.1879 8.1765,2.2361 12.193,3.1414 -0.93642,-3.9851 -1.9991,-8.035 -3.187,-12.147 -1.2172,-4.136 -2.5112,-8.1001 -3.8821,-11.894 z"
     style="color:#000000;fill:#000000;fill-opacity:1"
     id="path5588-9-2-96-57" />
  <path
     inkscape:connector-curvature="0"
     d="M 48.441,6.007 C 41.9919,5.93783 35.479,7.3503 29.429,10.3332 13.296,18.2876 4.013,35.6502 6.361,53.4812 c 2.3479,17.831 15.809,32.202 33.451,35.711 17.642,3.5086 35.578,-4.618 44.572,-20.193 l -3.4629,-2 c -8.1446,14.104 -24.352,21.447 -40.328,18.27 -15.976,-3.1774 -28.139,-16.162 -30.266,-32.309 -2.1261,-16.147 6.2596,-31.836 20.869,-39.039 14.61,-7.2033 32.165,-4.3052 43.684,7.2109 L 77.7082,18.304 C 69.759,10.359 59.1892,6.126 48.4412,6.011 Z"
     style="color:#000000;font-variant-ligatures:normal;font-variant-position:normal;font-variant-caps:normal;font-variant-numeric:normal;font-variant-alternates:normal;font-feature-settings:normal;text-indent:0;text-decoration:none;text-decoration-line:none;text-decoration-style:solid;text-decoration-color:#000000;text-transform:none;text-orientation:mixed;dominant-baseline:auto;white-space:normal;shape-padding:0;isolation:auto;mix-blend-mode:normal;solid-color:#000000;fill:#000000;color-rendering:auto;image-rendering:auto;shape-rendering:auto;fill-opacity:1"
     id="path4228" />
</svg>
