<?xml version="1.0" encoding="UTF-8" standalone="no"?>
<!-- Generator: Adobe Illustrator 18.0.0, SVG Export Plug-In . SVG Version: 6.00 Build 0)  -->

<svg
   xmlns:dc="http://purl.org/dc/elements/1.1/"
   xmlns:cc="http://creativecommons.org/ns#"
   xmlns:rdf="http://www.w3.org/1999/02/22-rdf-syntax-ns#"
   xmlns:svg="http://www.w3.org/2000/svg"
   xmlns="http://www.w3.org/2000/svg"
   xmlns:sodipodi="http://sodipodi.sourceforge.net/DTD/sodipodi-0.dtd"
   xmlns:inkscape="http://www.inkscape.org/namespaces/inkscape"
   version="1.1"
   id="Capa_1"
   x="0px"
   y="0px"
   viewBox="0 0 59.616 59.616"
   style="enable-background:new 0 0 59.616 59.616;"
   xml:space="preserve"
   sodipodi:docname="screen-settings.svg"
   inkscape:version="0.92.3 (2405546, 2018-03-11)"><metadata
   id="metadata39"><rdf:RDF><cc:Work
       rdf:about=""><dc:format>image/svg+xml</dc:format><dc:type
         rdf:resource="http://purl.org/dc/dcmitype/StillImage" /></cc:Work></rdf:RDF></metadata><defs
   id="defs37"><clipPath
     id="presentation_clip_path"
     clipPathUnits="userSpaceOnUse"><rect
       x="0"
       y="0"
       width="18062"
       height="18062"
       id="rect2" /></clipPath></defs><sodipodi:namedview
   pagecolor="#ffffff"
   bordercolor="#666666"
   borderopacity="1"
   objecttolerance="10"
   gridtolerance="10"
   guidetolerance="10"
   inkscape:pageopacity="0"
   inkscape:pageshadow="2"
   inkscape:window-width="1264"
   inkscape:window-height="1215"
   id="namedview35"
   showgrid="false"
   inkscape:zoom="1.9793344"
   inkscape:cx="71.890302"
   inkscape:cy="-65.474884"
   inkscape:window-x="947"
   inkscape:window-y="130"
   inkscape:window-maximized="0"
   inkscape:current-layer="Capa_1" />
<path
   d="M 43.559,0 H 16.057 c -3.394,0 -4.156,0.762 -4.156,4.156 v 2.572 41.971 6.761 c 0,3.395 0.762,4.156 4.156,4.156 h 27.502 c 3.395,0 4.156,-0.762 4.156,-4.156 V 48.699 6.728 4.156 C 47.716,0.762 46.954,0 43.559,0 Z M 29.808,57.826627 c -1.65,0 -2.988,-1.338 -2.988,-2.988 0,-1.65 1.338,-2.988 2.988,-2.988 1.65,0 2.988,1.338 2.988,2.988 0,1.651 -1.338,2.988 -2.988,2.988 z M 44.716,50.230322 H 14.901 V 3.1767965 h 29.815 z"
   id="path2"
   inkscape:connector-curvature="0"
   sodipodi:nodetypes="sssccsssscccssssssccccc" />
<g
   id="g4">
</g>
<g
   id="g6">
</g>
<g
   id="g8">
</g>
<g
   id="g10">
</g>
<g
   id="g12">
</g>
<g
   id="g14">
</g>
<g
   id="g16">
</g>
<g
   id="g18">
</g>
<g
   id="g20">
</g>
<g
   id="g22">
</g>
<g
   id="g24">
</g>
<g
   id="g26">
</g>
<g
   id="g28">
</g>
<g
   id="g30">
</g>
<g
   id="g32">
</g>
<path
   style="fill:#000000;stroke:none;stroke-width:0.00333445;fill-opacity:1"
   inkscape:connector-curvature="0"
   d="m 39.269419,22.718243 -1.557188,-0.553518 0.710238,-1.497168 1.637215,-3.444487 c -0.603536,-0.75692 -1.297101,-1.447151 -2.054021,-2.054021 l -3.444487,1.637215 -1.500503,0.710237 -0.550184,-1.557188 -1.283763,-3.60454 c -0.473492,-0.05002 -0.956987,-0.07669 -1.447152,-0.07669 -0.490164,0 -0.973659,0.02668 -1.45382,0.08003 l -1.280429,3.604541 -0.553518,1.557188 -1.497168,-0.710238 -3.444487,-1.637215 c -0.75692,0.603536 -1.447152,1.293767 -2.054021,2.054021 l 1.637215,3.444487 0.710237,1.497168 -1.557188,0.553519 -3.60454,1.280429 c -0.05002,0.476826 -0.07669,0.960321 -0.07669,1.450485 0,0.490165 0.02668,0.97366 0.08003,1.447152 l 3.604541,1.280428 1.557188,0.553519 -0.710238,1.500503 -1.637215,3.444487 c 0.603535,0.753585 1.293767,1.447151 2.054021,2.054021 l 3.444487,-1.637215 1.497168,-0.713572 0.553519,1.560522 1.280429,3.601206 c 0.476826,0.05335 0.960321,0.08336 1.450485,0.08336 0.490165,0 0.97366,-0.03001 1.450486,-0.08336 l 1.283763,-3.601206 0.553519,-1.557188 1.497168,0.710238 3.444487,1.637215 c 0.753586,-0.603536 1.447151,-1.297101 2.054021,-2.054021 L 38.425809,30.2341 37.715571,28.733597 39.27276,28.183413 42.8773,26.89965 c 0.04668,-0.473492 0.07669,-0.956987 0.07669,-1.447152 0,-0.490164 -0.03001,-0.973659 -0.08336,-1.45382 z m -9.489845,5.558529 c -1.560522,0 -2.824279,-1.267091 -2.824279,-2.82428 0,-1.560522 1.263757,-2.824279 2.824279,-2.824279 1.557189,0 2.82428,1.263757 2.82428,2.824279 0,1.557189 -1.267091,2.82428 -2.82428,2.82428 z"
   id="path47"
   sodipodi:nodetypes="cccccccccsccccccccccsccccccccccsccccccccccsccsssss" /></svg>