<?xml version="1.0" encoding="UTF-8" standalone="no"?>
<svg
   xmlns:dc="http://purl.org/dc/elements/1.1/"
   xmlns:cc="http://creativecommons.org/ns#"
   xmlns:rdf="http://www.w3.org/1999/02/22-rdf-syntax-ns#"
   xmlns:svg="http://www.w3.org/2000/svg"
   xmlns="http://www.w3.org/2000/svg"
   xmlns:sodipodi="http://sodipodi.sourceforge.net/DTD/sodipodi-0.dtd"
   xmlns:inkscape="http://www.inkscape.org/namespaces/inkscape"
   id="WORKING_ICONS"
   data-name="WORKING ICONS"
   width="20"
   height="20"
   viewBox="0 0 20 20"
   version="1.1"
   sodipodi:docname="leave-motorway-right.svg"
   inkscape:version="0.92.5 (2060ec1f9f, 2020-04-08)">
  <metadata
     id="metadata11">
    <rdf:RDF>
      <cc:Work
         rdf:about="">
        <dc:format>image/svg+xml</dc:format>
        <dc:type
           rdf:resource="http://purl.org/dc/dcmitype/StillImage" />
      </cc:Work>
    </rdf:RDF>
  </metadata>
  <defs
     id="defs9" />
  <sodipodi:namedview
     pagecolor="#ffffff"
     bordercolor="#666666"
     borderopacity="1"
     objecttolerance="10"
     gridtolerance="10"
     guidetolerance="10"
     inkscape:pageopacity="0"
     inkscape:pageshadow="2"
     inkscape:window-width="846"
     inkscape:window-height="480"
     id="namedview7"
     showgrid="false"
     inkscape:zoom="11.8"
     inkscape:cx="10.169492"
     inkscape:cy="9.5338983"
     inkscape:window-x="64"
     inkscape:window-y="27"
     inkscape:window-maximized="0"
     inkscape:current-layer="WORKING_ICONS" />
  <title
     id="title2">direction</title>
  <path
     fill="#000"
     d="M8.5029,2.2A0.29744,0.29744,0,0,1,8.8,2.49712V17.50288A0.29744,0.29744,0,0,1,8.5029,17.8H7.4971A0.29744,0.29744,0,0,1,7.2,17.50288V2.49712A0.29744,0.29744,0,0,1,7.4971,2.2H8.5029m0-.2H7.4971A0.49711,0.49711,0,0,0,7,2.49712V17.50288A0.49711,0.49711,0,0,0,7.4971,18H8.5029A0.49711,0.49711,0,0,0,9,17.50288V2.49712A0.49711,0.49711,0,0,0,8.5029,2h0ZM7.0141,14.043v3.46082A0.49621,0.49621,0,0,0,7.51025,18H8.51678a0.49614,0.49614,0,0,0,.49615-0.49683l-0.0047-3.60767a5.21819,5.21819,0,0,1,1.665-4.144l2.44818-2.06561a0.35758,0.35758,0,0,1,.6405.16266l0.91821,3.1106A0.38663,0.38663,0,0,0,15.41956,10.86L17,3l-8.00476.44965a0.38658,0.38658,0,0,0-.20294.71777l2.94891,1.35016a0.3576,0.3576,0,0,1,.07019.6571L9.35394,8.24854A7.25157,7.25157,0,0,0,7.0141,14.043Z"
     id="path4"
     style="fill:#ffffff;fill-opacity:1" />
</svg>
