<?xml version="1.0" encoding="UTF-8" standalone="no"?>
<svg
   xmlns:dc="http://purl.org/dc/elements/1.1/"
   xmlns:cc="http://creativecommons.org/ns#"
   xmlns:rdf="http://www.w3.org/1999/02/22-rdf-syntax-ns#"
   xmlns:svg="http://www.w3.org/2000/svg"
   xmlns="http://www.w3.org/2000/svg"
   xmlns:sodipodi="http://sodipodi.sourceforge.net/DTD/sodipodi-0.dtd"
   xmlns:inkscape="http://www.inkscape.org/namespaces/inkscape"
   version="1.1"
   width="64px"
   height="64px"
   id="svg2"
   sodipodi:docname="wetland_bog.svg"
   inkscape:version="1.0.1 (3bc2e813f5, 2020-09-07)">
  <metadata
     id="metadata8">
    <rdf:RDF>
      <cc:Work
         rdf:about="">
        <dc:format>image/svg+xml</dc:format>
        <dc:type
           rdf:resource="http://purl.org/dc/dcmitype/StillImage" />
      </cc:Work>
    </rdf:RDF>
  </metadata>
  <defs
     id="defs6" />
  <sodipodi:namedview
     pagecolor="#ffffff"
     bordercolor="#666666"
     borderopacity="1"
     objecttolerance="10"
     gridtolerance="10"
     guidetolerance="10"
     inkscape:pageopacity="0"
     inkscape:pageshadow="2"
     inkscape:window-width="1920"
     inkscape:window-height="1136"
     id="namedview4"
     showgrid="false"
     inkscape:zoom="11.1875"
     inkscape:cx="30.614525"
     inkscape:cy="32"
     inkscape:window-x="1920"
     inkscape:window-y="0"
     inkscape:window-maximized="1"
     inkscape:current-layer="svg2" />
  <g
     id="g849"
     transform="translate(2.6564246,20.444134)"
     style="fill:#8a23b2;fill-opacity:1;stroke:none;stroke-opacity:1" />
  <path
     
     d="m 5.7861576,13.297069 c 0.823395,-0.684484 1.875985,-1.030697 2.944849,-0.9687 2.3777724,-0.168361 4.4858574,1.518147 4.8435014,3.874801 l 1.511173,9.067035 c -1.238774,-0.56049 -2.66567,-0.524842 -3.874801,0.09687 L 9.6609586,16.20317 c -0.566883,-1.676433 -2.106729,-2.831124 -3.874801,-2.906101 z m 11.6244044,13.05808 c 0.739312,-0.595944 1.598355,-1.025466 2.518621,-1.25931 L 22.292811,10.390968 C 22.859695,8.714534 24.399541,7.5598435 26.167613,7.4848661 25.354292,6.809682 24.317395,6.4640497 23.261512,6.5161658 20.88374,6.3478057 18.775654,8.0343129 18.41801,10.390968 l -2.518621,15.092351 c 0.53976,0.223189 1.047746,0.516317 1.511173,0.87183 z m 8.369571,-0.9687 v 0 c 0.303203,-0.247406 0.62733,-0.467689 0.9687,-0.658716 l 1.35618,-8.524563 c 0.566884,-1.676433 2.10673,-2.831124 3.874802,-2.906101 -0.813321,-0.675184 -1.850218,-1.020817 -2.906101,-0.9687 -2.377772,-0.168361 -4.485858,1.518147 -4.843502,3.874801 l -1.298058,7.749603 c 1.052202,0.2383 2.030008,0.7304 2.847979,1.433676 z"
     id="path837"
     style="fill:#319d47;fill-opacity:1;stroke:none;stroke-width:1.9374;stroke-opacity:1"
     sodipodi:nodetypes="cccccccccccccccssccccccs" />
  <path
     
     d="m 31.581957,27.979444 v 0 c -0.841994,-0.01937 -1.662096,0.270073 -2.305507,0.813708 l -0.910578,0.794334 c -0.551578,0.493263 -1.385823,0.493263 -1.937401,0 -0.29061,-0.232488 -0.561846,-0.503724 -0.852456,-0.755586 -1.370905,-1.156241 -3.375727,-1.156241 -4.746632,0 -0.309984,0.251862 -0.600594,0.542472 -0.910578,0.794334 -0.551578,0.493263 -1.385823,0.493263 -1.937401,0 -0.309984,-0.251862 -0.600594,-0.542472 -0.910578,-0.794334 -1.367611,-1.145391 -3.359646,-1.145391 -4.727258,0 -0.29061,0.251862 -0.561846,0.523098 -0.852456,0.755586 -0.172816,0.138525 -0.36985,0.243725 -0.58122,0.309985 -0.566109,0.126318 -1.1564344,-0.05832 -1.5499214,-0.484351 -0.479506,-0.414603 -0.991368,-0.790265 -1.530546,-1.123692 -0.399881,-0.22842 -0.857495,-0.336139 -1.317434,-0.309984 h -0.116244 c -0.534916,0 -0.9687,0.433784 -0.9687,0.9687 0,0.534916 0.433784,0.968701 0.9687,0.968701 v 0 c 0.476601,0.02809 0.92259,0.244112 1.239937,0.600594 l 0.697465,0.503724 c 1.301352,1.06557 3.1595134,1.113424 4.5141444,0.116244 0.368106,-0.271236 0.697464,-0.619968 1.06557,-0.910578 0.551578,-0.493263 1.385823,-0.493263 1.937401,0 l 0.755586,0.67809 c 1.343975,1.199057 3.355965,1.25621 4.766006,0.135618 0.29061,-0.213114 0.523098,-0.48435 0.813708,-0.716838 0.57657,-0.588583 1.521053,-0.598076 2.109635,-0.02151 l 0.02151,0.02151 0.755586,0.67809 c 0.942739,0.798984 2.225104,1.06867 3.409825,0.716838 0.741056,-0.200715 1.41159,-0.603113 1.937401,-1.16244 0.300103,-0.343308 0.711801,-0.569596 1.16244,-0.639342 v 0 c 0.534916,0 0.9687,-0.433785 0.9687,-0.968701 0,-0.534916 -0.433784,-0.9687 -0.9687,-0.9687 z"
     id="path837-3"
     style="fill:#6b72e1;fill-opacity:1;stroke:none;stroke-width:1.9374;stroke-opacity:1"
     sodipodi:nodetypes="csccccccccccccccsssscccccccccccccssssc" />
  <path
     
     d="m 32.764133,40.951699 c 0.823395,-0.684484 1.875985,-1.030697 2.944849,-0.9687 2.377773,-0.168361 4.485858,1.518147 4.843502,3.874801 l 1.511173,9.067035 c -1.238774,-0.56049 -2.66567,-0.524842 -3.874801,0.09687 L 36.638934,43.8578 c -0.566883,-1.676433 -2.106729,-2.831124 -3.874801,-2.906101 z m 11.624405,13.05808 c 0.739312,-0.595944 1.598355,-1.025466 2.518621,-1.25931 l 2.363628,-14.704871 c 0.566884,-1.676434 2.10673,-2.831125 3.874802,-2.906102 -0.813321,-0.675184 -1.850218,-1.020816 -2.906101,-0.9687 -2.377772,-0.16836 -4.485858,1.518147 -4.843502,3.874802 l -2.518621,15.092351 c 0.53976,0.223189 1.047746,0.516317 1.511173,0.87183 z m 8.369571,-0.9687 v 0 c 0.303203,-0.247406 0.62733,-0.467689 0.9687,-0.658716 l 1.35618,-8.524563 c 0.566884,-1.676433 2.10673,-2.831124 3.874802,-2.906101 -0.813321,-0.675184 -1.850218,-1.020817 -2.906101,-0.9687 -2.377772,-0.168361 -4.485858,1.518147 -4.843502,3.874801 l -1.298058,7.749603 c 1.052202,0.2383 2.030008,0.7304 2.847979,1.433676 z"
     id="path837-6"
     style="fill:#319d47;fill-opacity:1;stroke:none;stroke-width:1.9374;stroke-opacity:1"
     sodipodi:nodetypes="cccccccccccccccssccccccs" />
  <path
     
     d="m 58.559933,55.634074 v 0 c -0.841994,-0.01937 -1.662096,0.270073 -2.305507,0.813708 l -0.910578,0.794334 c -0.551578,0.493263 -1.385823,0.493263 -1.937401,0 -0.29061,-0.232488 -0.561846,-0.503724 -0.852456,-0.755586 -1.370905,-1.156241 -3.375727,-1.156241 -4.746632,0 -0.309984,0.251862 -0.600594,0.542472 -0.910578,0.794334 -0.551578,0.493263 -1.385823,0.493263 -1.937401,0 -0.309984,-0.251862 -0.600594,-0.542472 -0.910578,-0.794334 -1.367611,-1.145391 -3.359646,-1.145391 -4.727258,0 -0.29061,0.251862 -0.561846,0.523098 -0.852456,0.755586 -0.172816,0.138525 -0.36985,0.243725 -0.58122,0.309985 -0.566109,0.126318 -1.156435,-0.05832 -1.549922,-0.484351 -0.479506,-0.414603 -0.991368,-0.790265 -1.530546,-1.123692 -0.399881,-0.22842 -0.857495,-0.336139 -1.317434,-0.309984 h -0.116244 c -0.534916,0 -0.9687,0.433784 -0.9687,0.9687 0,0.534916 0.433784,0.968701 0.9687,0.968701 v 0 c 0.476601,0.02809 0.92259,0.244112 1.239937,0.600594 l 0.697465,0.503724 c 1.301352,1.06557 3.159514,1.113424 4.514145,0.116244 0.368106,-0.271236 0.697464,-0.619968 1.06557,-0.910578 0.551578,-0.493263 1.385823,-0.493263 1.937401,0 l 0.755586,0.67809 c 1.343975,1.199057 3.355965,1.25621 4.766006,0.135618 0.29061,-0.213114 0.523098,-0.48435 0.813708,-0.716838 0.57657,-0.588583 1.521053,-0.598076 2.109635,-0.02151 l 0.02151,0.02151 0.755586,0.67809 c 0.942739,0.798984 2.225104,1.06867 3.409825,0.716838 0.741056,-0.200715 1.41159,-0.603113 1.937401,-1.16244 0.300103,-0.343308 0.711801,-0.569596 1.16244,-0.639342 v 0 c 0.534916,0 0.9687,-0.433785 0.9687,-0.968701 0,-0.534916 -0.433784,-0.9687 -0.9687,-0.9687 z"
     id="path837-3-7"
     style="fill:#6b72e1;fill-opacity:1;stroke:none;stroke-width:1.9374;stroke-opacity:1"
     sodipodi:nodetypes="csccccccccccccccsssscccccccccccccssssc" />
  <path
     
     d="m 26.343038,44.916801 v 0 c -0.841994,-0.01937 -1.662096,0.270073 -2.305507,0.813708 l -0.910578,0.794334 c -0.551578,0.493263 -1.385823,0.493263 -1.937401,0 -0.29061,-0.232488 -0.561846,-0.503724 -0.852456,-0.755586 -1.370905,-1.156241 -3.375727,-1.156241 -4.746632,0 -0.309984,0.251862 -0.600594,0.542472 -0.910578,0.794334 -0.551578,0.493263 -1.385823,0.493263 -1.937401,0 -0.309984,-0.251862 -0.600594,-0.542472 -0.910578,-0.794334 -1.367611,-1.145391 -3.3596461,-1.145391 -4.7272581,0 -0.29061,0.251862 -0.561846,0.523098 -0.852456,0.755586 -0.172816,0.138525 -0.36985,0.243725 -0.58122,0.309985 -0.566109,0.126318 -1.156435,-0.05832 -1.549922,-0.484351 -0.479506,-0.414603 -0.991368,-0.790265 -1.530546,-1.123692 -0.399881,-0.22842 -0.857495,-0.336139 -1.317434,-0.309984 h -0.116244 c -0.53491598,0 -0.96869998,0.433784 -0.96869998,0.9687 0,0.534916 0.433784,0.968701 0.96869998,0.968701 v 0 c 0.476601,0.02809 0.92259,0.244112 1.239937,0.600594 l 0.697465,0.503724 c 1.301352,1.06557 3.159514,1.113424 4.514145,0.116244 0.368106,-0.271236 0.697464,-0.619968 1.06557,-0.910578 0.551578,-0.493263 1.3858231,-0.493263 1.9374011,0 l 0.755586,0.67809 c 1.343975,1.199057 3.355965,1.25621 4.766006,0.135618 0.29061,-0.213114 0.523098,-0.48435 0.813708,-0.716838 0.57657,-0.588583 1.521053,-0.598076 2.109635,-0.02151 l 0.02151,0.02151 0.755586,0.67809 c 0.942739,0.798984 2.225104,1.06867 3.409825,0.716838 0.741056,-0.200715 1.41159,-0.603113 1.937401,-1.16244 0.300103,-0.343308 0.711801,-0.569596 1.16244,-0.639342 v 0 c 0.534916,0 0.9687,-0.433785 0.9687,-0.968701 0,-0.534916 -0.433784,-0.9687 -0.9687,-0.9687 z"
     id="path837-3-7-5"
     style="fill:#6b72e1;fill-opacity:1;stroke:none;stroke-width:1.9374;stroke-opacity:1"
     sodipodi:nodetypes="csccccccccccccccsssscccccccccccccssssc" />
  <path
     
     d="m 60.294679,17.829821 v 0 c -0.841994,-0.01937 -1.662096,0.270073 -2.305507,0.813708 l -0.910578,0.794335 c -0.551578,0.493263 -1.385823,0.493263 -1.937401,0 -0.29061,-0.232488 -0.561846,-0.503724 -0.852456,-0.755587 -1.370905,-1.156241 -3.375727,-1.156241 -4.746632,0 -0.309984,0.251863 -0.600594,0.542472 -0.910578,0.794335 -0.551578,0.493263 -1.385823,0.493263 -1.937401,0 -0.309984,-0.251863 -0.600594,-0.542472 -0.910578,-0.794335 -1.367611,-1.145391 -3.359646,-1.145391 -4.727258,0 -0.29061,0.251863 -0.561846,0.523099 -0.852456,0.755587 -0.172816,0.138525 -0.36985,0.243725 -0.58122,0.309985 -0.566109,0.126317 -1.156435,-0.05832 -1.549922,-0.484351 -0.479506,-0.414603 -0.991368,-0.790266 -1.530546,-1.123693 -0.399881,-0.22842 -0.857495,-0.336139 -1.317434,-0.309984 h -0.116244 c -0.534916,0 -0.9687,0.433784 -0.9687,0.9687 0,0.534917 0.433784,0.968702 0.9687,0.968702 v 0 c 0.476601,0.02809 0.92259,0.244112 1.239937,0.600594 l 0.697465,0.503724 c 1.301352,1.06557 3.159514,1.113424 4.514145,0.116244 0.368106,-0.271236 0.697464,-0.619968 1.06557,-0.910578 0.551578,-0.493263 1.385823,-0.493263 1.937401,0 l 0.755586,0.67809 c 1.343975,1.199057 3.355965,1.25621 4.766006,0.135618 0.29061,-0.213114 0.523098,-0.48435 0.813708,-0.716838 0.57657,-0.588583 1.521053,-0.598076 2.109635,-0.02151 l 0.02151,0.02151 0.755586,0.67809 c 0.942739,0.798983 2.225104,1.068669 3.409825,0.716838 0.741056,-0.200715 1.41159,-0.603113 1.937401,-1.16244 0.300103,-0.343308 0.711801,-0.569596 1.16244,-0.639342 v 0 c 0.534916,0 0.9687,-0.433785 0.9687,-0.968702 0,-0.534916 -0.433784,-0.9687 -0.9687,-0.9687 z"
     id="path837-3-7-5-3"
     style="fill:#6b72e1;fill-opacity:1;stroke:none;stroke-width:1.9374;stroke-opacity:1"
     sodipodi:nodetypes="csccccccccccccccsssscccccccccccccssssc" />
</svg>
