<?xml version="1.0" encoding="UTF-8" standalone="no"?>
<svg
   xmlns:dc="http://purl.org/dc/elements/1.1/"
   xmlns:cc="http://creativecommons.org/ns#"
   xmlns:rdf="http://www.w3.org/1999/02/22-rdf-syntax-ns#"
   xmlns:svg="http://www.w3.org/2000/svg"
   xmlns="http://www.w3.org/2000/svg"
   xmlns:sodipodi="http://sodipodi.sourceforge.net/DTD/sodipodi-0.dtd"
   xmlns:inkscape="http://www.inkscape.org/namespaces/inkscape"
   version="1.1"
   width="64px"
   height="64px"
   id="svg2"
   sodipodi:docname="wetland.svg"
   inkscape:version="1.0.1 (3bc2e813f5, 2020-09-07)">
  <metadata
     id="metadata8">
    <rdf:RDF>
      <cc:Work
         rdf:about="">
        <dc:format>image/svg+xml</dc:format>
        <dc:type
           rdf:resource="http://purl.org/dc/dcmitype/StillImage" />
      </cc:Work>
    </rdf:RDF>
  </metadata>
  <defs
     id="defs6" />
  <sodipodi:namedview
     pagecolor="#ffffff"
     bordercolor="#666666"
     borderopacity="1"
     objecttolerance="10"
     gridtolerance="10"
     guidetolerance="10"
     inkscape:pageopacity="0"
     inkscape:pageshadow="2"
     inkscape:window-width="1920"
     inkscape:window-height="1136"
     id="namedview4"
     showgrid="false"
     inkscape:zoom="11.1875"
     inkscape:cx="29.22905"
     inkscape:cy="32"
     inkscape:window-x="1920"
     inkscape:window-y="0"
     inkscape:window-maximized="1"
     inkscape:current-layer="svg2"
     inkscape:document-rotation="0" />
  <g
     id="g849"
     transform="translate(2.6564246,20.444134)"
     style="fill:#8a23b2;fill-opacity:1;stroke:none;stroke-opacity:1" />
  <path
     d="m 31.581957,27.979444 v 0 c -0.841994,-0.01937 -1.662096,0.270073 -2.305507,0.813708 l -0.910578,0.794334 c -0.551578,0.493263 -1.385823,0.493263 -1.937401,0 -0.29061,-0.232488 -0.561846,-0.503724 -0.852456,-0.755586 -1.370905,-1.156241 -3.375727,-1.156241 -4.746632,0 -0.309984,0.251862 -0.600594,0.542472 -0.910578,0.794334 -0.551578,0.493263 -1.385823,0.493263 -1.937401,0 -0.309984,-0.251862 -0.600594,-0.542472 -0.910578,-0.794334 -1.367611,-1.145391 -3.359646,-1.145391 -4.727258,0 -0.29061,0.251862 -0.561846,0.523098 -0.852456,0.755586 -0.172816,0.138525 -0.36985,0.243725 -0.58122,0.309985 -0.566109,0.126318 -1.1564344,-0.05832 -1.5499214,-0.484351 -0.479506,-0.414603 -0.991368,-0.790265 -1.530546,-1.123692 -0.399881,-0.22842 -0.857495,-0.336139 -1.317434,-0.309984 h -0.116244 c -0.534916,0 -0.9687,0.433784 -0.9687,0.9687 0,0.534916 0.433784,0.968701 0.9687,0.968701 v 0 c 0.476601,0.02809 0.92259,0.244112 1.239937,0.600594 l 0.697465,0.503724 c 1.301352,1.06557 3.1595134,1.113424 4.5141444,0.116244 0.368106,-0.271236 0.697464,-0.619968 1.06557,-0.910578 0.551578,-0.493263 1.385823,-0.493263 1.937401,0 l 0.755586,0.67809 c 1.343975,1.199057 3.355965,1.25621 4.766006,0.135618 0.29061,-0.213114 0.523098,-0.48435 0.813708,-0.716838 0.57657,-0.588583 1.521053,-0.598076 2.109635,-0.02151 l 0.02151,0.02151 0.755586,0.67809 c 0.942739,0.798984 2.225104,1.06867 3.409825,0.716838 0.741056,-0.200715 1.41159,-0.603113 1.937401,-1.16244 0.300103,-0.343308 0.711801,-0.569596 1.16244,-0.639342 v 0 c 0.534916,0 0.9687,-0.433785 0.9687,-0.968701 0,-0.534916 -0.433784,-0.9687 -0.9687,-0.9687 z"
     id="path837-3"
     style="fill:#6b72e1;fill-opacity:1;stroke:none;stroke-width:1.9374;stroke-opacity:1"
     sodipodi:nodetypes="csccccccccccccccsssscccccccccccccssssc" />
  <path
     d="m 58.559933,55.634074 v 0 c -0.841994,-0.01937 -1.662096,0.270073 -2.305507,0.813708 l -0.910578,0.794334 c -0.551578,0.493263 -1.385823,0.493263 -1.937401,0 -0.29061,-0.232488 -0.561846,-0.503724 -0.852456,-0.755586 -1.370905,-1.156241 -3.375727,-1.156241 -4.746632,0 -0.309984,0.251862 -0.600594,0.542472 -0.910578,0.794334 -0.551578,0.493263 -1.385823,0.493263 -1.937401,0 -0.309984,-0.251862 -0.600594,-0.542472 -0.910578,-0.794334 -1.367611,-1.145391 -3.359646,-1.145391 -4.727258,0 -0.29061,0.251862 -0.561846,0.523098 -0.852456,0.755586 -0.172816,0.138525 -0.36985,0.243725 -0.58122,0.309985 -0.566109,0.126318 -1.156435,-0.05832 -1.549922,-0.484351 -0.479506,-0.414603 -0.991368,-0.790265 -1.530546,-1.123692 -0.399881,-0.22842 -0.857495,-0.336139 -1.317434,-0.309984 h -0.116244 c -0.534916,0 -0.9687,0.433784 -0.9687,0.9687 0,0.534916 0.433784,0.968701 0.9687,0.968701 v 0 c 0.476601,0.02809 0.92259,0.244112 1.239937,0.600594 l 0.697465,0.503724 c 1.301352,1.06557 3.159514,1.113424 4.514145,0.116244 0.368106,-0.271236 0.697464,-0.619968 1.06557,-0.910578 0.551578,-0.493263 1.385823,-0.493263 1.937401,0 l 0.755586,0.67809 c 1.343975,1.199057 3.355965,1.25621 4.766006,0.135618 0.29061,-0.213114 0.523098,-0.48435 0.813708,-0.716838 0.57657,-0.588583 1.521053,-0.598076 2.109635,-0.02151 l 0.02151,0.02151 0.755586,0.67809 c 0.942739,0.798984 2.225104,1.06867 3.409825,0.716838 0.741056,-0.200715 1.41159,-0.603113 1.937401,-1.16244 0.300103,-0.343308 0.711801,-0.569596 1.16244,-0.639342 v 0 c 0.534916,0 0.9687,-0.433785 0.9687,-0.968701 0,-0.534916 -0.433784,-0.9687 -0.9687,-0.9687 z"
     id="path837-3-7"
     style="fill:#6b72e1;fill-opacity:1;stroke:none;stroke-width:1.9374;stroke-opacity:1"
     sodipodi:nodetypes="csccccccccccccccsssscccccccccccccssssc" />
  <path
     d="m 26.343038,44.916801 v 0 c -0.841994,-0.01937 -1.662096,0.270073 -2.305507,0.813708 l -0.910578,0.794334 c -0.551578,0.493263 -1.385823,0.493263 -1.937401,0 -0.29061,-0.232488 -0.561846,-0.503724 -0.852456,-0.755586 -1.370905,-1.156241 -3.375727,-1.156241 -4.746632,0 -0.309984,0.251862 -0.600594,0.542472 -0.910578,0.794334 -0.551578,0.493263 -1.385823,0.493263 -1.937401,0 -0.309984,-0.251862 -0.600594,-0.542472 -0.910578,-0.794334 -1.367611,-1.145391 -3.3596461,-1.145391 -4.7272581,0 -0.29061,0.251862 -0.561846,0.523098 -0.852456,0.755586 -0.172816,0.138525 -0.36985,0.243725 -0.58122,0.309985 -0.566109,0.126318 -1.156435,-0.05832 -1.549922,-0.484351 -0.479506,-0.414603 -0.991368,-0.790265 -1.530546,-1.123692 -0.399881,-0.22842 -0.857495,-0.336139 -1.317434,-0.309984 h -0.116244 c -0.53491598,0 -0.96869998,0.433784 -0.96869998,0.9687 0,0.534916 0.433784,0.968701 0.96869998,0.968701 v 0 c 0.476601,0.02809 0.92259,0.244112 1.239937,0.600594 l 0.697465,0.503724 c 1.301352,1.06557 3.159514,1.113424 4.514145,0.116244 0.368106,-0.271236 0.697464,-0.619968 1.06557,-0.910578 0.551578,-0.493263 1.3858231,-0.493263 1.9374011,0 l 0.755586,0.67809 c 1.343975,1.199057 3.355965,1.25621 4.766006,0.135618 0.29061,-0.213114 0.523098,-0.48435 0.813708,-0.716838 0.57657,-0.588583 1.521053,-0.598076 2.109635,-0.02151 l 0.02151,0.02151 0.755586,0.67809 c 0.942739,0.798984 2.225104,1.06867 3.409825,0.716838 0.741056,-0.200715 1.41159,-0.603113 1.937401,-1.16244 0.300103,-0.343308 0.711801,-0.569596 1.16244,-0.639342 v 0 c 0.534916,0 0.9687,-0.433785 0.9687,-0.968701 0,-0.534916 -0.433784,-0.9687 -0.9687,-0.9687 z"
     id="path837-3-7-5"
     style="fill:#6b72e1;fill-opacity:1;stroke:none;stroke-width:1.9374;stroke-opacity:1"
     sodipodi:nodetypes="csccccccccccccccsssscccccccccccccssssc" />
  <path
     d="m 60.294679,17.829821 v 0 c -0.841994,-0.01937 -1.662096,0.270073 -2.305507,0.813708 l -0.910578,0.794335 c -0.551578,0.493263 -1.385823,0.493263 -1.937401,0 -0.29061,-0.232488 -0.561846,-0.503724 -0.852456,-0.755587 -1.370905,-1.156241 -3.375727,-1.156241 -4.746632,0 -0.309984,0.251863 -0.600594,0.542472 -0.910578,0.794335 -0.551578,0.493263 -1.385823,0.493263 -1.937401,0 -0.309984,-0.251863 -0.600594,-0.542472 -0.910578,-0.794335 -1.367611,-1.145391 -3.359646,-1.145391 -4.727258,0 -0.29061,0.251863 -0.561846,0.523099 -0.852456,0.755587 -0.172816,0.138525 -0.36985,0.243725 -0.58122,0.309985 -0.566109,0.126317 -1.156435,-0.05832 -1.549922,-0.484351 -0.479506,-0.414603 -0.991368,-0.790266 -1.530546,-1.123693 -0.399881,-0.22842 -0.857495,-0.336139 -1.317434,-0.309984 h -0.116244 c -0.534916,0 -0.9687,0.433784 -0.9687,0.9687 0,0.534917 0.433784,0.968702 0.9687,0.968702 v 0 c 0.476601,0.02809 0.92259,0.244112 1.239937,0.600594 l 0.697465,0.503724 c 1.301352,1.06557 3.159514,1.113424 4.514145,0.116244 0.368106,-0.271236 0.697464,-0.619968 1.06557,-0.910578 0.551578,-0.493263 1.385823,-0.493263 1.937401,0 l 0.755586,0.67809 c 1.343975,1.199057 3.355965,1.25621 4.766006,0.135618 0.29061,-0.213114 0.523098,-0.48435 0.813708,-0.716838 0.57657,-0.588583 1.521053,-0.598076 2.109635,-0.02151 l 0.02151,0.02151 0.755586,0.67809 c 0.942739,0.798983 2.225104,1.068669 3.409825,0.716838 0.741056,-0.200715 1.41159,-0.603113 1.937401,-1.16244 0.300103,-0.343308 0.711801,-0.569596 1.16244,-0.639342 v 0 c 0.534916,0 0.9687,-0.433785 0.9687,-0.968702 0,-0.534916 -0.433784,-0.9687 -0.9687,-0.9687 z"
     id="path837-3-7-5-3"
     style="fill:#6b72e1;fill-opacity:1;stroke:none;stroke-width:1.9374;stroke-opacity:1"
     sodipodi:nodetypes="csccccccccccccccsssscccccccccccccssssc" />
  <path
     d="m 51.710827,6.6648921 v 0 c -1.186254,-0.01917 -2.341665,0.2672791 -3.248143,0.8052901 l -1.28288,0.7861167 c -0.777098,0.4881601 -1.952435,0.4881601 -2.729533,0 -0.409429,-0.230083 -0.791564,-0.498513 -1.200993,-0.7477695 -1.931418,-1.1442797 -4.755937,-1.1442797 -6.687355,0 -0.436725,0.2492565 -0.846155,0.5368601 -1.28288,0.7861166 -0.777097,0.4881602 -1.952434,0.4881602 -2.729532,0 -0.436725,-0.2492565 -0.846155,-0.5368601 -1.28288,-0.7861166 -1.926777,-1.1335419 -4.73328,-1.1335419 -6.660058,0 C 24.197144,7.7577859 23.815009,8.0262159 23.40558,8.2562989 23.162105,8.3933908 22.884512,8.4975025 22.58672,8.5630771 21.78915,8.6880883 20.957462,8.5053604 20.403092,8.0837367 19.727534,7.6734227 19.006391,7.301647 18.246763,6.9716693 17.683385,6.7456123 17.03867,6.6390076 16.390679,6.6648921 h -0.163772 c -0.753624,0 -1.364766,0.4292965 -1.364766,0.9586788 0,0.5293822 0.611142,0.9586797 1.364766,0.9586797 v 0 c 0.671465,0.027799 1.299803,0.2415867 1.746901,0.5943809 l 0.982633,0.4985129 c 1.833427,1.0545466 4.451322,1.1019056 6.359812,0.1150415 0.518611,-0.2684301 0.982631,-0.6135544 1.501242,-0.9011581 0.777098,-0.4881601 1.952435,-0.4881601 2.729531,0 l 1.064518,0.6710752 c 1.893476,1.186652 4.728095,1.243214 6.714649,0.134215 0.40943,-0.2109093 0.736974,-0.4793394 1.146403,-0.7094223 0.812309,-0.5824941 2.142956,-0.5918889 2.972187,-0.021287 l 0.0303,0.021287 1.064517,0.6710752 c 1.32819,0.7907181 3.134867,1.0576141 4.803977,0.7094221 1.044046,-0.198639 1.988737,-0.5968736 2.729532,-1.1504144 0.422804,-0.3397564 1.00283,-0.5637035 1.637719,-0.632728 v 0 c 0.753623,0 1.364766,-0.4292975 1.364766,-0.9586797 0,-0.5293823 -0.611143,-0.9586788 -1.364767,-0.9586788 z"
     id="path837-3-3"
     style="fill:#6b72e1;fill-opacity:1;stroke:none;stroke-width:2.28768;stroke-opacity:1"
     sodipodi:nodetypes="csccccccccccccccsssscccccccccccccssssc" />
</svg>
