<?xml version="1.0" encoding="UTF-8" standalone="no"?>
<svg
   width="19"
   height="19"
   viewBox="0 0 19 19"
   version="1.1"
   id="svg4"
   sodipodi:docname="charging_station.svg"
   inkscape:version="1.2.2 (b0a8486541, 2022-12-01)"
   xmlns:inkscape="http://www.inkscape.org/namespaces/inkscape"
   xmlns:sodipodi="http://sodipodi.sourceforge.net/DTD/sodipodi-0.dtd"
   xmlns="http://www.w3.org/2000/svg"
   xmlns:svg="http://www.w3.org/2000/svg">
  <defs
     id="defs8" />
  <sodipodi:namedview
     id="namedview6"
     pagecolor="#ffffff"
     bordercolor="#666666"
     borderopacity="1.0"
     inkscape:showpageshadow="2"
     inkscape:pageopacity="0"
     inkscape:pagecheckerboard="true"
     inkscape:deskcolor="#d1d1d1"
     showgrid="false"
     inkscape:zoom="16.857143"
     inkscape:cx="6.8220339"
     inkscape:cy="7"
     inkscape:window-width="2508"
     inkscape:window-height="1374"
     inkscape:window-x="0"
     inkscape:window-y="0"
     inkscape:window-maximized="1"
     inkscape:current-layer="svg4" />
  <path
     d="M 4.7499576,3 C 3.58443,3 2.7499578,3.7955215 2.7499578,5 V 16 H 9.7499575 V 8.125 c 0,0 0.8749995,-0.125 0.8749995,0.875 v 4 c 0,2 1.864698,2.125 2.125,2.125 0.275652,0 2.125,-0.124975 2.125,-2.125 V 9 c 0,0 1.387558,0.017377 1.375,-2.96875 h -0.75 v -2 c 0,-0.5671583 -0.75,-0.5637421 -0.75,-0.03125 v 2 h -1 V 4 c 0,-0.5461843 -0.75,-0.5451872 -0.75,0 v 2 h -0.75 c 0.01252,2.9863904 1.375,3 1.375,3 v 4 c 0,0.874159 -0.767136,0.875 -0.875,0.875 -0.107864,0 -0.875,-0.04279 -0.875,-0.875 V 9 c 0,-1.2809084 -1.125,-2.125 -2.1249995,-2.125 V 5 c 0,-1.2224558 -0.816495,-2 -2,-2 z m 0.96875,2 H 8.4687075 L 6.7499576,7.6666667 H 8.8124575 L 5.0312076,13 h -0.6875 l 1.375,-4 h -1.71875 z"
     id="path2"
     style="fill:#ffffff" />
</svg>
