<?xml version="1.0" encoding="UTF-8" standalone="no"?>
<svg
   xmlns:dc="http://purl.org/dc/elements/1.1/"
   xmlns:cc="http://creativecommons.org/ns#"
   xmlns:rdf="http://www.w3.org/1999/02/22-rdf-syntax-ns#"
   xmlns:svg="http://www.w3.org/2000/svg"
   xmlns="http://www.w3.org/2000/svg"
   xmlns:sodipodi="http://sodipodi.sourceforge.net/DTD/sodipodi-0.dtd"
   xmlns:inkscape="http://www.inkscape.org/namespaces/inkscape"
   viewBox="0 0 19 19"
   height="19"
   width="19"
   id="svg2"
   version="1.1"
   inkscape:version="0.91 r13725"
   sodipodi:docname="city.svg">
  <metadata
     id="metadata14">
    <rdf:RDF>
      <cc:Work
         rdf:about="">
        <dc:format>image/svg+xml</dc:format>
        <dc:type
           rdf:resource="http://purl.org/dc/dcmitype/StillImage" />
        <dc:title>dam-15.svg</dc:title>
      </cc:Work>
    </rdf:RDF>
  </metadata>
  <defs
     id="defs12" />
  <sodipodi:namedview
     pagecolor="#000000"
     bordercolor="#666666"
     borderopacity="1"
     objecttolerance="10"
     gridtolerance="10"
     guidetolerance="10"
     inkscape:pageopacity="0"
     inkscape:pageshadow="2"
     inkscape:window-width="1920"
     inkscape:window-height="1140"
     id="namedview10"
     showgrid="false"
     inkscape:zoom="22.627417"
     inkscape:cx="13.781107"
     inkscape:cy="5.447431"
     inkscape:window-x="1600"
     inkscape:window-y="0"
     inkscape:window-maximized="1"
     inkscape:current-layer="svg2" />
  <title
     id="title4">dam-15.svg</title>
  <path
     inkscape:connector-curvature="0"
     style="fill:#ffffff"
     d="m 7.9852815,16.898602 0,-11.5000001 -5,0 0,11.5000001 -1,0 0,0.5 16.0935925,0.06629 0,-0.544194 c -2.333304,-0.0068 -7.760234,-0.0221 -10.0935925,-0.0221 z m -1,-2.5 -3,0 0,-1 3,0 z m 0,-2 -3,0 0,-1 3,0 z m 0,-2 -3,0 0,-1.0000001 3,0 z m 0,-2.0000001 -3,0 0,-1 3,0 z"
     id="path8"
     sodipodi:nodetypes="ccccccccccccccccccccccccccccc" />
  <path
     inkscape:connector-curvature="0"
     style="fill:#ffffff"
     d="m 12.079505,11.544194 0,5.46875 2.485795,0 0,-1.491477 1.491478,0 0,1.491477 0.497159,0 0,-5.46875 -4.474432,0 z m 1.988636,4.971591 -1.491477,0 0,-0.994318 1.491477,0 0,0.994318 z m 0,-1.491477 -1.491477,0 0,-0.994319 1.491477,0 0,0.994319 z m 0,-1.491478 -1.491477,0 0,-0.994318 1.491477,0 0,0.994318 z m 1.988637,1.491478 -1.491478,0 0,-0.994319 1.491478,0 0,0.994319 z m 0,-1.491478 -1.491478,0 0,-0.994318 1.491478,0 0,0.994318 z"
     id="path8-2" />
</svg>
