<svg xmlns="http://www.w3.org/2000/svg" viewBox="0 0 19 19" height="19" width="19"><title>drinking-water-15.svg</title><rect fill="none" x="0" y="0" width="19" height="19"></rect><path fill="#fff" transform="translate(2 2)" d="M6,1A2,2,0,0,0,4,3V6.5a0.5,0.5,0,0,0,.5.5h2A0.5,0.5,0,0,0,7,6.5v-2A0.5,0.5,0,0,1,7.5,4H14V1H6Z"></path><path fill="#fff" transform="translate(2 2)" d="M7,15H4a0.5,0.5,0,0,1-.48-0.38L2,8.62A0.5,0.5,0,0,1,2.5,8h6A0.5,0.5,0,0,1,9,8.62l-1.5,6A0.5,0.5,0,0,1,7,15ZM3.65,11l3.71,0L7.86,9H3.14Z"></path></svg>