<?xml version="1.0" encoding="UTF-8" standalone="no"?>
<svg
   xmlns:dc="http://purl.org/dc/elements/1.1/"
   xmlns:cc="http://creativecommons.org/ns#"
   xmlns:rdf="http://www.w3.org/1999/02/22-rdf-syntax-ns#"
   xmlns:svg="http://www.w3.org/2000/svg"
   xmlns="http://www.w3.org/2000/svg"
   xmlns:sodipodi="http://sodipodi.sourceforge.net/DTD/sodipodi-0.dtd"
   xmlns:inkscape="http://www.inkscape.org/namespaces/inkscape"
   viewBox="0 0 19 19"
   height="19"
   width="19"
   id="svg2"
   version="1.1"
   inkscape:version="0.91 r13725"
   sodipodi:docname="highway_tertiary.svg">
  <metadata
     id="metadata14">
    <rdf:RDF>
      <cc:Work
         rdf:about="">
        <dc:format>image/svg+xml</dc:format>
        <dc:type
           rdf:resource="http://purl.org/dc/dcmitype/StillImage" />
        <dc:title>dam-15.svg</dc:title>
      </cc:Work>
    </rdf:RDF>
  </metadata>
  <defs
     id="defs12" />
  <sodipodi:namedview
     pagecolor="#000000"
     bordercolor="#666666"
     borderopacity="1"
     objecttolerance="10"
     gridtolerance="10"
     guidetolerance="10"
     inkscape:pageopacity="0"
     inkscape:pageshadow="2"
     inkscape:window-width="1920"
     inkscape:window-height="1140"
     id="namedview10"
     showgrid="false"
     inkscape:zoom="22.627417"
     inkscape:cx="15.101357"
     inkscape:cy="8.9271863"
     inkscape:window-x="1600"
     inkscape:window-y="0"
     inkscape:window-maximized="1"
     inkscape:current-layer="svg2" />
  <title
     id="title4">dam-15.svg</title>
  <path
     inkscape:connector-curvature="0"
     style="fill:#ffffff"
     d="M 5.1527575,10.616198 C 5.1516288,10.418682 5.0177007,10.247456 4.8283061,10.201367 l -0.3921625,-0.9269334 0,0 0,0 0,0 c -0.021638,-0.053419 -0.07282,-0.088399 -0.1297805,-0.088685 l -1.974921,0 c -0.052928,9.724e-4 -0.1008612,0.031901 -0.1241375,0.0801 l 0,0 0,0 0,0 -0.3978052,0.9326564 c -0.1904387,0.04635 -0.3246203,0.219116 -0.324451,0.417691 l 0,1.00132 0.2821315,0 0,0.286089 c 0,0.158011 0.1263104,0.286092 0.2821316,0.286092 0.1558211,0 0.2821312,-0.128087 0.2821312,-0.286092 l 0,-0.286089 1.9749208,0 0,0.286089 c 0,0.158011 0.1263107,0.286092 0.2821316,0.286092 0.1558209,0 0.2821314,-0.128087 0.2821314,-0.286092 l 0,-0.286089 0.2821315,0 0,-1.00132 z m -2.7366756,-1.1443626 1.8056412,0 0.2962382,0.7152266 -2.3981174,0 0.296238,-0.7152266 z M 2.0493109,11.18838 c -0.1558212,0 -0.2821316,-0.128087 -0.2821316,-0.286091 0,-0.158009 0.1263104,-0.286091 0.2821316,-0.286091 0.1558211,0 0.2821312,0.128086 0.2821312,0.286091 0,0.158007 -0.1263105,0.286091 -0.2821312,0.286091 z m 2.5391836,0 c -0.1558217,0 -0.2821315,-0.128087 -0.2821315,-0.286091 0,-0.158009 0.1263106,-0.286091 0.2821315,-0.286091 0.1558208,0 0.2821314,0.128086 0.2821314,0.286091 0,0.158007 -0.1263106,0.286091 -0.2821314,0.286091 z"
     id="path8" />
  <path
     style="color:#000000;display:inline;overflow:visible;visibility:visible;opacity:1;fill:#ffffff;fill-opacity:1;fill-rule:nonzero;stroke:none;stroke-width:1.96200001;stroke-linecap:butt;stroke-linejoin:miter;stroke-miterlimit:3.79999995;stroke-dasharray:none;stroke-dashoffset:7.39639997;stroke-opacity:1;marker:none;marker-start:none;marker-mid:none;marker-end:none;enable-background:accumulate"
     d="m 1.8871445,6.3784508 c 0.3102694,0.6314436 1.0120774,1.3771757 1.3235817,1.6553702 0.9837497,0.8785568 1.4462186,1.7719257 4.5196794,2.657772 1.7568093,0.506355 7.1512884,0.887992 7.6655384,0.887992 0.514248,0 2.900444,0.299864 2.900444,0.299864 l 0,-0.674651 c 0,0 -1.869999,-0.271533 -4.020498,-0.415169 C 11.461555,10.58778 7.642577,10.399433 6.4908431,9.9021757 5.339109,9.4049175 4.7019867,9.0968415 3.731621,8.1327151 2.3230725,6.7332224 2.0684726,6.2246054 2.0684726,6.2246054 Z"
     id="path3825"
     inkscape:connector-curvature="0"
     sodipodi:nodetypes="csssccczscc" />
  <path
     style="color:#000000;display:inline;overflow:visible;visibility:visible;opacity:1;fill:#ffffff;fill-opacity:1;fill-rule:nonzero;stroke:none;stroke-width:1.96200001;stroke-linecap:butt;stroke-linejoin:miter;stroke-miterlimit:3.79999995;stroke-dasharray:none;stroke-dashoffset:7.39639997;stroke-opacity:1;marker:none;marker-start:none;marker-mid:none;marker-end:none;enable-background:accumulate"
     d="m 0.13258248,8.6670587 c 0,0 0.68698688,2.8649373 1.48720662,3.8350123 0.8526801,1.033669 2.4747181,2.939591 5.5481784,3.825436 1.7568103,0.506356 7.1045385,0.836097 7.6187885,0.836097 0.514249,0 2.900445,0.299863 2.900445,0.299863 l 0,-0.674651 c 0,0 -1.87,-0.271532 -4.020499,-0.415169 C 10.852367,16.171798 8.5968393,16.519002 6.2556555,15.486194 3.9144712,14.453386 2.3176623,13.130842 1.673184,12.185794 0.99307284,11.188495 0.2437856,8.4094211 0.2437856,8.4094211 Z"
     id="path3825-7"
     inkscape:connector-curvature="0"
     sodipodi:nodetypes="csssccczscc" />
  <path
     inkscape:connector-curvature="0"
     style="fill:#ffffff"
     d="M 15.485319,6.5227054 C 15.489719,6.2212651 15.335044,5.9447291 15.08965,5.8155531 15.06887,5.5303204 14.852803,5.3115864 14.595063,5.3148366 c -0.03909,0.00348 -0.07762,0.012339 -0.114746,0.026354 -0.02402,-0.2898885 -0.255167,-0.503264 -0.516269,-0.4766029 -0.102356,0.010451 -0.198864,0.057495 -0.27507,0.1340068 l 0,0 c 0,-0.303241 -0.221416,-0.5490313 -0.494587,-0.5490313 -0.273169,0 -0.494587,0.2457903 -0.494587,0.5490313 0,0 0.01584,0.00878 0.01584,0.02196 -0.202344,-0.192688 -0.507091,-0.1667738 -0.68067,0.057889 -0.05859,0.075854 -0.09694,0.168355 -0.110675,0.2671367 -0.06263,-0.022181 -0.128161,-0.032546 -0.193877,-0.030746 -0.327773,-0.00303 -0.595721,0.2894493 -0.59845,0.6533033 -6.73e-4,0.087757 0.01449,0.1747237 0.0445,0.2558926 -0.313569,0.097288 -0.496725,0.4583752 -0.409084,0.8064609 0.05548,0.2203592 0.210575,0.3925354 0.409084,0.4541147 0.100229,0.3438693 0.432624,0.5324725 0.742394,0.4212168 0.211803,-0.076074 0.366945,-0.2780734 0.401092,-0.5222387 0.07241,0.06988 0.161946,0.1142431 0.257185,0.1273754 l 0,2.1961249 -0.652855,0.4392249 1.978348,0 -0.633071,-0.4392249 0,-0.8784497 c 0.292043,-0.3915687 0.669276,-0.6939318 1.096005,-0.8784502 0.317011,0.082531 0.634259,-0.1358085 0.708604,-0.4876714 0.01129,-0.05319 0.01646,-0.1077412 0.01548,-0.1623815 0.0012,-0.02341 0.0012,-0.046865 0,-0.070276 0.245395,-0.1291757 0.400142,-0.4057122 0.39567,-0.7071523 z m -2.215749,1.9809049 0,-1.5109342 c 0.106944,0.2111355 0.308029,0.3420245 0.52624,0.3425956 l 0.110788,0 c 0.0061,0.1928636 0.08871,0.3729019 0.225531,0.4919318 -0.322747,0.1642703 -0.615227,0.3936334 -0.862559,0.6764068 z"
     id="path8-0" />
</svg>
