<?xml version="1.0" encoding="UTF-8" standalone="no"?>
<svg
   xmlns:dc="http://purl.org/dc/elements/1.1/"
   xmlns:cc="http://creativecommons.org/ns#"
   xmlns:rdf="http://www.w3.org/1999/02/22-rdf-syntax-ns#"
   xmlns:svg="http://www.w3.org/2000/svg"
   xmlns="http://www.w3.org/2000/svg"
   xmlns:sodipodi="http://sodipodi.sourceforge.net/DTD/sodipodi-0.dtd"
   xmlns:inkscape="http://www.inkscape.org/namespaces/inkscape"
   viewBox="0 0 19 19"
   height="19"
   width="19"
   id="svg2"
   version="1.1"
   inkscape:version="0.91 r13725"
   sodipodi:docname="landuse_reservoir.svg">
  <metadata
     id="metadata14">
    <rdf:RDF>
      <cc:Work
         rdf:about="">
        <dc:format>image/svg+xml</dc:format>
        <dc:type
           rdf:resource="http://purl.org/dc/dcmitype/StillImage" />
        <dc:title>dam-15.svg</dc:title>
      </cc:Work>
    </rdf:RDF>
  </metadata>
  <defs
     id="defs12" />
  <sodipodi:namedview
     pagecolor="#000000"
     bordercolor="#666666"
     borderopacity="1"
     objecttolerance="10"
     gridtolerance="10"
     guidetolerance="10"
     inkscape:pageopacity="0"
     inkscape:pageshadow="2"
     inkscape:window-width="1920"
     inkscape:window-height="1140"
     id="namedview10"
     showgrid="false"
     inkscape:zoom="17.566021"
     inkscape:cx="1.269306"
     inkscape:cy="12.647183"
     inkscape:window-x="1600"
     inkscape:window-y="0"
     inkscape:window-maximized="1"
     inkscape:current-layer="svg2" />
  <title
     id="title4">dam-15.svg</title>
  <rect
     fill="none"
     x="0"
     y="0"
     width="19"
     height="19"
     id="rect6" />
  <path
     d="m 1.4221539,10.979649 c -0.1144294,-0.246935 0.2593185,-0.395464 0.7832844,-0.527138 0.5239657,-0.131675 1.7233672,-0.0417 2.6229389,0.344518 0.2552428,0.109031 0.4945331,0.234832 0.749776,0.343861 0.4541728,0.213529 1.1410953,0.213529 1.5952681,0 0.2552429,-0.109031 0.4945339,-0.234832 0.7497768,-0.343861 1.1288114,-0.500527 2.7795959,-0.500527 3.9084079,0 0.23929,0.109031 0.462627,0.226445 0.701917,0.327088 0.454173,0.213529 1.141096,0.213529 1.595268,0 l 0.749777,-0.343861 c 0.504583,-0.224097 1.142052,-0.348642 1.802652,-0.352248 l 0,0 c 0.440454,0 0.797635,0.187781 0.797635,0.419342 0,0.231561 -0.357181,0.419344 -0.797635,0.419344 l 0,0 c -0.413174,0.01837 -0.796676,0.120686 -1.068829,0.285153 -0.432955,0.242127 -0.985078,0.416323 -1.595268,0.503212 -0.975506,0.152305 -2.031415,0.03557 -2.807672,-0.310314 L 10.683012,11.459591 C 10.20826,11.204798 9.4305675,11.200689 8.9459245,11.450291 l -0.01771,0.0094 c -0.223335,0.100547 -0.43072,0.209572 -0.6700101,0.310213 C 7.0971675,12.255 5.4404815,12.23026 4.333844,11.711191 L 3.7911531,11.378299 C 3.3369803,11.16477 2.6923275,11.057932 2.3094044,11.163448 1.9264812,11.268966 1.5365836,11.226582 1.4221539,10.979649 Z"
     id="path8-3"
     inkscape:connector-curvature="0"
     style="fill:#ffffff"
     sodipodi:nodetypes="zzccccccccccsccccccccccczz" />
  <path
     d="M 1.4707784,8.3804639 C 1.356349,8.1335296 1.7300968,7.9850004 2.2540627,7.8533257 2.7780284,7.721651 3.9774299,7.8116244 4.8770016,8.1978443 c 0.2552428,0.1090311 0.4945331,0.2348321 0.749776,0.343861 0.4541728,0.2135292 1.1410953,0.2135292 1.5952681,0 0.2552429,-0.1090312 0.4945339,-0.2348322 0.7497768,-0.343861 1.128812,-0.5005276 2.7795955,-0.5005276 3.9084075,0 0.23929,0.1090311 0.462628,0.2264443 0.701918,0.3270877 0.454172,0.2135292 1.141097,0.2135292 1.595269,0 l 0.749777,-0.3438611 c 0.504583,-0.2240972 1.142052,-0.3486423 1.802652,-0.3522476 l 0,0 c 0.440454,0 0.797634,0.1877813 0.797634,0.4193421 0,0.2315607 -0.35718,0.4193432 -0.797634,0.4193432 l 0,0 c -0.413174,0.018369 -0.796677,0.1206869 -1.068829,0.2851533 -0.432955,0.2421278 -0.985079,0.4163237 -1.595268,0.5032122 -0.975507,0.152305 -2.031416,0.03557 -2.807673,-0.3103144 L 10.731637,8.8604064 C 10.256885,8.605613 9.4791915,8.6015043 8.9945485,8.8511291 l -0.01771,0.00939 C 8.7535035,8.9610532 8.5461195,9.0700786 8.3068288,9.1707198 7.1457919,9.6558161 5.4891059,9.6310761 4.3824684,9.1120063 L 3.8397775,8.7791142 C 3.3856047,8.565585 2.7409519,8.4587467 2.3580288,8.564263 1.9751056,8.6697816 1.585208,8.6273972 1.4707784,8.3804639 Z"
     id="path8-3-7"
     inkscape:connector-curvature="0"
     style="fill:#ffffff"
     sodipodi:nodetypes="zzccccccccccsccccccccccczz" />
</svg>
