<?xml version="1.0" encoding="UTF-8" standalone="no"?>
<svg
   xmlns:dc="http://purl.org/dc/elements/1.1/"
   xmlns:cc="http://creativecommons.org/ns#"
   xmlns:rdf="http://www.w3.org/1999/02/22-rdf-syntax-ns#"
   xmlns:svg="http://www.w3.org/2000/svg"
   xmlns="http://www.w3.org/2000/svg"
   xmlns:sodipodi="http://sodipodi.sourceforge.net/DTD/sodipodi-0.dtd"
   xmlns:inkscape="http://www.inkscape.org/namespaces/inkscape"
   viewBox="0 0 19 19"
   height="19"
   width="19"
   id="svg2"
   version="1.1"
   inkscape:version="0.91 r13725"
   sodipodi:docname="natural_water.svg">
  <metadata
     id="metadata14">
    <rdf:RDF>
      <cc:Work
         rdf:about="">
        <dc:format>image/svg+xml</dc:format>
        <dc:type
           rdf:resource="http://purl.org/dc/dcmitype/StillImage" />
        <dc:title>dam-15.svg</dc:title>
      </cc:Work>
    </rdf:RDF>
  </metadata>
  <defs
     id="defs12" />
  <sodipodi:namedview
     pagecolor="#000000"
     bordercolor="#666666"
     borderopacity="1"
     objecttolerance="10"
     gridtolerance="10"
     guidetolerance="10"
     inkscape:pageopacity="0"
     inkscape:pageshadow="2"
     inkscape:window-width="1920"
     inkscape:window-height="1140"
     id="namedview10"
     showgrid="false"
     inkscape:zoom="16"
     inkscape:cx="-7.037042"
     inkscape:cy="17.42825"
     inkscape:window-x="1600"
     inkscape:window-y="0"
     inkscape:window-maximized="1"
     inkscape:current-layer="svg2" />
  <title
     id="title4">dam-15.svg</title>
  <rect
     fill="none"
     x="0"
     y="0"
     width="19"
     height="19"
     id="rect6" />
  <path
     d="M 0.64310384,10.336414 C 0.51781904,10.066054 0.92702274,9.9034345 1.5006949,9.7592685 2.074367,9.6151024 3.3875504,9.7136111 4.3724604,10.13647 c 0.2794567,0.119374 0.5414473,0.25711 0.820904,0.376482 0.4972582,0.233785 1.2493459,0.233785 1.7466041,0 0.2794567,-0.119375 0.5414482,-0.25711 0.8209049,-0.376482 1.2358971,-0.5480104 3.0432826,-0.5480104 4.2791806,0 0.26199,0.119374 0.506515,0.247926 0.768505,0.358117 0.497258,0.233786 1.249347,0.233786 1.746604,0 l 0.820905,-0.376482 c 0.55245,-0.2453559 1.250394,-0.381716 1.973662,-0.3856634 l 0,0 c 0.482237,0 0.873302,0.2055953 0.873302,0.4591234 0,0.253528 -0.391065,0.459124 -0.873302,0.459124 l 0,0 c -0.45237,0.02011 -0.872254,0.132136 -1.170224,0.312205 -0.474028,0.265097 -1.078529,0.455818 -1.746604,0.550949 -1.068049,0.166754 -2.224126,0.03894 -3.074024,-0.339752 l -0.57638,-0.312205 C 10.262709,10.582922 9.4112401,10.578423 8.8806213,10.851729 l -0.019388,0.01028 C 8.6167094,10.972081 8.3896509,11.091449 8.1276603,11.201638 6.8564809,11.732753 5.0426325,11.705665 3.8310131,11.137354 L 3.2368395,10.772882 C 2.7395814,10.539097 2.0337732,10.422123 1.6145239,10.537649 1.1952744,10.653178 0.76838902,10.606773 0.64310384,10.336414 Z"
     id="path8-3"
     inkscape:connector-curvature="0"
     style="fill:#ffffff"
     sodipodi:nodetypes="zzccccccccccsccccccccccczz" />
  <path
     d="M 0.69634115,7.4906558 C 0.57105635,7.2202958 0.98025992,7.0576764 1.5539321,6.9135103 2.1276042,6.7693442 3.4407876,6.8678529 4.4256976,7.2907118 c 0.2794567,0.1193745 0.5414473,0.2571097 0.820904,0.3764816 0.4972581,0.2337858 1.2493459,0.2337858 1.7466041,0 0.2794567,-0.1193745 0.5414482,-0.2571097 0.8209049,-0.3764816 1.2358971,-0.5480104 3.0432834,-0.5480104 4.2791804,0 0.261991,0.1193745 0.506515,0.2479261 0.768506,0.3581171 0.497257,0.2337858 1.249347,0.2337858 1.746605,0 L 15.429307,7.2723473 C 15.981757,7.026991 16.6797,6.8906308 17.402968,6.8866834 l 0,0 c 0.482238,0 0.873303,0.2055953 0.873303,0.4591232 0,0.253528 -0.391065,0.4591245 -0.873303,0.4591245 l 0,0 c -0.452369,0.020112 -0.872254,0.132136 -1.170224,0.3122045 -0.474028,0.2650975 -1.078528,0.4558186 -1.746604,0.55095 -1.068048,0.1667535 -2.224127,0.038941 -3.074025,-0.3397527 L 10.835735,8.0161282 C 10.315946,7.7371637 9.4644766,7.7326653 8.9338585,8.0059709 l -0.019388,0.010284 C 8.6699466,8.126323 8.4428881,8.2456911 8.1808975,8.3558798 6.9097181,8.8869946 5.0958696,8.8599075 3.8842503,8.2915963 L 3.2900767,7.9271243 C 2.7928185,7.6933385 2.0870104,7.5763649 1.6677611,7.6918911 1.2485116,7.8074197 0.8216262,7.7610145 0.69634115,7.4906558 Z"
     id="path8-3-7"
     inkscape:connector-curvature="0"
     style="fill:#ffffff"
     sodipodi:nodetypes="zzccccccccccsccccccccccczz" />
  <path
     style="color:#000000;display:inline;overflow:visible;visibility:visible;opacity:1;fill:#ffffff;fill-opacity:1;fill-rule:nonzero;stroke:none;stroke-width:3.11064744;stroke-linecap:butt;stroke-linejoin:miter;stroke-miterlimit:3.79999995;stroke-dasharray:none;stroke-dashoffset:7.39639997;stroke-opacity:1;marker:none;marker-start:none;marker-mid:none;marker-end:none;enable-background:accumulate"
     d="m 5.8593809,13.367452 c -0.7144215,0.01951 -1.5366428,0.285977 -1.9768275,0.499221 -0.3009739,0.145797 -1.3090409,-0.543625 -1.5411888,-0.562476 -0.2321486,-0.01885 0.1257204,0.636249 0.1273418,1.070281 0.00162,0.434035 -0.1672531,0.845629 -0.057162,0.894417 0.1100918,0.04877 0.64053,-0.240416 0.7858096,-0.301569 0.2865437,-0.120613 0.5871859,-0.16216 0.7202017,-0.09415 0.188605,0.09643 1.2138697,0.591382 2.4054401,0.603974 1.0203449,0.01091 2.4565025,-0.461729 2.4544295,-1.04927 -0.00325,-0.586083 -1.2233105,-1.060516 -2.7271443,-1.060428 -0.063623,-8.69e-4 -0.1272976,-8.69e-4 -0.1908979,0 z m 1.7090103,0.621376 c 0.016529,-0.0011 0.033372,-0.0011 0.049992,0 0.1609234,4.95e-4 0.2909975,0.09697 0.290896,0.215807 1.015e-4,0.118806 -0.1299757,0.215311 -0.290896,0.215806 -0.1609236,-4.95e-4 -0.2909977,-0.09697 -0.2908951,-0.215806 -0.00234,-0.105828 0.099738,-0.197263 0.2408984,-0.215807 z"
     id="path3296"
     inkscape:connector-curvature="0"
     sodipodi:nodetypes="csczcsscccccccccc" />
</svg>
