<?xml version="1.0" encoding="UTF-8" standalone="no"?>
<svg
   xmlns:dc="http://purl.org/dc/elements/1.1/"
   xmlns:cc="http://creativecommons.org/ns#"
   xmlns:rdf="http://www.w3.org/1999/02/22-rdf-syntax-ns#"
   xmlns:svg="http://www.w3.org/2000/svg"
   xmlns="http://www.w3.org/2000/svg"
   xmlns:sodipodi="http://sodipodi.sourceforge.net/DTD/sodipodi-0.dtd"
   xmlns:inkscape="http://www.inkscape.org/namespaces/inkscape"
   viewBox="0 0 19 19"
   height="19"
   width="19"
   id="svg2"
   version="1.1"
   inkscape:version="0.91 r13725"
   sodipodi:docname="waterway_stream.svg">
  <metadata
     id="metadata14">
    <rdf:RDF>
      <cc:Work
         rdf:about="">
        <dc:format>image/svg+xml</dc:format>
        <dc:type
           rdf:resource="http://purl.org/dc/dcmitype/StillImage" />
        <dc:title>dam-15.svg</dc:title>
      </cc:Work>
    </rdf:RDF>
  </metadata>
  <defs
     id="defs12" />
  <sodipodi:namedview
     pagecolor="#000000"
     bordercolor="#666666"
     borderopacity="1"
     objecttolerance="10"
     gridtolerance="10"
     guidetolerance="10"
     inkscape:pageopacity="0"
     inkscape:pageshadow="2"
     inkscape:window-width="1920"
     inkscape:window-height="1140"
     id="namedview10"
     showgrid="false"
     inkscape:zoom="24.842105"
     inkscape:cx="1.2394506"
     inkscape:cy="12.03194"
     inkscape:window-x="1600"
     inkscape:window-y="0"
     inkscape:window-maximized="1"
     inkscape:current-layer="svg2" />
  <title
     id="title4">dam-15.svg</title>
  <rect
     fill="none"
     x="0"
     y="0"
     width="19"
     height="19"
     id="rect6" />
  <path
     d="m 2.6552964,11.632592 c -0.1084185,-0.335203 0.2456968,-0.536824 0.7421394,-0.715567 0.4964424,-0.178742 1.6328407,-0.05661 2.4851589,0.467669 0.2418352,0.148005 0.4685558,0.318774 0.7103911,0.466775 0.4303156,0.289857 1.0811549,0.289857 1.5114705,0 0.2418353,-0.148004 0.4685567,-0.318774 0.7103919,-0.466775 1.0695166,-0.679444 2.6335858,-0.679444 3.7031028,0 0.22672,0.148005 0.438326,0.307388 0.665047,0.444006 0.430315,0.289857 1.081155,0.289857 1.51147,0 l 0.710392,-0.466775 c 0.478077,-0.304202 1.082061,-0.473266 1.707961,-0.478161 l 0,0 c 0.417317,0 0.755735,0.254905 0.755735,0.569238 0,0.314334 -0.338418,0.56924 -0.755735,0.56924 l 0,0 c -0.391471,0.02493 -0.754829,0.163827 -1.012685,0.387082 -0.410213,0.328678 -0.933334,0.565141 -1.511471,0.683088 -0.924264,0.206747 -1.924706,0.04828 -2.660188,-0.421238 l -0.498786,-0.387082 c -0.449813,-0.345871 -1.186654,-0.351448 -1.645839,-0.01259 l -0.016778,0.01275 c -0.2116054,0.136466 -0.4080965,0.284463 -0.6348171,0.421079 -1.100049,0.658496 -2.6697112,0.624912 -3.7182183,-0.0797 L 4.8998548,12.173741 C 4.4695392,11.883885 3.8587493,11.738857 3.4959407,11.88209 3.133132,12.025327 2.7637153,11.967792 2.6552964,11.632592 Z"
     id="path8-3"
     inkscape:connector-curvature="0"
     style="fill:#ffffff"
     sodipodi:nodetypes="zzccccccccccsccccccccccczz" />
  <path
     d="M 1.763126,8.0147004 C 1.6547075,7.6794982 2.0088227,7.4778765 2.5052653,7.2991341 3.0017077,7.1203917 4.138106,7.2425264 4.9904242,7.7668025 5.2322594,7.9148073 5.45898,8.0855765 5.7008153,8.2335782 c 0.4303156,0.2898563 1.0811549,0.2898563 1.5114705,0 0.2418353,-0.1480048 0.4685567,-0.318774 0.7103919,-0.4667757 1.0695166,-0.6794435 2.6335863,-0.6794435 3.7031033,0 0.22672,0.1480048 0.438326,0.3073879 0.665046,0.4440067 0.430316,0.2898563 1.081157,0.2898563 1.511472,0 l 0.710392,-0.4667757 c 0.478077,-0.3042019 1.082061,-0.4732662 1.707961,-0.4781603 l 0,0 c 0.417317,0 0.755735,0.2549046 0.755735,0.5692379 0,0.3143332 -0.338418,0.5692394 -0.755735,0.5692394 l 0,0 c -0.391471,0.024935 -0.754829,0.1638271 -1.012685,0.3870827 -0.410213,0.3286776 -0.933333,0.5651406 -1.51147,0.683088 -0.924265,0.2067472 -1.924708,0.04828 -2.66019,-0.4212379 L 10.537521,8.6662005 C 10.087708,8.32033 9.3508662,8.3147527 8.8916815,8.653607 l -0.016778,0.012751 C 8.6632983,8.802824 8.4668072,8.950821 8.2400866,9.087437 7.1400376,9.7459327 5.5703754,9.7123491 4.5218683,9.007736 L 4.0076843,8.5558501 C 3.5773687,8.2659938 2.9665788,8.1209658 2.6037702,8.2641993 2.2409615,8.4074359 1.8715448,8.3499011 1.763126,8.0147004 Z"
     id="path8-3-7"
     inkscape:connector-curvature="0"
     style="fill:#ffffff"
     sodipodi:nodetypes="zzccccccccccsccccccccccczz" />
</svg>
