<?xml version="1.0" encoding="UTF-8" standalone="no"?>
<svg
   xmlns:dc="http://purl.org/dc/elements/1.1/"
   xmlns:cc="http://creativecommons.org/ns#"
   xmlns:rdf="http://www.w3.org/1999/02/22-rdf-syntax-ns#"
   xmlns:svg="http://www.w3.org/2000/svg"
   xmlns="http://www.w3.org/2000/svg"
   xmlns:sodipodi="http://sodipodi.sourceforge.net/DTD/sodipodi-0.dtd"
   xmlns:inkscape="http://www.inkscape.org/namespaces/inkscape"
   viewBox="0 0 19 19"
   height="19"
   width="19"
   id="svg2"
   version="1.1"
   inkscape:version="0.91 r13725"
   sodipodi:docname="waterway_river.svg">
  <metadata
     id="metadata14">
    <rdf:RDF>
      <cc:Work
         rdf:about="">
        <dc:format>image/svg+xml</dc:format>
        <dc:type
           rdf:resource="http://purl.org/dc/dcmitype/StillImage" />
        <dc:title>dam-15.svg</dc:title>
      </cc:Work>
    </rdf:RDF>
  </metadata>
  <defs
     id="defs12" />
  <sodipodi:namedview
     pagecolor="#000000"
     bordercolor="#666666"
     borderopacity="1"
     objecttolerance="10"
     gridtolerance="10"
     guidetolerance="10"
     inkscape:pageopacity="0"
     inkscape:pageshadow="2"
     inkscape:window-width="1920"
     inkscape:window-height="1140"
     id="namedview10"
     showgrid="false"
     inkscape:zoom="17.566021"
     inkscape:cx="-2.785678"
     inkscape:cy="7.0722558"
     inkscape:window-x="1600"
     inkscape:window-y="0"
     inkscape:window-maximized="1"
     inkscape:current-layer="svg2" />
  <title
     id="title4">dam-15.svg</title>
  <rect
     fill="none"
     x="0"
     y="0"
     width="19"
     height="19"
     id="rect6" />
  <path
     d="M 1.7350075,10.128373 C 1.6274307,9.8595208 1.978797,9.6978081 2.4713856,9.5544459 c 0.4925886,-0.1433623 1.620165,-0.045403 2.4658666,0.3750982 0.2399579,0.1187089 0.4649184,0.2556769 0.7048763,0.3743829 0.4269751,0.232482 1.0727619,0.232482 1.4997369,0 0.2399579,-0.118709 0.4649193,-0.255677 0.7048772,-0.3743829 1.0612138,-0.5449547 2.6131414,-0.5449547 3.6743554,0 0.22496,0.1187089 0.434924,0.2465439 0.659884,0.3561209 0.426975,0.232482 1.072762,0.232482 1.499737,0 l 0.704877,-0.374383 c 0.474366,-0.2439882 1.073661,-0.379588 1.694702,-0.3835134 l 0,0 c 0.414077,0 0.749868,0.2044489 0.749868,0.4565632 0,0.2521142 -0.335791,0.4565642 -0.749868,0.4565642 l 0,0 c -0.388432,0.02 -0.748969,0.1314 -1.004824,0.310464 -0.407028,0.263619 -0.926088,0.453277 -1.499736,0.547878 -0.91709,0.165823 -1.909766,0.03872 -2.639538,-0.337858 L 10.441287,10.650916 C 9.9949654,10.373507 9.263844,10.369034 8.8082239,10.640815 l -0.016648,0.01023 C 8.5816137,10.760496 8.3866479,10.879199 8.1616873,10.988773 7.0701781,11.516926 5.5127012,11.48999 4.4723337,10.924848 L 3.9621414,10.562408 C 3.5351663,10.329926 2.929118,10.213605 2.5691259,10.328487 2.2091336,10.443371 1.8425848,10.397225 1.7350075,10.128373 Z"
     id="path8-3"
     inkscape:connector-curvature="0"
     style="fill:#ffffff"
     sodipodi:nodetypes="zzccccccccccsccccccccccczz" />
  <path
     d="m 2.5108052,13.093296 c -0.1075769,-0.268853 0.2437894,-0.430565 0.7363781,-0.573928 0.4925885,-0.143362 1.6201649,-0.0454 2.4658665,0.375099 0.2399579,0.118708 0.4649185,0.255676 0.7048764,0.374382 0.426975,0.232482 1.0727618,0.232482 1.4997369,0 0.2399579,-0.118709 0.4649192,-0.255676 0.7048771,-0.374382 1.0612142,-0.544955 2.6131408,-0.544955 3.6743558,0 0.22496,0.118708 0.434923,0.246543 0.659883,0.35612 0.426975,0.232482 1.072763,0.232482 1.499738,0 l 0.704877,-0.374382 c 0.474366,-0.243989 1.073662,-0.379589 1.694702,-0.383514 l 0,0 c 0.414078,0 0.749869,0.204449 0.749869,0.456563 0,0.252115 -0.335791,0.456565 -0.749869,0.456565 l 0,0 c -0.388431,0.02 -0.748968,0.131399 -1.004823,0.310463 -0.407028,0.263619 -0.926088,0.453277 -1.499737,0.547878 -0.917089,0.165824 -1.909766,0.03872 -2.639538,-0.337858 l -0.494914,-0.310464 c -0.446322,-0.277409 -1.177443,-0.281882 -1.6330619,-0.0101 l -0.016648,0.01023 C 9.3574113,13.725419 9.1624455,13.844121 8.937485,13.953695 7.8459757,14.481848 6.2884989,14.454912 5.2481313,13.88977 L 4.737939,13.527331 C 4.3109639,13.294848 3.7049156,13.178527 3.3449235,13.293409 2.9849313,13.408293 2.6183824,13.362147 2.5108052,13.093296 Z"
     id="path8-3-6"
     inkscape:connector-curvature="0"
     style="fill:#ffffff"
     sodipodi:nodetypes="zzccccccccccsccccccccccczz" />
  <path
     d="M 1.1143694,7.3072031 C 1.0067925,7.0383506 1.3581588,6.8766379 1.8507474,6.7332757 2.343336,6.5899135 3.4709123,6.6878729 4.3166139,7.108374 4.5565718,7.2270828 4.7815324,7.36405 5.0214903,7.4827564 c 0.4269751,0.2324822 1.0727618,0.2324822 1.4997369,0 0.2399579,-0.1187089 0.4649192,-0.2556761 0.7048771,-0.3743824 1.0612139,-0.5449547 2.6131411,-0.5449547 3.6743557,0 0.22496,0.1187088 0.434923,0.2465437 0.659884,0.3561202 0.426974,0.2324823 1.072763,0.2324823 1.499737,0 L 13.764958,7.0901118 C 14.239325,6.8461236 14.83862,6.7105238 15.45966,6.7065984 l 0,0 c 0.414078,0 0.749869,0.2044489 0.749869,0.4565632 0,0.2521143 -0.335791,0.4565645 -0.749869,0.4565645 l 0,0 C 15.071229,7.6397255 14.710692,7.7511252 14.454837,7.9301898 14.047809,8.193809 13.528749,8.3834667 12.9551,8.4780676 12.038011,8.6438913 11.045334,8.5167913 10.315562,8.1402094 L 9.8206484,7.8297455 C 9.3743271,7.5523365 8.6432057,7.5478631 8.1875857,7.8196448 l -0.016648,0.010227 C 7.9609754,7.9393259 7.7660097,8.0580284 7.5410491,8.1676027 6.4495399,8.6957561 4.892063,8.66882 3.8516955,8.1036777 L 3.3415031,7.7412379 C 2.9145281,7.5087556 2.3084797,7.3924343 1.9484876,7.5073163 1.5884954,7.6222008 1.2219465,7.5760543 1.1143694,7.3072031 Z"
     id="path8-3-7"
     inkscape:connector-curvature="0"
     style="fill:#ffffff"
     sodipodi:nodetypes="zzccccccccccsccccccccccczz" />
</svg>
